<svg xmlns="http://www.w3.org/2000/svg" xmlns:xlink="http://www.w3.org/1999/xlink" width="521.372" height="465.428" viewBox="0 0 521.372 465.428">
  <defs>
    <clipPath id="clip-path">
      <path id="Trazado_251054" data-name="Trazado 251054" d="M376.085,85.04H169.995L66.95,263.518,169.995,442h206.09L479.14,263.518Z" transform="translate(-16.693 -62.017)" fill="#f7f7f7" stroke="#707070" stroke-width="1"/>
    </clipPath>
  </defs>
  <g id="Grupo_899248" data-name="Grupo 899248" transform="translate(13448.649 11520.062)">
    <g id="Grupo_899247" data-name="Grupo 899247" transform="translate(-14316.333 -11618.409)">
      <g id="Grupo_874815" data-name="Grupo 874815">
        <g id="banner2-01" transform="translate(847.75 24.214)">
          <g id="OBJECTS" transform="translate(20.5 61.264)">
            <path id="Trazado_251618" data-name="Trazado 251618" d="M115.661,69.523l-.577-.993H113.93" transform="translate(-6.101 -54.115)" fill="none" stroke="#28965a" stroke-miterlimit="10" stroke-width="0.98"/>
            <path id="Trazado_626795" data-name="Trazado 626795" d="M0,0" transform="translate(38.617 14.415)" fill="none" stroke="#fefefe" stroke-width="0.98" stroke-dasharray="1.97 1.97"/>
            <path id="Trazado_251619" data-name="Trazado 251619" d="M53.211,68.53H52.057l-.577.993" transform="translate(-15.726 -54.115)" fill="none" stroke="#28965a" stroke-miterlimit="10" stroke-width="0.98"/>
            <path id="Trazado_251620" data-name="Trazado 251620" d="M21.077,122.18l-.577,1,.577.993" transform="translate(-20.5 -45.847)" fill="none" stroke="#28965a" stroke-miterlimit="10" stroke-width="0.98"/>
            <path id="Trazado_251621" data-name="Trazado 251621" d="M51.48,176.7l.577,1h1.154" transform="translate(-15.726 -37.445)" fill="none" stroke="#28965a" stroke-miterlimit="10" stroke-width="0.98"/>
            <path id="Trazado_251623" data-name="Trazado 251623" d="M145.91,124.177l.577-.993-.577-1" transform="translate(-1.173 -45.847)" fill="none" stroke="#28965a" stroke-miterlimit="10" stroke-width="0.98"/>
            <path id="Trazado_251665" data-name="Trazado 251665" d="M452.523,349.57H372.277L332.16,419.059l40.117,69.5h80.246l40.129-69.5Z" transform="translate(27.531 -10.803)" fill="none" stroke="#28965a" stroke-miterlimit="10" stroke-width="1.08" stroke-dasharray="2"/>
            <path id="Trazado_251752" data-name="Trazado 251752" d="M410.088,78.1a1.489,1.489,0,1,0-1.477,1.477,1.489,1.489,0,0,0,1.477-1.477Z" transform="translate(39.082 -52.871)" fill="none" stroke="#6bffb8" stroke-miterlimit="10" stroke-width="0.16"/>
            <circle id="Elipse_5995" data-name="Elipse 5995" cx="1.512" cy="1.512" r="1.512" transform="translate(444.669 16.423)" fill="none" stroke="#6bffb8" stroke-miterlimit="10" stroke-width="0.16"/>
            <path id="Trazado_251753" data-name="Trazado 251753" d="M405.229,68.47a1.085,1.085,0,1,0-1.079.973,1.085,1.085,0,0,0,1.079-.973Z" transform="translate(38.459 -54.309)" fill="none" stroke="#6bffb8" stroke-miterlimit="10" stroke-width="0.16"/>
            <path id="Trazado_251754" data-name="Trazado 251754" d="M406.435,75.878a2.678,2.678,0,1,0-2.678,2.678A2.678,2.678,0,0,0,406.435,75.878Z" transform="translate(38.153 -53.395)" fill="none" stroke="#6bffb8" stroke-miterlimit="10" stroke-width="0.16"/>
            <path id="Trazado_251765" data-name="Trazado 251765" d="M428.664,68.847A1.477,1.477,0,1,1,427.2,67.37a1.477,1.477,0,0,1,1.466,1.477Z" transform="translate(41.948 -54.294)" fill="none" stroke="#6bffb8" stroke-miterlimit="10" stroke-width="0.16"/>
            <path id="Trazado_251766" data-name="Trazado 251766" d="M427.4,75.2a1.512,1.512,0,1,1-1.512-1.512A1.512,1.512,0,0,1,427.4,75.2Z" transform="translate(41.744 -53.32)" fill="none" stroke="#6bffb8" stroke-miterlimit="10" stroke-width="0.16"/>
            <path id="Trazado_251767" data-name="Trazado 251767" d="M423.809,78.41a1.085,1.085,0,1,1-.5-1.032,1.085,1.085,0,0,1,.5,1.032Z" transform="translate(41.322 -52.777)" fill="none" stroke="#6bffb8" stroke-miterlimit="10" stroke-width="0.16"/>
            <path id="Trazado_251768" data-name="Trazado 251768" d="M425.025,71.353a2.678,2.678,0,1,1-2.666-2.643A2.678,2.678,0,0,1,425.025,71.353Z" transform="translate(41.018 -54.087)" fill="none" stroke="#6bffb8" stroke-miterlimit="10" stroke-width="0.16"/>
            <g id="Grupo_874301" data-name="Grupo 874301" transform="translate(47.784 49.45)">
              <path id="Trazado_273571" data-name="Trazado 273571" d="M428.169,420.9v14.593H408.836v-4.748c0-1.394-1.4-2.518-3.136-2.518H386.411c-1.742,0-3.128,1.133-3.128,2.527v4.783H363.95v-14.55Z" transform="translate(-0.918 -14.747)" fill="#38474f"/>
              <path id="Trazado_273572" data-name="Trazado 273572" d="M364.891,424.267a30.137,30.137,0,0,1,5.82-.2l6.1-.052h42.725a20.351,20.351,0,0,1,6.621.7.444.444,0,0,1,0,.871,18.059,18.059,0,0,1-5.689.706c-2.039,0-4.086,0-6.1.043H402.293c-7.989,0-15.978.087-23.968.044l-6.691-.044H368.3a17.17,17.17,0,0,1-3.415-.174.976.976,0,0,1,.009-1.891Z" transform="translate(-0.944 -15.143)" fill="#263238"/>
              <path id="Trazado_273573" data-name="Trazado 273573" d="M408.515,392.809v-6.5a17.426,17.426,0,0,0-.383-3.563l-3.894-18.3a5.82,5.82,0,0,0-5.7-4.6H391.4v-9.54h16.728a7.144,7.144,0,0,1,6.6,4.356l11.152,26.468a17.808,17.808,0,0,1,1.394,6.892v22.513H408.524l-43.414.052v-4.008a3.023,3.023,0,0,1,3.023-3.032l29.692-.044a10.7,10.7,0,0,0,10.69-10.7Z" transform="translate(-1.067 -5.658)" fill="none" stroke="#dbdbdb" stroke-miterlimit="10" stroke-width="1"/>
              <path id="Trazado_273574" data-name="Trazado 273574" d="M360.462,416.126l69.411-.1a3.659,3.659,0,0,1,3.659,3.642h0a3.659,3.659,0,0,1-3.651,3.659l-69.411.1a3.65,3.65,0,0,1-3.65-3.651h0a3.642,3.642,0,0,1,3.642-3.651Z" transform="translate(0 -14.12)" fill="#38474f"/>
              <rect id="Rectángulo_44684" data-name="Rectángulo 44684" width="7.336" height="12.502" transform="translate(403.118 320.859) rotate(-151.59)" fill="#f6f6f6"/>
              <rect id="Rectángulo_44685" data-name="Rectángulo 44685" width="10.525" height="68.305" transform="translate(375.972 374.398) rotate(-151.59)" fill="#38474f"/>
              <rect id="Rectángulo_44686" data-name="Rectángulo 44686" width="19.463" height="54.191" transform="translate(382.664 371.406) rotate(-151.59)" fill="#fff" stroke="#dbdbdb" stroke-miterlimit="10" stroke-width="1"/>
              <path id="Trazado_273575" data-name="Trazado 273575" d="M373.6,366.4h0a2,2,0,0,0,2.718-.81l1.438-2.657a2,2,0,0,0-.81-2.718h0a2.013,2.013,0,0,0-2.718.81l-1.438,2.657a2.013,2.013,0,0,0,.81,2.718Z" transform="translate(-2.026 -6.902)" fill="#f7f7f7"/>
              <path id="Trazado_273576" data-name="Trazado 273576" d="M378.739,353.224h0a2.013,2.013,0,0,0,2.718-.81l14.977-27.671a2,2,0,0,0-.81-2.718h0a2.013,2.013,0,0,0-2.718.81l-14.942,27.671A2.021,2.021,0,0,0,378.739,353.224Z" transform="translate(-2.691 -1.985)" fill="#f7f7f7"/>
              <rect id="Rectángulo_44687" data-name="Rectángulo 44687" width="5.611" height="9.627" transform="translate(389.595 397.871) rotate(179.92)" fill="#dbdbdb"/>
              <circle id="Elipse_6222" data-name="Elipse 6222" cx="8.373" cy="8.373" r="8.373" transform="translate(386.738 350.365) rotate(-80.21)" fill="#96d1ab"/>
              <path id="Trazado_273577" data-name="Trazado 273577" d="M396.37,348.306a5.14,5.14,0,1,0,1.5-3.655,5.158,5.158,0,0,0-1.5,3.655Z" transform="translate(-5.093 -4.734)" fill="none" stroke="#263238" stroke-miterlimit="10" stroke-width="1"/>
              <path id="Trazado_273578" data-name="Trazado 273578" d="M400.762,392.69c-5.044,3.311-14,4.286-23.062,2.945C382.84,401.394,397.041,400.984,400.762,392.69Z" transform="translate(-2.689 -11.115)" fill="#a4ff00"/>
              <path id="Trazado_273579" data-name="Trazado 273579" d="M376.305,403.4h25.414a2.2,2.2,0,0,0,2.2-2.2h0a2.187,2.187,0,0,0-2.2-2.2H376.3a2.187,2.187,0,0,0-2.187,2.2h0a2.187,2.187,0,0,0,2.2,2.2Z" transform="translate(-2.226 -11.927)" fill="#ebebeb"/>
            </g>
            <path id="Trazado_251664" data-name="Trazado 251664" d="M447.492,355.53H375.187L339.04,418.141l36.147,62.622h72.305l36.158-62.622Z" transform="translate(28.591 -9.884)" fill="none" stroke="#28965a" stroke-miterlimit="10" stroke-width="0.97"/>
            <g id="contenedor-01" transform="translate(10.25 -36.624)">
              <g id="OBJECTS-2" data-name="OBJECTS" transform="translate(20.5 66.913)">
                <path id="Trazado_251002" data-name="Trazado 251002" d="M115.553,69.46l-.541-.93H113.93" transform="translate(-12.843 -63.369)" fill="none" stroke="#28965a" stroke-miterlimit="10" stroke-width="0.98" opacity="0.53"/>
                <path id="Trazado_251003" data-name="Trazado 251003" d="M53.1,68.53H52.021l-.541.93" transform="translate(-17.961 -63.369)" fill="none" stroke="#28965a" stroke-miterlimit="10" stroke-width="0.98"/>
                <path id="Trazado_251004" data-name="Trazado 251004" d="M21.041,122.18l-.541.941.541.93" transform="translate(-20.5 -58.972)" fill="none" stroke="#28965a" stroke-miterlimit="10" stroke-width="0.98"/>
                <path id="Trazado_251005" data-name="Trazado 251005" d="M51.48,176.7l.541.941H53.1" transform="translate(-17.961 -54.505)" fill="none" stroke="#28965a" stroke-miterlimit="10" stroke-width="0.98"/>
                <path id="Trazado_251006" data-name="Trazado 251006" d="M113.93,177.641h1.082l.541-.941" transform="translate(-12.843 -54.505)" fill="none" stroke="#28965a" stroke-miterlimit="10" stroke-width="0.98"/>
                <line id="Línea_431" data-name="Línea 431" y1="54.346" x2="31.377" transform="translate(103.781 66.01)" fill="none" stroke="#28965a" stroke-miterlimit="10" stroke-width="0.98" stroke-dasharray="1.97 1.97"/>
                <path id="Trazado_251007" data-name="Trazado 251007" d="M145.91,124.052l.541-.93-.541-.941" transform="translate(-10.223 -58.972)" fill="none" stroke="#28965a" stroke-miterlimit="10" stroke-width="0.98"/>
                <path id="Trazado_251048" data-name="Trazado 251048" d="M440.711,355.53H372.927l-33.887,58.7,33.887,58.707h67.784l33.9-58.707Z" transform="translate(5.604 -39.85)" fill="none" stroke="#169788" stroke-miterlimit="10" stroke-width="0.97"/>
                <path id="Trazado_251049" data-name="Trazado 251049" d="M445,349.57H369.769L332.16,414.714l37.609,65.155H445l37.619-65.155Z" transform="translate(5.04 -40.338)" fill="none" stroke="#28965a" stroke-miterlimit="10" stroke-width="1.08" stroke-dasharray="2"/>
                <path id="Trazado_251050" data-name="Trazado 251050" d="M420.36,369.69l-1.223,4.252a14.435,14.435,0,0,0-3.181,1.3l-3.927-2.164-3.505,3.462,2.164,3.873a13.383,13.383,0,0,0-1.32,3.138l-4.328,1.212v4.9l4.328,1.212a13.384,13.384,0,0,0,1.32,3.138l-2.164,3.873,3.505,3.462,3.927-2.164a13.924,13.924,0,0,0,3.181,1.3l1.223,4.263h4.966l1.223-4.263a13.926,13.926,0,0,0,3.181-1.3l3.927,2.164,3.506-3.462L435,394.012a13.859,13.859,0,0,0,1.32-3.138l4.328-1.212v-4.9l-4.328-1.212a13.86,13.86,0,0,0-1.32-3.138l2.164-3.873-3.506-3.462-3.927,2.164a14.436,14.436,0,0,0-3.181-1.3l-1.223-4.252Zm2.478,8.363a9.175,9.175,0,1,1-9.283,9.175,9.175,9.175,0,0,1,9.283-9.175Z" transform="translate(11.013 -38.689)" fill="#f4522b" opacity="0.15"/>
                <g id="Grupo_131572" data-name="Grupo 131572" transform="translate(386.472 364.292)" opacity="0.15">
                  <path id="Trazado_251051" data-name="Trazado 251051" d="M401.665,400.46l-1.926,6.676a22.886,22.886,0,0,0-4.988,2.034l-6.145-3.376L383.1,411.2l3.43,6.07a20.772,20.772,0,0,0-2.056,4.923L377.7,424.09v7.693l6.773,1.893a20.557,20.557,0,0,0,2.056,4.923l-3.43,6.081,5.507,5.41,6.145-3.387a21.855,21.855,0,0,0,4.988,2.034l1.926,6.676h7.79l1.915-6.676a21.468,21.468,0,0,0,4.988-2.034l6.156,3.387,5.5-5.41-3.462-6.059A21.032,21.032,0,0,0,426.6,433.7l6.773-1.893v-7.693l-6.773-1.893a21.227,21.227,0,0,0-2.056-4.945l3.419-6.07-5.5-5.41-6.156,3.376a22.451,22.451,0,0,0-4.988-2.034l-1.915-6.676Zm3.9,13.124a14.379,14.379,0,1,1-14.552,14.379A14.379,14.379,0,0,1,405.56,413.584Z" transform="translate(-377.7 -400.46)" fill="#fdb32b"/>
                </g>
                <path id="Trazado_251052" data-name="Trazado 251052" d="M386.338,72.3h-223.9L50.49,266.2,162.439,460.1h223.9L498.287,266.2Z" transform="translate(-18.042 -63.06)" fill="#169788" opacity="0.3"/>
                <path id="Trazado_251053" data-name="Trazado 251053" d="M380.258,80.75H166.919L60.25,265.5,166.919,450.268H380.258L486.928,265.5l-46.979-81.368Z" transform="translate(-17.243 -62.368)" fill="#fef3de"/>
                <g id="Enmascarar_grupo_130556" data-name="Enmascarar grupo 130556" clip-path="url(#clip-path)">
                  <g id="Biologist-bro" transform="translate(-93.706 -82.206)">
                    <g id="freepik--background-simple--inject-18" transform="translate(21.847 48.341)">
                      <path id="Trazado_273646" data-name="Trazado 273646" d="M746.128,304.963c-14.906-44.093-42.013-83.381-77.868-114.1C617.655,147.5,524.975,76.373,439.6,54.893,314.006,23.282,204.225,113.58,159.57,165.048S33.042,273.414,24.669,323.072s.926,121,40.931,139.062H695.44S787.4,427.07,746.128,304.963Z" transform="translate(-21.847 -48.341)" fill="#56cb77" stroke="#707070" stroke-width="1"/>
                      <path id="Trazado_273647" data-name="Trazado 273647" d="M746.128,304.963c-14.906-44.093-42.013-83.381-77.868-114.1C617.655,147.5,524.975,76.373,439.6,54.893,314.006,23.282,204.225,113.58,159.57,165.048S33.042,273.414,24.669,323.072s.926,121,40.931,139.062H695.44S787.4,427.07,746.128,304.963Z" transform="translate(-21.847 -48.341)" fill="#fff" stroke="#707070" stroke-width="1" opacity="0.7"/>
                    </g>
                    <g id="freepik--Character--inject-18" transform="translate(247.729 153.579)">
                      <path id="Trazado_273671" data-name="Trazado 273671" d="M547.346,410.583c-5.024-12.045-29.427-56.846-41.129-80.926s-25.079-47.151-28.428-55.13-9.029-10.038-9.029-10.038l-65.209-7.4s-48.483-3.672-58.51-2.008c0,0-75.933,17.059-82.257,18.057s-12.711,6.355-13.377,12.711c-.312,2.913-1.81,12.482-3.349,22.052-1.04,4.1-2.954,11.442-5.2,17.808-9.081,25.214-15.842,36.021-25.932,60.736-1.04,2.663-11.047,28.74-10.995,31.611.291,14.968,51.385-13.242,59.779-6.179-1.415,8.051-3.121,16.216-2.746,16.487,1.675,1.342-2.08,24.964-2.08,24.964H543.33S552.359,422.618,547.346,410.583Z" transform="translate(-201.151 -145.289)" fill="#fff" stroke="#263238" stroke-miterlimit="10" stroke-width="1"/>
                      <line id="Línea_772" data-name="Línea 772" x1="12.565" y2="117.769" transform="translate(258.569 189.111)" fill="#fff" stroke="#263238" stroke-miterlimit="10" stroke-width="1"/>
                      <line id="Línea_773" data-name="Línea 773" x1="0.967" y2="8.987" transform="translate(271.977 172.24)" fill="#fff" stroke="#263238" stroke-miterlimit="10" stroke-width="1"/>
                      <path id="Trazado_273672" data-name="Trazado 273672" d="M475.21,335.371a57.412,57.412,0,0,1,3.349-5.2" transform="translate(-190.251 -142.255)" fill="none" stroke="#263238" stroke-miterlimit="10" stroke-width="1"/>
                      <path id="Trazado_273673" data-name="Trazado 273673" d="M457.23,380.86s6.865-22.478,15.187-39.34" transform="translate(-190.974 -141.799)" fill="none" stroke="#263238" stroke-miterlimit="10" stroke-width="1"/>
                      <path id="Trazado_273674" data-name="Trazado 273674" d="M492.51,365.784a22.676,22.676,0,0,1,10.745-1.217" transform="translate(-189.556 -140.88)" fill="none" stroke="#263238" stroke-miterlimit="10" stroke-width="1"/>
                      <path id="Trazado_273675" data-name="Trazado 273675" d="M455,398.131s15.3-19.971,31.892-29.281" transform="translate(-191.063 -140.701)" fill="none" stroke="#263238" stroke-miterlimit="10" stroke-width="1"/>
                      <path id="Trazado_273676" data-name="Trazado 273676" d="M511.11,387.49c6.74,4.317,11.983,10.163,12.784,11.567" transform="translate(-188.809 -139.952)" fill="none" stroke="#263238" stroke-miterlimit="10" stroke-width="1"/>
                      <path id="Trazado_273677" data-name="Trazado 273677" d="M469.12,392.222s16.705-8.686,29.063-9.362a19.221,19.221,0,0,1,7.479,1.227" transform="translate(-190.496 -140.138)" fill="none" stroke="#263238" stroke-miterlimit="10" stroke-width="1"/>
                      <path id="Trazado_273678" data-name="Trazado 273678" d="M333.655,270.909s-2.205,11.6-2.205,19.888c0,8.581,0,18.349,1.9,26.608,5.128-.562,10.4-.406,15.6-.541L336.526,328.4a2.143,2.143,0,0,0-.822,1.238,2.195,2.195,0,0,0,.6,1.446c14.1,18.723,26.244,39.392,44.853,54.162-6.522-5.2,30.332-50.376,34.232-55.608.4-.52-14.563-14.687-15.447-15.6l22.666-1.123s3.869-12.149-3.318-36.406-33.889-39.787-48.618-35.366S336.973,258.708,333.655,270.909Z" transform="translate(-196.028 -145.862)" fill="#fff" stroke="#263238" stroke-miterlimit="10" stroke-width="1"/>
                      <path id="Trazado_273679" data-name="Trazado 273679" d="M333.261,173.309s-19.763,24.413-22.738,42.8,2.008,35.106,1.04,50.49-3.006,23.737-5.347,37.779a66.27,66.27,0,0,0,1.664,27.045l22.405.343,3.682-19.4,2.34,20.065a55.222,55.222,0,0,0,7.687,0c2.673-.333,12.711-1.04,12.711-1.04s-2.34-7.687-4.681-17.683c-4.462-19.119-4.681-17.059-4.681-31.1s5.347-65.531,10.027-78.586,9.694-30.425,9.694-30.425S347.98,160.942,333.261,173.309Z" transform="translate(-197.069 -148.776)" fill="#263238" stroke="#263238" stroke-miterlimit="10" stroke-width="1"/>
                      <path id="Trazado_273680" data-name="Trazado 273680" d="M423.764,162.813S443.528,188.9,446.5,208.581s-2,37.519-1.04,53.954,3.006,25.37,5.347,40.38a75.507,75.507,0,0,1-1.664,28.948l-22.406.354-3.682-20.72-2.34,21.438a52.02,52.02,0,0,1-7.687,0c-2.673-.364-12.711-1.04-12.711-1.04s2.34-8.217,4.681-18.942c4.462-20.429,4.681-18.224,4.681-33.234s-5.346-70.035-10.027-83.974S390,163.167,390,163.167,409.056,149.593,423.764,162.813Z" transform="translate(-193.675 -149.212)" fill="#263238" stroke="#263238" stroke-miterlimit="10" stroke-width="1"/>
                      <path id="Trazado_273681" data-name="Trazado 273681" d="M327.7,234.7s-4.878-21.23-3.2-37.873,12.035-34.44,27.419-41.794,42.127-7.364,62.525,0,24.746,36.781,22.405,52.165-5.347,28.418-5.679,29.76-5.357,10.693-8.7,12.035-6.356-21.407-21.407-27.045-35.106,7.687-46.142,11.369a45.508,45.508,0,0,0-17.683,11.036S328.883,242.523,327.7,234.7Z" transform="translate(-196.321 -149.514)" fill="#263238" stroke="#263238" stroke-miterlimit="10" stroke-width="1"/>
                      <path id="Trazado_273682" data-name="Trazado 273682" d="M357.91,294.29s2.34,20.731,7.7,27.752a149.158,149.158,0,0,1,9.694,14.719s3.672-6.355,8.321-14.719,7.7-24.735,7.7-24.735S365.607,297.972,357.91,294.29Z" transform="translate(-194.964 -143.697)" fill="#ff9a6c"/>
                      <path id="Trazado_273683" data-name="Trazado 273683" d="M419.162,237.276s3.963-9.091,8.165-6.751-.468,17.246-3.734,22.832a13.637,13.637,0,0,1-8.623,6.532Z" transform="translate(-192.672 -146.274)" fill="#ffbf9d" stroke="#263238" stroke-miterlimit="10" stroke-width="1"/>
                      <path id="Trazado_273684" data-name="Trazado 273684" d="M336.435,233.187s-6.761-9.715-8.852-1.633c-3.505,13.522,9.362,26.337,9.362,26.337Z" transform="translate(-196.207 -146.346)" fill="#ffbf9d" stroke="#263238" stroke-miterlimit="10" stroke-width="1"/>
                      <path id="Trazado_273685" data-name="Trazado 273685" d="M335.111,221.035s26.785,1.123,41.67-7.063a53.132,53.132,0,0,0,21.2-22.322s10.787,22.7,15.249,27.159l10.8,10.787s-4.67,26.8-7.281,39.069-15.051,29.749-22.125,34.586-14.875,9.674-20.46,8.561-16.82-8.321-24.964-19.139-10.724-14.354-12.586-33.286a372.209,372.209,0,0,1-1.5-38.351Z" transform="translate(-195.882 -147.821)" fill="#ffbf9d"/>
                      <path id="Trazado_273686" data-name="Trazado 273686" d="M365,271.3s7,8.384,18.182,1.165" transform="translate(-194.68 -144.62)" fill="none" stroke="#263238" stroke-miterlimit="10" stroke-width="1"/>
                      <path id="Trazado_273687" data-name="Trazado 273687" d="M360.27,280.04a20.086,20.086,0,0,0,14.448,5.2A23.341,23.341,0,0,0,389.874,279" transform="translate(-194.87 -144.311)" fill="none" stroke="#263238" stroke-miterlimit="10" stroke-width="1"/>
                      <path id="Trazado_273688" data-name="Trazado 273688" d="M343.7,231.269c9.362-4.4,20.731,1.633,20.731,1.633s2.548,2.777,2.018-1.04-5.565-5.2-13.616-4.941S343.7,231.269,343.7,231.269Z" transform="translate(-195.535 -146.405)" fill="#263238" stroke="#263238" stroke-miterlimit="10" stroke-width="1"/>
                      <path id="Trazado_273689" data-name="Trazado 273689" d="M408.644,235.88c-9.258-4.691-20.8.978-20.8.978s-2.621,2.694-1.976-1.04,5.711-4.972,13.762-4.514S408.644,235.88,408.644,235.88Z" transform="translate(-193.845 -146.231)" fill="#263238" stroke="#263238" stroke-miterlimit="10" stroke-width="1"/>
                      <path id="Trazado_273690" data-name="Trazado 273690" d="M358.162,248.727c0,2.528-1.342,4.587-3.006,4.587s-3-2.08-3-4.587,1.342-4.577,3-4.577S358.162,246.2,358.162,248.727Z" transform="translate(-195.195 -145.711)" fill="#263238" stroke="#707070" stroke-width="1"/>
                      <path id="Trazado_273691" data-name="Trazado 273691" d="M349.12,244.455s8.852-.947,12,2.216" transform="translate(-195.318 -145.704)" fill="none" stroke="#263238" stroke-miterlimit="10" stroke-width="1"/>
                      <path id="Trazado_273692" data-name="Trazado 273692" d="M397.232,252.377c0,2.528-1.342,4.577-3.006,4.577s-3-2.08-3-4.577,1.342-4.577,3-4.577S397.232,249.849,397.232,252.377Z" transform="translate(-193.626 -145.565)" fill="#263238" stroke="#707070" stroke-width="1"/>
                      <path id="Trazado_273693" data-name="Trazado 273693" d="M388.2,248.105s8.852-.947,12,2.216" transform="translate(-193.747 -145.558)" fill="none" stroke="#263238" stroke-miterlimit="10" stroke-width="1"/>
                      <path id="Trazado_273694" data-name="Trazado 273694" d="M332.99,229.175s20.284,7.7,41.722,9.559,48.244-4.9,50.345-5.128-1.165,11.182-3.266,19.108-3.963,12.118-12.586,14.219-17.943,2.559-21.677-.936-9.081-18.172-12.347-17.943-8.862,12.815-12.815,15.852-16.788-.468-24.007-4.66S329.943,226.845,332.99,229.175Z" transform="translate(-196.029 -146.318)" fill="none" stroke="#fff" stroke-miterlimit="10" stroke-width="1"/>
                      <path id="Trazado_273695" data-name="Trazado 273695" d="M332.99,232.774s20.284,7.7,41.722,9.559,48.244-4.9,50.345-5.128a.437.437,0,0,1,.447.218c.374-2.372.333-3.911-.447-3.817-2.08.229-28.9,6.99-50.345,5.128s-41.722-9.559-41.722-9.559c-1.165-.895-1.706,2.746-1.519,7.791C331.607,233.939,332.127,232.119,332.99,232.774Z" transform="translate(-196.028 -146.318)" fill="#f4522b"/>
                      <path id="Trazado_273696" data-name="Trazado 273696" d="M247.672,350.7s-15.363,16.851-26.92,28.47S198.284,420,202.029,428.984s12.732,16.1,25.464,19.1,21.344-2.621,30.29-10.86,26.6-68.173,26.6-68.173Z" transform="translate(-201.258 -141.43)" fill="#ffbf9d"/>
                      <path id="Trazado_273697" data-name="Trazado 273697" d="M202.03,427.926c3.745,8.987,12.732,16.1,25.464,19.1s21.344-2.663,30.29-10.9c2.923-2.673,6.761-10.818,10.6-20.585-5.367,1.716-19.93,5.2-33.067-2.257-16.487-9.362-14.615-35.21-14.615-35.21C209.093,389.678,198.233,418.9,202.03,427.926Z" transform="translate(-201.259 -140.33)" fill="#fff" stroke="#263238" stroke-miterlimit="10" stroke-width="1"/>
                      <path id="Trazado_273698" data-name="Trazado 273698" d="M253.625,302.314s4.046,23.789,4.046,25.464S240.28,356.9,240.28,356.9s1.675,1.675,11.712,12.045,20.731,13.033,25.412,13.033h6.355s3.339-23.4,7.354-32.433,5.014-12.035,6.688-14.375,4.681-4.681,7.021-11.369,4.348-27.045,6.688-32.1,11.036-13.044,11.369-17.683.666-7.021-6.688-5.014-13.044,9.362-14.719,13.034,0,4.348-3.006,1.04-7.021-9.029-7.021-9.029l-35.855,18.9S251.961,298.351,253.625,302.314Z" transform="translate(-199.691 -144.741)" fill="#a8a8a8"/>
                      <path id="Trazado_273699" data-name="Trazado 273699" d="M282.05,311.33s4,5.014,2.673,13.71" transform="translate(-198.012 -143.012)" fill="none" stroke="#263238" stroke-miterlimit="10" stroke-width="1"/>
                      <path id="Trazado_273700" data-name="Trazado 273700" d="M332.118,343.108h0a.791.791,0,0,1-1.04-.385L287.39,250l2.871-1.321,42.231,93.377a.791.791,0,0,1-.374,1.051Z" transform="translate(-197.798 -145.529)" fill="#263238" stroke="#263238" stroke-miterlimit="10" stroke-width="1"/>
                      <path id="Trazado_273701" data-name="Trazado 273701" d="M328.508,328.867l-4.858,2.247-44.28-95.967a2.684,2.684,0,0,1,1.311-3.547h0a2.673,2.673,0,0,1,3.547,1.311Z" transform="translate(-198.13 -146.225)" fill="#92b9e4"/>
                      <line id="Línea_774" data-name="Línea 774" x1="15.135" y1="31.788" transform="translate(112.206 150.406)" fill="none" stroke="#56cb77" stroke-miterlimit="10" stroke-width="1"/>
                      <path id="Trazado_273702" data-name="Trazado 273702" d="M287.526,273.953s9.029,11.369,13.044,14.708,9.029,5.014,9.694-.666-6.688-15.384-10.7-21.4-7.021-9.029-11.7-5.357-9.029,15.717-9.029,15.717Z" transform="translate(-198.142 -145.089)" fill="#a8a8a8" stroke="#263238" stroke-miterlimit="10" stroke-width="1"/>
                      <path id="Trazado_273703" data-name="Trazado 273703" d="M264.256,306.56s2.673,9.362,6.688,9.7,4.015-1.342,9.029-3.682,8.7-3.682,12.378-5.347,7.354-6.356,7.354-10.7-11.036-23.071-11.036-23.071-1.04-2.34-5.347-1.342-28.085,12.035-30.769,15.717-2.673,6.355-1.04,12.035,5.014,16.393,5.014,16.393" transform="translate(-199.285 -144.597)" fill="#a8a8a8" stroke="#263238" stroke-miterlimit="10" stroke-width="1"/>
                      <path id="Trazado_273704" data-name="Trazado 273704" d="M275.62,276.29s11.369,17.059,12.035,21.064,1.04,9.7-1.04,11.7" transform="translate(-198.271 -144.42)" fill="none" stroke="#263238" stroke-miterlimit="10" stroke-width="1"/>
                      <path id="Trazado_273705" data-name="Trazado 273705" d="M265.65,279.83s9.362,15.374,12.368,20.4,3.682,10.027,1.342,12.035c0,0,2.34,6.355-3.006,14.708" transform="translate(-198.671 -144.278)" fill="none" stroke="#263238" stroke-miterlimit="10" stroke-width="1"/>
                      <line id="Línea_775" data-name="Línea 775" x2="9.372" y2="4.005" transform="translate(60.956 160.298)" fill="none" stroke="#263238" stroke-miterlimit="10" stroke-width="1"/>
                      <path id="Trazado_273706" data-name="Trazado 273706" d="M533.476,447.457s5.679-15.7-6.345-33.067-47.11-18.723-57.8-17.049-29.468,9.029-39.8,13.7-31.4,4.015-33.359,3.651-32.734-4.015-40.089-2.673-7.354,7.677-8.02,9.684-7.354,14.708-8.02,19.046,2.34,6.012,4.015,6.345a21.667,21.667,0,0,1,3.339,1.04Z" transform="translate(-195.686 -139.578)" fill="#ffbf9d" stroke="#263238" stroke-miterlimit="10" stroke-width="1"/>
                      <path id="Trazado_273707" data-name="Trazado 273707" d="M396.172,414.141c-2-.333-32.734-4.015-40.089-2.673s-7.354,7.677-8.02,9.684-7.354,14.708-8.02,19.046,2.34,6.012,4.015,6.345a21.667,21.667,0,0,1,3.339,1.04l92.472-.333a42.727,42.727,0,0,0,.406-7.687c-.333-11.359-10.693-29.073-10.693-29.073C419.181,415.181,398.127,414.505,396.172,414.141Z" transform="translate(-195.686 -139.028)" fill="#a8a8a8" stroke="#263238" stroke-miterlimit="10" stroke-width="1"/>
                      <path id="Trazado_273708" data-name="Trazado 273708" d="M366.294,413.38s-3.682.343-5.347,3.016-1.04,3.006-4.015,10.4-8.02,14.032-5.679,17.038,2.008,3.349,7.021,3.682" transform="translate(-195.256 -138.911)" fill="none" stroke="#263238" stroke-miterlimit="10" stroke-width="1"/>
                      <path id="Trazado_273709" data-name="Trazado 273709" d="M378.775,416s-3.433.312-5,2.777-.936,2.767-3.745,9.538-7.51,12.94-5.315,15.707,1.872,3.121,6.564,3.391" transform="translate(-194.714 -138.806)" fill="none" stroke="#263238" stroke-miterlimit="10" stroke-width="1"/>
                      <path id="Trazado_273710" data-name="Trazado 273710" d="M386.992,420.77a5.264,5.264,0,0,0-3.713,2.32c-1.165,2.08-.7,2.33-2.808,8.02s-5.617,10.87-3.974,13.2,1.4,2.59,4.91,2.85a33.287,33.287,0,0,0,6.241-1.342c3.006-1.04,4.681-3.339,4-5.347a31.081,31.081,0,0,0,7.021,3.349" transform="translate(-194.235 -138.615)" fill="none" stroke="#263238" stroke-miterlimit="10" stroke-width="1"/>
                      <path id="Trazado_273711" data-name="Trazado 273711" d="M387.53,440.258a84.819,84.819,0,0,0,8.321-6.678" transform="translate(-193.774 -138.1)" fill="none" stroke="#263238" stroke-miterlimit="10" stroke-width="1"/>
                    </g>
                    <g id="freepik--Plants--inject-18" transform="translate(350.653 320.639)">
                      <path id="Trazado_273712" data-name="Trazado 273712" d="M310.293,391.767s-2.777-13.252-4.078-27.045,6.033-26.2,6.033-26.2" transform="translate(-260.302 -308.979)" fill="none" stroke="#263238" stroke-miterlimit="10" stroke-width="2"/>
                      <path id="Trazado_273713" data-name="Trazado 273713" d="M308.494,377.229s-5.315-21.251-15.124-31.809" transform="translate(-260.812 -308.702)" fill="none" stroke="#263238" stroke-miterlimit="10" stroke-width="2"/>
                      <path id="Trazado_273714" data-name="Trazado 273714" d="M306.208,355.761a21.3,21.3,0,0,0-10.308-2.08" transform="translate(-260.711 -308.371)" fill="none" stroke="#263238" stroke-miterlimit="10" stroke-width="2"/>
                      <path id="Trazado_273715" data-name="Trazado 273715" d="M305.6,360.117s4.317-6,9.726-5.315,6.657,2.652,6.657,2.652" transform="translate(-260.321 -308.327)" fill="none" stroke="#263238" stroke-miterlimit="10" stroke-width="2"/>
                      <path id="Trazado_273716" data-name="Trazado 273716" d="M301.306,354.505a42.328,42.328,0,0,0-2.611-14.209c-2.8-7.645-8.457-7.978-14.927-7.552s-21.7,2.59-21.7,2.59,8.862,6.657,14.354,11.681,11.848,5.867,16.341,6.7A51.174,51.174,0,0,0,301.306,354.505Z" transform="translate(-262.07 -309.216)" fill="#56cb77" stroke="#263238" stroke-miterlimit="10" stroke-width="1"/>
                      <path id="Trazado_273717" data-name="Trazado 273717" d="M306.35,352.624s-2.424-11.13.135-18.4,9.507-12.482,15.977-12.867,15.27,0,15.27,0-4.858,10.4-12.669,17.943S306.35,352.624,306.35,352.624Z" transform="translate(-260.332 -309.676)" fill="#56cb77" stroke="#263238" stroke-miterlimit="10" stroke-width="1"/>
                      <path id="Trazado_273718" data-name="Trazado 273718" d="M300.614,353.778s-3.464-4.161-11.66-2.777-9.6,9.965-8.862,14.563-.8,10.4-.8,10.4,3.953-2.507,11.213-9.6S297.171,355.588,300.614,353.778Z" transform="translate(-261.378 -308.489)" fill="#56cb77" stroke="#263238" stroke-miterlimit="10" stroke-width="1"/>
                      <path id="Trazado_273719" data-name="Trazado 273719" d="M311.2,355.925s4.483-6.948,9.986-5.659,9.851,1.207,13.522,6.522,1.04,19.763,1.04,19.763a34.324,34.324,0,0,0-7.739-9.362C323.349,363.612,316.817,355.956,311.2,355.925Z" transform="translate(-260.096 -308.514)" fill="#56cb77" stroke="#263238" stroke-miterlimit="10" stroke-width="1"/>
                      <path id="Trazado_273720" data-name="Trazado 273720" d="M375.334,393.189s.614-13.522-.3-27.367-10.152-24.9-10.152-24.9" transform="translate(-257.939 -308.883)" fill="none" stroke="#263238" stroke-miterlimit="10" stroke-width="2"/>
                      <path id="Trazado_273721" data-name="Trazado 273721" d="M374.93,378.576s1.852-21.844,9.84-33.816" transform="translate(-257.535 -308.729)" fill="none" stroke="#263238" stroke-miterlimit="10" stroke-width="2"/>
                      <path id="Trazado_273722" data-name="Trazado 273722" d="M373.75,357.023a21.178,21.178,0,0,1,9.84-3.693" transform="translate(-257.583 -308.384)" fill="none" stroke="#263238" stroke-miterlimit="10" stroke-width="2"/>
                      <path id="Trazado_273723" data-name="Trazado 273723" d="M375.281,361.153s-5.2-5.2-10.454-3.693-6.147,3.693-6.147,3.693" transform="translate(-258.188 -308.229)" fill="none" stroke="#263238" stroke-miterlimit="10" stroke-width="2"/>
                      <path id="Trazado_273724" data-name="Trazado 273724" d="M379.388,354.894a42.647,42.647,0,0,1,.3-14.448c1.54-7.989,7.073-9.216,13.522-9.84s21.844-.915,21.844-.915-7.687,7.989-12.295,13.834-10.755,7.687-15.062,9.226a51.1,51.1,0,0,1-8.311,2.143Z" transform="translate(-257.375 -309.334)" fill="#56cb77" stroke="#263238" stroke-miterlimit="10" stroke-width="1"/>
                      <path id="Trazado_273725" data-name="Trazado 273725" d="M373.959,353.835s.614-11.369-3.121-18.141-11.369-10.755-17.829-10.142S338,328.007,338,328.007s6.449,9.538,15.374,15.686S373.959,353.835,373.959,353.835Z" transform="translate(-259.019 -309.503)" fill="#56cb77" stroke="#263238" stroke-miterlimit="10" stroke-width="1"/>
                      <path id="Trazado_273726" data-name="Trazado 273726" d="M379.37,354.1s2.767-4.608,11.068-4.608,11.068,8.321,11.068,12.909,2.455,10.152,2.455,10.152-4.306-1.841-12.607-7.687S383.052,355.336,379.37,354.1Z" transform="translate(-257.357 -308.539)" fill="#56cb77" stroke="#263238" stroke-miterlimit="10" stroke-width="1"/>
                      <path id="Trazado_273727" data-name="Trazado 273727" d="M369.353,357.942s-5.534-6.147-10.755-4-9.539,2.767-12.305,8.613,2.153,19.68,2.153,19.68a34.327,34.327,0,0,1,6.147-10.454C358.6,367.47,363.82,358.858,369.353,357.942Z" transform="translate(-258.72 -308.378)" fill="#56cb77" stroke="#263238" stroke-miterlimit="10" stroke-width="1"/>
                      <path id="Trazado_273728" data-name="Trazado 273728" d="M341.958,394.109s0-29.822-.915-43.688-10.152-24.9-10.152-24.9" transform="translate(-259.305 -309.502)" fill="none" stroke="#263238" stroke-miterlimit="10" stroke-width="2"/>
                      <path id="Trazado_273729" data-name="Trazado 273729" d="M340.94,363.206s1.852-21.844,9.84-33.816" transform="translate(-258.901 -309.346)" fill="none" stroke="#263238" stroke-miterlimit="10" stroke-width="2"/>
                      <path id="Trazado_273730" data-name="Trazado 273730" d="M339.76,341.653a21.3,21.3,0,0,1,9.84-3.693" transform="translate(-258.948 -309.002)" fill="none" stroke="#263238" stroke-miterlimit="10" stroke-width="2"/>
                      <path id="Trazado_273731" data-name="Trazado 273731" d="M341.289,345.8s-5.2-5.2-10.4-3.693-6.147,3.693-6.147,3.693" transform="translate(-259.552 -308.846)" fill="none" stroke="#263238" stroke-miterlimit="10" stroke-width="2"/>
                      <path id="Trazado_273732" data-name="Trazado 273732" d="M345.4,339.534a42.353,42.353,0,0,1,.3-14.459c1.539-7.989,7.073-9.216,13.522-9.83s21.844-.926,21.844-.926-7.687,7.989-12.295,13.834-10.755,7.687-15.062,9.226a51.812,51.812,0,0,1-8.311,2.153Z" transform="translate(-258.741 -309.952)" fill="#56cb77" stroke="#263238" stroke-miterlimit="10" stroke-width="1"/>
                      <path id="Trazado_273733" data-name="Trazado 273733" d="M339.969,338.465s.614-11.369-3.121-18.141-11.369-10.755-17.829-10.142S304,312.648,304,312.648s6.449,9.528,15.374,15.676S339.969,338.465,339.969,338.465Z" transform="translate(-260.385 -310.12)" fill="#56cb77" stroke="#263238" stroke-miterlimit="10" stroke-width="1"/>
                      <path id="Trazado_273734" data-name="Trazado 273734" d="M345.38,338.738s2.767-4.618,11.068-4.618,11.068,8.321,11.068,12.919,2.455,10.142,2.455,10.142-4.306-1.841-12.607-7.687S349.062,339.966,345.38,338.738Z" transform="translate(-258.723 -309.156)" fill="#56cb77" stroke="#263238" stroke-miterlimit="10" stroke-width="1"/>
                      <path id="Trazado_273735" data-name="Trazado 273735" d="M335.363,342.572s-5.534-6.147-10.755-3.994-9.538,2.767-12.305,8.6,2.153,19.68,2.153,19.68a34.325,34.325,0,0,1,6.147-10.454C324.608,352.1,329.83,343.487,335.363,342.572Z" transform="translate(-260.086 -308.995)" fill="#56cb77" stroke="#263238" stroke-miterlimit="10" stroke-width="1"/>
                      <path id="Trazado_273736" data-name="Trazado 273736" d="M355.448,419.81s-14.032.666-16.029,2.008-9.029,7.344-14.708,9.362-4.338,7.011,1.342,8.686,9.018-1.675,12.024-2.34,12.368-1.04,12.368-1.04Z" transform="translate(-259.7 -305.713)" fill="#a8a8a8" stroke="#263238" stroke-miterlimit="10" stroke-width="1"/>
                      <path id="Trazado_273737" data-name="Trazado 273737" d="M301.13,362h15.707v75.933a4.972,4.972,0,0,1-4.972,4.972h-5.773a4.972,4.972,0,0,1-4.972-4.972V362Z" transform="translate(-260.501 -308.036)" fill="none" stroke="#263238" stroke-miterlimit="10" stroke-width="1"/>
                      <path id="Trazado_273738" data-name="Trazado 273738" d="M304.252,379.66h9.206v55.556a2.912,2.912,0,0,1-2.912,2.912h-3.433a2.912,2.912,0,0,1-2.912-2.912V379.66Z" transform="translate(-260.377 -307.326)" fill="#56cb77" stroke="#263238" stroke-miterlimit="10" stroke-width="1"/>
                      <path id="Trazado_273739" data-name="Trazado 273739" d="M334.21,362h15.707v75.933a4.972,4.972,0,0,1-4.972,4.972h-5.752a4.972,4.972,0,0,1-4.972-4.972V362Z" transform="translate(-259.171 -308.036)" fill="none" stroke="#263238" stroke-miterlimit="10" stroke-width="1"/>
                      <path id="Trazado_273740" data-name="Trazado 273740" d="M337.33,379.66h9.206v55.556a2.913,2.913,0,0,1-2.913,2.912h-3.381a2.912,2.912,0,0,1-2.912-2.912V379.66Z" transform="translate(-259.046 -307.326)" fill="#56cb77" stroke="#263238" stroke-miterlimit="10" stroke-width="1"/>
                      <path id="Trazado_273741" data-name="Trazado 273741" d="M367.29,362H383v75.933a4.972,4.972,0,0,1-4.972,4.972h-5.763a4.972,4.972,0,0,1-4.972-4.972Z" transform="translate(-257.842 -308.036)" fill="none" stroke="#263238" stroke-miterlimit="10" stroke-width="1"/>
                      <path id="Trazado_273742" data-name="Trazado 273742" d="M370.42,379.66h9.206v55.556a2.912,2.912,0,0,1-2.913,2.912h-3.381a2.912,2.912,0,0,1-2.912-2.912V379.66Z" transform="translate(-257.716 -307.326)" fill="#56cb77" stroke="#263238" stroke-miterlimit="10" stroke-width="1"/>
                      <rect id="Rectángulo_44699" data-name="Rectángulo 44699" width="98.224" height="4.348" transform="translate(36.947 80.354)" fill="#fff" stroke="#263238" stroke-miterlimit="10" stroke-width="1"/>
                      <rect id="Rectángulo_44700" data-name="Rectángulo 44700" width="5.014" height="70.493" transform="translate(132.176 70.992)" fill="#fff" stroke="#263238" stroke-miterlimit="10" stroke-width="1"/>
                      <rect id="Rectángulo_44701" data-name="Rectángulo 44701" width="102.239" height="10.027" transform="translate(34.94 131.468)" fill="#fff" stroke="#263238" stroke-miterlimit="10" stroke-width="1"/>
                    </g>
                    <g id="freepik--Microscope--inject-18" transform="translate(168.797 222.241)">
                      <path id="Trazado_273743" data-name="Trazado 273743" d="M554.86,295.466s-3.121-2.819-7.614,18.983-2.247,55.6,7.115,70.275,29.354,25.349,29.354,25.349L597.5,392.286s-27.117-8.894-33.775-35.137-2.673-42.647,2.216-43.594,12.056,11.494,12.056,11.494L557.721,286Z" transform="translate(-524.773 -212.692)" fill="#727997"/>
                      <path id="Trazado_273744" data-name="Trazado 273744" d="M558.589,313.075a4,4,0,1,0-4,4,4,4,0,0,0,4-4Z" transform="translate(-524.549 -211.765)" fill="#263238"/>
                      <path id="Trazado_273745" data-name="Trazado 273745" d="M557.044,313.017a2.517,2.517,0,1,0-2.517,2.517A2.517,2.517,0,0,0,557.044,313.017Z" transform="translate(-524.492 -211.707)" fill="#fff"/>
                      <path id="Trazado_273746" data-name="Trazado 273746" d="M567.881,263.04l-16.861,9.039,1.7,7.2,20.231-10.839Z" transform="translate(-524.532 -213.614)" fill="#fff"/>
                      <rect id="Rectángulo_44702" data-name="Rectángulo 44702" width="19.129" height="56.045" transform="translate(0.001 9.039) rotate(-28.2)" fill="#263238"/>
                      <rect id="Rectángulo_44703" data-name="Rectángulo 44703" width="19.129" height="3.537" transform="translate(0 9.042) rotate(-28.2)" fill="#fff"/>
                      <rect id="Rectángulo_44704" data-name="Rectángulo 44704" width="22.822" height="64.013" transform="translate(28.186 65.633) rotate(-28.2)" fill="#727997"/>
                      <rect id="Rectángulo_44705" data-name="Rectángulo 44705" width="22.822" height="11.047" transform="translate(53.21 112.315) rotate(-28.2)" fill="#263238"/>
                      <rect id="Rectángulo_44706" data-name="Rectángulo 44706" width="7.115" height="19.576" transform="translate(80.633 115.195) rotate(-28.2)" fill="#d2e1f1"/>
                      <rect id="Rectángulo_44707" data-name="Rectángulo 44707" width="7.115" height="19.576" transform="translate(70.918 117.64) rotate(-17.08)" fill="#d2e1f1"/>
                      <rect id="Rectángulo_44708" data-name="Rectángulo 44708" width="7.115" height="19.576" transform="translate(108.177 119.51) rotate(140.68)" fill="#d2e1f1"/>
                      <rect id="Rectángulo_44709" data-name="Rectángulo 44709" width="35.585" height="6.231" transform="translate(66.385 117.782) rotate(-28.2)" fill="#d2e1f1"/>
                      <rect id="Rectángulo_44710" data-name="Rectángulo 44710" width="56.711" height="4.483" transform="translate(67.259 164.93) rotate(-28.2)" fill="#263238"/>
                      <path id="Trazado_273747" data-name="Trazado 273747" d="M653.334,386.346,617.323,401.97l-3.7-9.747L649.631,376.6Z" transform="translate(-522.016 -209.052)" fill="#263238"/>
                      <rect id="Rectángulo_44711" data-name="Rectángulo 44711" width="12.451" height="7.115" transform="translate(72.194 168.153) rotate(-28.2)" fill="#727997"/>
                      <circle id="Elipse_6228" data-name="Elipse 6228" cx="12.014" cy="12.014" r="12.014" transform="translate(19.256 79.468) rotate(-45)" fill="#263238"/>
                      <path id="Trazado_273748" data-name="Trazado 273748" d="M566.817,288.9a6.959,6.959,0,1,0,.538,5.315A6.98,6.98,0,0,0,566.817,288.9Z" transform="translate(-524.425 -212.723)" fill="#fff"/>
                      <path id="Trazado_273749" data-name="Trazado 273749" d="M605.46,396.763l19.285-8.321a3.537,3.537,0,0,1,4.712,1.935h0a3.537,3.537,0,0,1-1.685,4.483l-20.6,10.485Z" transform="translate(-522.344 -208.588)" fill="#727997"/>
                      <path id="Trazado_273750" data-name="Trazado 273750" d="M598.48,385.61h.926a8.321,8.321,0,0,1,7.531,4.816l6.709,14.448a3.526,3.526,0,0,1-3.568,4.993l-2.257-.239Z" transform="translate(-522.625 -208.689)" fill="#727997"/>
                      <path id="Trazado_273751" data-name="Trazado 273751" d="M594.58,381.5,563,428.087h62.265l-16.019-18.245-9.736-27.71a2.788,2.788,0,0,0-4.93-.634Z" transform="translate(-524.05 -208.904)" fill="#636363"/>
                      <path id="Trazado_273752" data-name="Trazado 273752" d="M598.359,391.755a4,4,0,1,0-4,4A4,4,0,0,0,598.359,391.755Z" transform="translate(-522.951 -208.604)" fill="#fff"/>
                      <path id="Trazado_273753" data-name="Trazado 273753" d="M558.95,424.76h118.9a4.4,4.4,0,0,1,4.4,4.4v17.381H554.55V429.17a4.4,4.4,0,0,1,4.4-4.41Z" transform="translate(-524.39 -207.116)" fill="#fff"/>
                    </g>
                    <g id="freepik--Table--inject-18" transform="translate(26.104 462.134)">
                      <line id="Línea_778" data-name="Línea 778" x2="601.297" transform="translate(101.813)" fill="none" stroke="#263238" stroke-miterlimit="10" stroke-width="1"/>
                      <line id="Línea_779" data-name="Línea 779" x2="93.439" fill="none" stroke="#263238" stroke-miterlimit="10" stroke-width="1"/>
                    </g>
                  </g>
                </g>
              </g>
            </g>
          </g>
        </g>
      </g>
    </g>
  </g>
</svg>
