<svg xmlns="http://www.w3.org/2000/svg" width="146.446" height="126.824" viewBox="0 0 146.446 126.824">
  <g id="Grupo_899260" data-name="Grupo 899260" transform="translate(13511.649 11341.597)">
    <path id="Trazado_626822" data-name="Trazado 626822" d="M125.151,73.67H59.344l-32.9,56.99,32.9,56.99h65.808l32.892-56.99Z" transform="translate(-13530.668 -11408.845)" fill="rgba(254,254,254,0.15)" stroke="#fefefe" stroke-miterlimit="10" stroke-width="0.89"/>
    <path id="Trazado_626823" data-name="Trazado 626823" d="M115.661,69.523l-.577-.993H113.93" transform="translate(-13517.185 -11409.637)" fill="none" stroke="#28965a" stroke-miterlimit="10" stroke-width="0.98"/>
    <line id="Línea_1037" data-name="Línea 1037" x1="66.95" transform="translate(-13472.467 -11341.106)" fill="none" stroke="#fefefe" stroke-miterlimit="10" stroke-width="0.98" stroke-dasharray="1.97 1.97"/>
    <path id="Trazado_626824" data-name="Trazado 626824" d="M53.211,68.53H52.057l-.577.993" transform="translate(-13526.809 -11409.637)" fill="none" stroke="#28965a" stroke-miterlimit="10" stroke-width="0.98"/>
    <line id="Línea_1038" data-name="Línea 1038" x1="33.469" y2="57.971" transform="translate(-13509.94 -11338.141)" fill="none" stroke="#fefefe" stroke-miterlimit="10" stroke-width="0.98" stroke-dasharray="1.97 1.97"/>
    <path id="Trazado_626825" data-name="Trazado 626825" d="M21.077,122.18l-.577,1,.577.993" transform="translate(-13531.583 -11401.368)" fill="none" stroke="#28965a" stroke-miterlimit="10" stroke-width="0.98"/>
    <line id="Línea_1039" data-name="Línea 1039" x2="33.481" y2="57.971" transform="translate(-13509.375 -11275.219)" fill="none" stroke="#fefefe" stroke-miterlimit="10" stroke-width="0.98" stroke-dasharray="1.97 1.97"/>
    <path id="Trazado_626826" data-name="Trazado 626826" d="M51.48,176.7l.577,1h1.154" transform="translate(-13526.809 -11392.967)" fill="none" stroke="#28965a" stroke-miterlimit="10" stroke-width="0.98"/>
    <line id="Línea_1040" data-name="Línea 1040" x2="66.95" transform="translate(-13471.335 -11215.263)" fill="none" stroke="#fefefe" stroke-miterlimit="10" stroke-width="0.98" stroke-dasharray="1.97 1.97"/>
    <path id="Trazado_626827" data-name="Trazado 626827" d="M113.93,177.7h1.154l.577-1" transform="translate(-13517.185 -11392.967)" fill="none" stroke="#28965a" stroke-miterlimit="10" stroke-width="0.98"/>
    <line id="Línea_1041" data-name="Línea 1041" y1="57.971" x2="33.469" transform="translate(-13400.381 -11276.199)" fill="none" stroke="#28965a" stroke-miterlimit="10" stroke-width="0.98" stroke-dasharray="1.97 1.97"/>
    <path id="Trazado_626828" data-name="Trazado 626828" d="M145.91,124.177l.577-.993-.577-1" transform="translate(-13512.256 -11401.368)" fill="none" stroke="#28965a" stroke-miterlimit="10" stroke-width="0.98"/>
    <g id="Grupo_899257" data-name="Grupo 899257" transform="translate(-13511.083 -11348.992)">
      <g id="Grupo_874298" data-name="Grupo 874298" transform="translate(-16.917 -75.632)">
        <path id="Trazado_273557" data-name="Trazado 273557" d="M136.2,146.658H104.794l-3.165-5.816a2.386,2.386,0,0,0-2.087-1.252H72.763a2.393,2.393,0,0,0-2.393,2.372v38.194a3.332,3.332,0,0,0,3.332,3.332h62.5a3.325,3.325,0,0,0,3.332-3.332V149.984a3.326,3.326,0,0,0-3.332-3.325Z" transform="translate(-21.68 -17.241)" fill="#ebebeb" opacity="0.3"/>
        <path id="Trazado_273558" data-name="Trazado 273558" d="M144.42,176.688H85.34a5.03,5.03,0,0,1-5.03-5.03V139.85h64.109a5.03,5.03,0,0,1,5.03,5.03v26.778a5.03,5.03,0,0,1-5.03,5.03Z" transform="translate(-24.704 -17.32)" fill="#fff"/>
        <path id="Trazado_273559" data-name="Trazado 273559" d="M109.46,129.7H82.7a2.393,2.393,0,0,0-2.393,2.393v4.668h34.417l-3.165-5.809a2.386,2.386,0,0,0-2.1-1.252Z" transform="translate(-24.704 -14.231)" fill="#b5dfc4"/>
        <circle id="Elipse_6220" data-name="Elipse 6220" cx="1.704" cy="1.704" r="1.704" transform="translate(61.944 117.298)" fill="none" stroke="#fff" stroke-miterlimit="10" stroke-width="1"/>
        <path id="Trazado_273560" data-name="Trazado 273560" d="M103.119,134.034a1.7,1.7,0,1,1-1.7-1.7A1.7,1.7,0,0,1,103.119,134.034Z" transform="translate(-30.608 -15.032)" fill="none" stroke="#fff" stroke-miterlimit="10" stroke-width="1"/>
        <circle id="Elipse_6221" data-name="Elipse 6221" cx="1.704" cy="1.704" r="1.704" transform="translate(76.268 117.298)" fill="none" stroke="#fff" stroke-miterlimit="10" stroke-width="1"/>
        <line id="Línea_746" data-name="Línea 746" y2="18.826" transform="translate(90.022 130.85)" fill="none" stroke="#ebebeb" stroke-linecap="round" stroke-linejoin="round" stroke-width="3"/>
        <line id="Línea_747" data-name="Línea 747" y2="16.133" transform="translate(94.53 132.194)" fill="none" stroke="#ebebeb" stroke-linecap="round" stroke-linejoin="round" stroke-width="3"/>
        <line id="Línea_748" data-name="Línea 748" y2="8.3" transform="translate(99.031 136.11)" fill="none" stroke="#ebebeb" stroke-linecap="round" stroke-linejoin="round" stroke-width="3"/>
        <line id="Línea_749" data-name="Línea 749" y2="18.826" transform="translate(65.352 130.85)" fill="none" stroke="#ebebeb" stroke-linecap="round" stroke-linejoin="round" stroke-width="3"/>
        <line id="Línea_750" data-name="Línea 750" y2="16.133" transform="translate(69.638 132.194)" fill="none" stroke="#ebebeb" stroke-linecap="round" stroke-linejoin="round" stroke-width="3"/>
        <line id="Línea_751" data-name="Línea 751" y2="8.3" transform="translate(73.923 136.11)" fill="none" stroke="#ebebeb" stroke-linecap="round" stroke-linejoin="round" stroke-width="3"/>
        <line id="Línea_752" data-name="Línea 752" y1="18.826" transform="translate(114.323 130.85)" fill="none" stroke="#ebebeb" stroke-linecap="round" stroke-linejoin="round" stroke-width="3"/>
        <line id="Línea_753" data-name="Línea 753" y1="16.133" transform="translate(110.038 132.194)" fill="none" stroke="#ebebeb" stroke-linecap="round" stroke-linejoin="round" stroke-width="3"/>
        <line id="Línea_754" data-name="Línea 754" y1="8.293" transform="translate(105.752 136.117)" fill="none" stroke="#ebebeb" stroke-linecap="round" stroke-linejoin="round" stroke-width="3"/>
        <line id="Línea_755" data-name="Línea 755" y1="16.133" transform="translate(85.521 132.061)" fill="none" stroke="#ebebeb" stroke-linecap="round" stroke-linejoin="round" stroke-width="3"/>
        <line id="Línea_756" data-name="Línea 756" y1="9.183" transform="translate(81.02 135.554)" fill="none" stroke="#ebebeb" stroke-linecap="round" stroke-linejoin="round" stroke-width="3"/>
        <path id="Trazado_273561" data-name="Trazado 273561" d="M93.4,151.81c12.655,0,12.655,18.826,25.31,18.826s12.655-18.826,25.31-18.826" transform="translate(-28.688 -20.959)" fill="none" stroke="#96d1ab" stroke-linecap="round" stroke-linejoin="round" stroke-width="4"/>
        <path id="Trazado_273562" data-name="Trazado 273562" d="M144.027,170.636c-12.655,0-12.655-18.826-25.317-18.826s-12.655,18.826-25.31,18.826" transform="translate(-28.688 -20.959)" fill="none" stroke="#38474f" stroke-linecap="round" stroke-linejoin="round" stroke-width="4"/>
        <path id="Trazado_273563" data-name="Trazado 273563" d="M113.149,148.357a1.224,1.224,0,1,1-1.224-1.217,1.224,1.224,0,0,1,1.224,1.217Z" transform="translate(-33.952 -19.538)" fill="#b5dfc4"/>
        <path id="Trazado_273564" data-name="Trazado 273564" d="M146.245,181.527a1.217,1.217,0,1,1-1.217-1.217,1.217,1.217,0,0,1,1.217,1.217Z" transform="translate(-44.027 -29.632)" fill="#b5dfc4"/>
        <path id="Trazado_273565" data-name="Trazado 273565" d="M153.935,148.357a1.217,1.217,0,1,1-1.217-1.217,1.217,1.217,0,0,1,1.217,1.217Z" transform="translate(-46.367 -19.538)" fill="#b5dfc4"/>
        <path id="Trazado_273566" data-name="Trazado 273566" d="M89.779,167.1a1.224,1.224,0,1,1-1.217-1.217,1.224,1.224,0,0,1,1.217,1.217Z" transform="translate(-26.84 -25.241)" fill="#96d1ab"/>
        <path id="Trazado_273567" data-name="Trazado 273567" d="M113.145,181.527a1.217,1.217,0,1,1-1.217-1.217,1.217,1.217,0,0,1,1.217,1.217Z" transform="translate(-33.955 -29.632)" fill="#96d1ab"/>
        <path id="Trazado_273568" data-name="Trazado 273568" d="M172.185,164.617a1.217,1.217,0,1,1-1.217-1.217A1.217,1.217,0,0,1,172.185,164.617Z" transform="translate(-51.92 -24.486)" fill="#96d1ab"/>
      </g>
    </g>
  </g>
</svg>
