<svg xmlns="http://www.w3.org/2000/svg" xmlns:xlink="http://www.w3.org/1999/xlink" width="1328" height="823" viewBox="0 0 1328 823">
  <defs>
    <clipPath id="clip-path">
      <path id="Trazado_622840" data-name="Trazado 622840" d="M0,823H1328V0H0Z" fill="#93eac2"/>
    </clipPath>
    <linearGradient id="linear-gradient" x1="0.522" y1="0.953" x2="0.414" y2="0.298" gradientUnits="objectBoundingBox">
      <stop offset="0" stop-color="#169788"/>
      <stop offset="0.551" stop-color="#81b722"/>
      <stop offset="1" stop-color="#81b722" stop-opacity="0"/>
    </linearGradient>
  </defs>
  <g id="Grupo_899253" data-name="Grupo 899253" transform="translate(-136 -10120)">
    <g id="Enmascarar_grupo_130564" data-name="Enmascarar grupo 130564" transform="translate(136 10120)" opacity="0.2" clip-path="url(#clip-path)">
      <path id="Trazado_622838" data-name="Trazado 622838" d="M1458.059,970.511c214.448,128.469,450.948,202.3,690.194,113.51,474.584-176.127,474.06-137.223,474.06-137.223l-23.955,1064.168H1024.737L1048.692,870.36S1213.834,824.2,1458.059,970.511Z" transform="translate(-1095.101 -1113.271)" opacity="0.5" fill="url(#linear-gradient)"/>
      <path id="Trazado_622839" data-name="Trazado 622839" d="M1065.416,519.617l-36.369-62.973,36.369-62.988h72.722l36.369,62.973-36.369,62.989Zm72.722-277.864h-72.722l-36.369,62.989,36.369,62.942h72.722l36.369-62.973ZM887,519.617l36.353-62.973L887,393.656H814.265l-36.353,62.973,36.353,62.989ZM762.848,747.748l36.369-62.989-36.369-62.942H690.126L653.758,684.79l36.353,62.958ZM384.716,671.519l36.353-62.989-36.353-62.973H311.994L275.641,608.53l36.353,62.989Zm-251.135,0,36.369-62.989-36.369-62.973H60.812L24.49,608.53l36.322,62.989ZM511.7,747.748l36.369-62.973L511.7,621.8H438.975l-36.353,62.973,36.353,62.973ZM635.852,671.5l36.369-62.989-36.369-62.958H563.13L526.776,608.53l36.353,62.989Zm-375.29,76.244,36.369-62.989-36.369-62.973H187.84l-36.353,62.989,36.353,62.973ZM762.848,595.877l36.369-62.989-36.369-62.973H690.111l-36.353,62.973,36.353,62.989Zm251.135,0,36.369-62.989-36.291-62.973h-72.8l-36.353,62.973,36.353,62.989ZM887,367.684l36.353-62.973L887,241.723H814.265l-36.353,62.989,36.353,62.973Zm-251.151,0,36.369-62.973-36.369-62.958H563.13l-36.353,62.989,36.353,62.942Zm127,76.26,36.369-62.973-36.369-62.958H690.111L653.758,381l36.353,62.973Zm553.7-228.131h72.737l36.353-62.973-36.353-62.989h-72.737L1280.2,152.84ZM511.7,443.975,548.066,381,511.7,318H438.975l-36.353,62.989,36.353,62.973Zm124.154,75.7,36.369-62.973-36.369-63.05H563.13l-36.353,62.988,36.353,62.973ZM511.7,595.923l36.369-62.973L511.7,469.977H438.975L402.622,532.95l36.353,62.989ZM384.716,519.679l36.353-62.989-36.353-62.973H311.994L275.641,456.69l36.353,62.989Zm629.268-75.7,36.369-62.989-36.291-62.973h-72.8l-36.353,63,36.353,62.973Zm0-277.864H941.262l-36.353,62.973,36.353,62.988h72.8l36.369-62.988Zm178.429,607.607-36.369,62.973,36.369,62.989h72.722l36.291-62.989-36.307-62.973ZM887,697.459H814.265l-36.353,62.973,36.353,63.019H887l36.353-62.989Zm251.135,0h-72.722l-36.369,62.973,36.369,63.02h72.722l36.369-62.989ZM887,671.519l36.353-62.989L887,545.557H814.265L777.912,608.53l36.353,62.989Zm-251.151,25.94H563.13l-36.353,62.973,36.353,63.02h72.722l36.369-62.989ZM438.975,773.7l-36.353,62.989,36.353,62.989H511.7l36.369-62.989L511.7,773.7Zm251.136,0-36.353,62.973,36.369,62.989h72.722l36.369-62.989-36.369-62.958Zm626.44-76.26-36.369,62.973,36.369,63.035h72.737l36.353-62.989-36.369-62.973Zm0-303.8L1280.2,456.629l36.353,62.973h72.737l36.353-62.988-36.353-62.973Zm0-151.9L1280.2,304.727l36.353,62.958h72.722l36.369-62.973-36.353-62.989Zm0,303.8-36.369,62.973,36.369,62.989h72.737l36.353-62.989-36.353-62.973ZM941.262,773.719l-36.353,62.973,36.353,62.989h72.8l36.353-62.989-36.353-62.973Zm-556.546-76.26H311.994l-36.43,62.973,36.43,63.02h72.722l36.353-62.989Zm880.419-379.446h-72.722l-36.369,62.973,36.369,62.989h72.722l36.291-62.989Zm0,151.9h-72.722l-36.369,62.973,36.369,62.989h72.707l36.307-62.989Zm-127,201.6,36.369-62.989-36.369-62.973h-72.722l-36.369,62.973,36.369,62.989Zm-124.077,76.229,36.353-62.989L1014.061,621.8h-72.8L904.909,684.79l36.353,62.958Zm251.135,0,36.23-62.958L1265.073,621.8h-72.66l-36.369,62.989,36.369,62.958ZM133.581,697.459H60.812L24.49,760.432l36.322,63.02h72.768l36.369-62.989ZM1265.135,166.112h-72.722l-36.369,62.973,36.369,62.988h72.707l36.307-62.988ZM187.84,773.719l-36.369,62.973,36.369,62.989h72.722l36.369-62.989L260.562,773.7ZM1192.413,140.172h72.707l36.307-62.942L1265.135,14.21h-72.722l-36.369,63.019Z" transform="translate(-24.49 -17.144)" fill="#fff" opacity="0.6"/>
    </g>
  </g>
</svg>
