<svg xmlns="http://www.w3.org/2000/svg" xmlns:xlink="http://www.w3.org/1999/xlink" width="513.914" height="400.155" viewBox="0 0 513.914 400.155">
  <defs>
    <linearGradient id="linear-gradient" x1="0.5" x2="0.5" y2="1" gradientUnits="objectBoundingBox">
      <stop offset="0" stop-color="#81b722"/>
      <stop offset="1" stop-color="#169788"/>
    </linearGradient>
    <clipPath id="clip-path">
      <path id="Trazado_283164" data-name="Trazado 283164" d="M376.085,85.04H169.995L66.95,263.518,169.995,442h206.09L479.14,263.518Z" transform="translate(-16.693 -62.018)" fill="#fff"/>
    </clipPath>
  </defs>
  <g id="Grupo_899255" data-name="Grupo 899255" transform="translate(-906.709 -408.01)">
    <g id="contenedor-01" transform="translate(886.775 338.937)">
      <path id="Trazado_250993" data-name="Trazado 250993" d="M87.4,197.63H44.832L23.55,234.492l21.282,36.862H87.4l21.271-36.862Z" transform="translate(0.25 14.123)" fill="none" stroke="#28965a" stroke-miterlimit="10" stroke-width="0.97" opacity="0.3"/>
      <path id="Trazado_250995" data-name="Trazado 250995" d="M472.415,264.12H429.862L408.58,300.971l21.282,36.862h42.553L493.7,300.971Z" transform="translate(39.047 -31.826)" fill="none" stroke="#addbd5" stroke-miterlimit="10" stroke-width="0.97"/>
      <path id="Trazado_250996" data-name="Trazado 250996" d="M466.919,163.9H445.54l-10.69,18.512,10.69,18.523h21.379l10.69-18.523Z" transform="translate(33.956 11.359)" fill="none" stroke="#28965a" stroke-miterlimit="10" stroke-width="0.97" opacity="0.3"/>
      <path id="Trazado_250997" data-name="Trazado 250997" d="M72.559,314.66H51.18L40.49,333.183,51.18,351.7H72.559l10.69-18.512Z" transform="translate(1.638 23.714)" fill="none" stroke="#addbd5" stroke-miterlimit="10" stroke-width="0.97"/>
      <g id="OBJECTS" transform="translate(20.5 66.913)">
        <path id="Trazado_251001" data-name="Trazado 251001" d="M118.979,73.67H57.286L26.44,127.1l30.846,53.427h61.693L149.815,127.1Z" transform="translate(-20.013 -62.948)" fill="none" stroke="#169788" stroke-miterlimit="10" stroke-width="0.89" opacity="0.53"/>
        <path id="Trazado_251002" data-name="Trazado 251002" d="M115.553,69.46l-.541-.93H113.93" transform="translate(-12.843 -63.369)" fill="none" stroke="#28965a" stroke-miterlimit="10" stroke-width="0.98" opacity="0.53"/>
        <line id="Línea_427" data-name="Línea 427" x1="62.764" transform="translate(36.202 5.161)" fill="none" stroke="#28965a" stroke-miterlimit="10" stroke-width="0.98" stroke-dasharray="1.97 1.97"/>
        <path id="Trazado_251003" data-name="Trazado 251003" d="M53.1,68.53H52.021l-.541.93" transform="translate(-17.961 -63.369)" fill="none" stroke="#28965a" stroke-miterlimit="10" stroke-width="0.98"/>
        <line id="Línea_428" data-name="Línea 428" x1="31.377" y2="54.346" transform="translate(1.071 7.942)" fill="none" stroke="#28965a" stroke-miterlimit="10" stroke-width="0.98" stroke-dasharray="1.97 1.97"/>
        <path id="Trazado_251004" data-name="Trazado 251004" d="M21.041,122.18l-.541.941.541.93" transform="translate(-20.5 -58.972)" fill="none" stroke="#28965a" stroke-miterlimit="10" stroke-width="0.98"/>
        <line id="Línea_429" data-name="Línea 429" x2="31.387" y2="54.346" transform="translate(1.601 66.929)" fill="none" stroke="#28965a" stroke-miterlimit="10" stroke-width="0.98" stroke-dasharray="1.97 1.97"/>
        <path id="Trazado_251005" data-name="Trazado 251005" d="M51.48,176.7l.541.941H53.1" transform="translate(-17.961 -54.505)" fill="none" stroke="#28965a" stroke-miterlimit="10" stroke-width="0.98"/>
        <line id="Línea_430" data-name="Línea 430" x2="62.764" transform="translate(37.262 123.137)" fill="none" stroke="#28965a" stroke-miterlimit="10" stroke-width="0.98" stroke-dasharray="1.97 1.97"/>
        <path id="Trazado_251006" data-name="Trazado 251006" d="M113.93,177.641h1.082l.541-.941" transform="translate(-12.843 -54.505)" fill="none" stroke="#28965a" stroke-miterlimit="10" stroke-width="0.98"/>
        <line id="Línea_431" data-name="Línea 431" y1="54.346" x2="31.377" transform="translate(103.781 66.01)" fill="none" stroke="#28965a" stroke-miterlimit="10" stroke-width="0.98" stroke-dasharray="1.97 1.97"/>
        <path id="Trazado_251007" data-name="Trazado 251007" d="M145.91,124.052l.541-.93-.541-.941" transform="translate(-10.223 -58.972)" fill="none" stroke="#28965a" stroke-miterlimit="10" stroke-width="0.98"/>
        <line id="Línea_432" data-name="Línea 432" x1="31.377" y1="54.357" transform="translate(103.25 7.011)" fill="none" stroke="#28965a" stroke-miterlimit="10" stroke-width="0.98" stroke-dasharray="1.97 1.97"/>
        <g id="Grupo_131626" data-name="Grupo 131626" opacity="0.37">
          <path id="Trazado_251008" data-name="Trazado 251008" d="M68.11,88.11v17.419A16.37,16.37,0,0,0,84.48,121.9h0a16.381,16.381,0,0,1,16.381,16.381v23.013" transform="translate(-16.599 -61.765)" fill="none" stroke="#2a6041" stroke-linecap="round" stroke-miterlimit="10" stroke-width="1.54"/>
          <path id="Trazado_251009" data-name="Trazado 251009" d="M100.261,88.24a1.72,1.72,0,1,1-1.72-1.72A1.72,1.72,0,0,1,100.261,88.24Z" transform="translate(-14.246 -61.896)" fill="#28965a"/>
          <path id="Trazado_251010" data-name="Trazado 251010" d="M100.261,92.3a1.72,1.72,0,1,1-1.72-1.72,1.72,1.72,0,0,1,1.72,1.72Z" transform="translate(-14.246 -61.563)" fill="#28965a"/>
          <path id="Trazado_251011" data-name="Trazado 251011" d="M100.261,96.37a1.72,1.72,0,1,1-1.72-1.72A1.72,1.72,0,0,1,100.261,96.37Z" transform="translate(-14.246 -61.229)" fill="#28965a"/>
          <path id="Trazado_251012" data-name="Trazado 251012" d="M100.261,100.44a1.72,1.72,0,1,1-1.72-1.72A1.72,1.72,0,0,1,100.261,100.44Z" transform="translate(-14.246 -60.896)" fill="#28965a"/>
          <path id="Trazado_251013" data-name="Trazado 251013" d="M100.261,104.51a1.72,1.72,0,1,1-1.72-1.72A1.72,1.72,0,0,1,100.261,104.51Z" transform="translate(-14.246 -60.563)" fill="#28965a"/>
          <path id="Trazado_251014" data-name="Trazado 251014" d="M99.731,108.58a1.72,1.72,0,1,1-1.72-1.72,1.72,1.72,0,0,1,1.72,1.72Z" transform="translate(-14.289 -60.229)" fill="#28965a"/>
          <path id="Trazado_251015" data-name="Trazado 251015" d="M98.141,112.06a1.72,1.72,0,1,1-1.72-1.72,1.72,1.72,0,0,1,1.72,1.72Z" transform="translate(-14.419 -59.943)" fill="#28965a"/>
          <path id="Trazado_251016" data-name="Trazado 251016" d="M95.741,115.13a1.72,1.72,0,1,1-1.72-1.72,1.72,1.72,0,0,1,1.72,1.72Z" transform="translate(-14.616 -59.691)" fill="#28965a"/>
          <path id="Trazado_251017" data-name="Trazado 251017" d="M92.821,117.41a1.72,1.72,0,1,1-1.688-1.72,1.72,1.72,0,0,1,1.688,1.72Z" transform="translate(-14.855 -59.505)" fill="#28965a"/>
          <path id="Trazado_251018" data-name="Trazado 251018" d="M89.381,118.84a1.72,1.72,0,1,1-1.72-1.72A1.72,1.72,0,0,1,89.381,118.84Z" transform="translate(-15.137 -59.388)" fill="#28965a"/>
          <path id="Trazado_251019" data-name="Trazado 251019" d="M66.54,150.39a1.72,1.72,0,1,1,1.72,1.72A1.72,1.72,0,0,1,66.54,150.39Z" transform="translate(-16.727 -56.802)" fill="#28965a"/>
          <path id="Trazado_251020" data-name="Trazado 251020" d="M66.54,146.32a1.72,1.72,0,1,1,1.72,1.72A1.72,1.72,0,0,1,66.54,146.32Z" transform="translate(-16.727 -57.136)" fill="#28965a"/>
          <path id="Trazado_251021" data-name="Trazado 251021" d="M66.54,142.25a1.72,1.72,0,1,1,1.72,1.72A1.72,1.72,0,0,1,66.54,142.25Z" transform="translate(-16.727 -57.469)" fill="#28965a"/>
          <path id="Trazado_251022" data-name="Trazado 251022" d="M66.54,138.18a1.72,1.72,0,1,1,1.72,1.72A1.72,1.72,0,0,1,66.54,138.18Z" transform="translate(-16.727 -57.803)" fill="#28965a"/>
          <path id="Trazado_251023" data-name="Trazado 251023" d="M66.54,134.129a1.72,1.72,0,1,1,.5,1.223A1.72,1.72,0,0,1,66.54,134.129Z" transform="translate(-16.727 -58.134)" fill="#28965a"/>
          <circle id="Elipse_5814" data-name="Elipse 5814" cx="1.72" cy="1.72" r="1.72" transform="translate(50.354 69.861)" fill="#28965a"/>
          <path id="Trazado_251024" data-name="Trazado 251024" d="M68.63,126.573a1.72,1.72,0,1,1,1.72,1.688,1.72,1.72,0,0,1-1.72-1.688Z" transform="translate(-16.556 -58.757)" fill="#28965a"/>
          <path id="Trazado_251025" data-name="Trazado 251025" d="M71,123.479a1.72,1.72,0,1,1,.5,1.223A1.72,1.72,0,0,1,71,123.479Z" transform="translate(-16.361 -59.007)" fill="#28965a"/>
          <path id="Trazado_251026" data-name="Trazado 251026" d="M74,121.22a1.72,1.72,0,1,1,1.72,1.72A1.72,1.72,0,0,1,74,121.22Z" transform="translate(-16.115 -59.192)" fill="#28965a"/>
          <path id="Trazado_251027" data-name="Trazado 251027" d="M77.39,119.78A1.72,1.72,0,1,1,77.9,121,1.72,1.72,0,0,1,77.39,119.78Z" transform="translate(-15.838 -59.311)" fill="#28965a"/>
          <path id="Trazado_251028" data-name="Trazado 251028" d="M85.351,119.35a1.72,1.72,0,1,1-1.72-1.72A1.72,1.72,0,0,1,85.351,119.35Z" transform="translate(-15.468 -59.346)" fill="#28965a"/>
          <path id="Trazado_251029" data-name="Trazado 251029" d="M97.6,89.972H70.8a.476.476,0,0,1-.487-.476h0a.487.487,0,0,1,.487-.476H97.6a.476.476,0,0,1,.476.476h0A.476.476,0,0,1,97.6,89.972Z" transform="translate(-16.418 -61.69)" fill="#2ceaa3"/>
          <path id="Trazado_251030" data-name="Trazado 251030" d="M97.6,93.072H70.8a.476.476,0,0,1-.487-.476h0a.487.487,0,0,1,.487-.476H97.6a.476.476,0,0,1,.476.476h0A.476.476,0,0,1,97.6,93.072Z" transform="translate(-16.418 -61.437)" fill="#2ceaa3"/>
          <path id="Trazado_251031" data-name="Trazado 251031" d="M97.6,96.152H70.8a.476.476,0,0,1-.487-.476h0A.487.487,0,0,1,70.8,95.2H97.6a.476.476,0,0,1,.476.476h0A.476.476,0,0,1,97.6,96.152Z" transform="translate(-16.418 -61.184)" fill="#2ceaa3"/>
          <path id="Trazado_251032" data-name="Trazado 251032" d="M97.6,99.242H70.8a.476.476,0,0,1-.487-.476h0a.487.487,0,0,1,.487-.476H97.6a.476.476,0,0,1,.476.476h0A.476.476,0,0,1,97.6,99.242Z" transform="translate(-16.418 -60.931)" fill="#2ceaa3"/>
          <path id="Trazado_251033" data-name="Trazado 251033" d="M97.6,102.332H70.8a.476.476,0,0,1-.487-.476h0a.487.487,0,0,1,.487-.476H97.6a.476.476,0,0,1,.476.476h0A.476.476,0,0,1,97.6,102.332Z" transform="translate(-16.418 -60.678)" fill="#2ceaa3"/>
          <path id="Trazado_251034" data-name="Trazado 251034" d="M97.6,105.433H70.8a.487.487,0,0,1-.487-.487h0a.487.487,0,0,1,.487-.476H97.6a.476.476,0,0,1,.476.476h0a.487.487,0,0,1-.476.487Z" transform="translate(-16.418 -60.424)" fill="#2ceaa3"/>
          <path id="Trazado_251035" data-name="Trazado 251035" d="M97.6,108.523H70.8a.487.487,0,0,1-.487-.487h0a.487.487,0,0,1,.487-.476H97.6a.476.476,0,0,1,.509.476h0a.487.487,0,0,1-.509.487Z" transform="translate(-16.418 -60.171)" fill="#2ceaa3"/>
          <path id="Trazado_251036" data-name="Trazado 251036" d="M94.649,111.613H73.367a.487.487,0,0,1-.487-.487h0a.487.487,0,0,1,.487-.476H94.649a.487.487,0,0,1,.487.476h0A.487.487,0,0,1,94.649,111.613Z" transform="translate(-16.207 -59.918)" fill="#2ceaa3"/>
          <path id="Trazado_251037" data-name="Trazado 251037" d="M91.6,114.7H75.937a.487.487,0,0,1-.487-.487h0a.487.487,0,0,1,.487-.476H91.6a.487.487,0,0,1,.487.476h0A.487.487,0,0,1,91.6,114.7Z" transform="translate(-15.997 -59.665)" fill="#2ceaa3"/>
          <path id="Trazado_251038" data-name="Trazado 251038" d="M70.8,149.41H97.6a.476.476,0,0,1,.476.476h0a.487.487,0,0,1-.476.487H70.8a.487.487,0,0,1-.487-.487h0A.487.487,0,0,1,70.8,149.41Z" transform="translate(-16.418 -56.741)" fill="#2ceaa3"/>
          <path id="Trazado_251039" data-name="Trazado 251039" d="M70.8,152.57H97.6a.476.476,0,0,1,.509.465h0a.487.487,0,0,1-.476.487H70.8a.487.487,0,0,1-.487-.487h0a.487.487,0,0,1,.487-.465Z" transform="translate(-16.418 -56.482)" fill="#2ceaa3"/>
          <path id="Trazado_251040" data-name="Trazado 251040" d="M70.8,146.32H97.6a.476.476,0,0,1,.476.476h0a.487.487,0,0,1-.476.487H70.8a.487.487,0,0,1-.487-.487h0A.487.487,0,0,1,70.8,146.32Z" transform="translate(-16.418 -56.995)" fill="#2ceaa3"/>
          <path id="Trazado_251041" data-name="Trazado 251041" d="M70.8,143.23H97.6a.476.476,0,0,1,.476.476h0a.487.487,0,0,1-.476.487H70.8a.487.487,0,0,1-.487-.487h0A.487.487,0,0,1,70.8,143.23Z" transform="translate(-16.418 -57.248)" fill="#2ceaa3"/>
          <path id="Trazado_251042" data-name="Trazado 251042" d="M70.8,140.14H97.6a.476.476,0,0,1,.476.476h0a.487.487,0,0,1-.476.487H70.8a.487.487,0,0,1-.487-.487h0a.487.487,0,0,1,.487-.476Z" transform="translate(-16.418 -57.501)" fill="#2ceaa3"/>
          <path id="Trazado_251043" data-name="Trazado 251043" d="M70.8,137.05H97.6a.476.476,0,0,1,.476.476h0a.487.487,0,0,1-.476.487H70.8a.487.487,0,0,1-.487-.487h0A.487.487,0,0,1,70.8,137.05Z" transform="translate(-16.418 -57.754)" fill="#2ceaa3"/>
          <path id="Trazado_251044" data-name="Trazado 251044" d="M70.8,134H97.6a.476.476,0,0,1,.476.476h0a.487.487,0,0,1-.476.487H70.8a.487.487,0,0,1-.487-.487h0A.487.487,0,0,1,70.8,134Z" transform="translate(-16.418 -58.004)" fill="#2ceaa3"/>
          <path id="Trazado_251045" data-name="Trazado 251045" d="M70.8,130.87H97.6a.476.476,0,0,1,.476.476h0a.487.487,0,0,1-.476.487H70.8a.487.487,0,0,1-.487-.487h0a.487.487,0,0,1,.487-.476Z" transform="translate(-16.418 -58.261)" fill="#2ceaa3"/>
          <path id="Trazado_251046" data-name="Trazado 251046" d="M73.367,127.78H94.649a.487.487,0,0,1,.487.476h0a.487.487,0,0,1-.487.487H73.367a.487.487,0,0,1-.487-.487h0A.487.487,0,0,1,73.367,127.78Z" transform="translate(-16.207 -58.514)" fill="#2ceaa3"/>
          <path id="Trazado_251047" data-name="Trazado 251047" d="M75.937,124.69H91.6a.487.487,0,0,1,.487.476h0a.487.487,0,0,1-.487.487H75.937a.487.487,0,0,1-.487-.487h0A.487.487,0,0,1,75.937,124.69Z" transform="translate(-15.997 -58.768)" fill="#2ceaa3"/>
        </g>
        <path id="Trazado_251048" data-name="Trazado 251048" d="M440.711,355.53H372.927l-33.887,58.7,33.887,58.707h67.784l33.9-58.707Z" transform="translate(30.673 -87.472)" fill="none" stroke="#169788" stroke-miterlimit="10" stroke-width="0.97"/>
        <path id="Trazado_251049" data-name="Trazado 251049" d="M445,349.57H369.769L332.16,414.714l37.609,65.155H445l37.619-65.155Z" transform="translate(30.109 -87.96)" fill="none" stroke="#28965a" stroke-miterlimit="10" stroke-width="1.08" stroke-dasharray="2"/>
        <path id="Trazado_251050" data-name="Trazado 251050" d="M420.36,369.69l-1.223,4.252a14.435,14.435,0,0,0-3.181,1.3l-3.927-2.164-3.505,3.462,2.164,3.873a13.383,13.383,0,0,0-1.32,3.138l-4.328,1.212v4.9l4.328,1.212a13.384,13.384,0,0,0,1.32,3.138l-2.164,3.873,3.505,3.462,3.927-2.164a13.924,13.924,0,0,0,3.181,1.3l1.223,4.263h4.966l1.223-4.263a13.926,13.926,0,0,0,3.181-1.3l3.927,2.164,3.506-3.462L435,394.012a13.859,13.859,0,0,0,1.32-3.138l4.328-1.212v-4.9l-4.328-1.212a13.86,13.86,0,0,0-1.32-3.138l2.164-3.873-3.506-3.462-3.927,2.164a14.436,14.436,0,0,0-3.181-1.3l-1.223-4.252Zm2.478,8.363a9.175,9.175,0,1,1-9.283,9.175,9.175,9.175,0,0,1,9.283-9.175Z" transform="translate(36.081 -86.311)" fill="#f4522b" opacity="0.15"/>
        <g id="Grupo_131572" data-name="Grupo 131572" transform="translate(411.541 316.67)" opacity="0.15">
          <path id="Trazado_251051" data-name="Trazado 251051" d="M401.665,400.46l-1.926,6.676a22.886,22.886,0,0,0-4.988,2.034l-6.145-3.376L383.1,411.2l3.43,6.07a20.772,20.772,0,0,0-2.056,4.923L377.7,424.09v7.693l6.773,1.893a20.557,20.557,0,0,0,2.056,4.923l-3.43,6.081,5.507,5.41,6.145-3.387a21.855,21.855,0,0,0,4.988,2.034l1.926,6.676h7.79l1.915-6.676a21.468,21.468,0,0,0,4.988-2.034l6.156,3.387,5.5-5.41-3.462-6.059A21.032,21.032,0,0,0,426.6,433.7l6.773-1.893v-7.693l-6.773-1.893a21.227,21.227,0,0,0-2.056-4.945l3.419-6.07-5.5-5.41-6.156,3.376a22.451,22.451,0,0,0-4.988-2.034l-1.915-6.676Zm3.9,13.124a14.379,14.379,0,1,1-14.552,14.379A14.379,14.379,0,0,1,405.56,413.584Z" transform="translate(-377.7 -400.46)" fill="#fdb32b"/>
        </g>
        <path id="Trazado_251052" data-name="Trazado 251052" d="M386.338,72.3h-223.9L50.49,266.2,162.439,460.1h223.9L498.287,266.2Z" transform="translate(-18.042 -63.06)" fill="#169788" opacity="0.3"/>
        <path id="Trazado_251053" data-name="Trazado 251053" d="M380.258,80.75H166.919L60.25,265.5,166.919,450.268H380.258L486.928,265.5Z" transform="translate(-17.243 -62.368)" fill="#81b722"/>
        <path id="Trazado_251054" data-name="Trazado 251054" d="M376.085,85.04H169.995L66.95,263.518,169.995,442h206.09L479.14,263.518Z" transform="translate(-16.693 -62.016)" fill="#fff"/>
        <path id="Trazado_251056" data-name="Trazado 251056" d="M135.934,365.77H92.591L70.92,403.3l21.671,37.533h43.343L157.606,403.3Z" transform="translate(-16.368 -39.01)" fill="none" stroke="#6bffb8" stroke-miterlimit="10" stroke-width="0.98" stroke-dasharray="2"/>
        <path id="Trazado_251058" data-name="Trazado 251058" d="M421.112,66.21H381.037L361.01,100.919l20.027,34.7h40.075l20.038-34.7Z" transform="translate(7.405 -63.559)" fill="none" stroke="#6bffb8" stroke-miterlimit="10" stroke-width="0.98" stroke-dasharray="2"/>
        <path id="Trazado_251055" data-name="Trazado 251055" d="M131.363,372.11H95.951l-17.7,30.673,17.7,30.673h35.412l17.712-30.673Z" transform="translate(16.139 -45.351)" opacity="0.4" fill="url(#linear-gradient)"/>
        <path id="Trazado_251057" data-name="Trazado 251057" d="M422.881,63.76H379.744L358.17,101.12l21.574,37.36h43.137l21.574-37.36Z" transform="translate(4.099 -44.377)" opacity="0.2" fill="url(#linear-gradient)"/>
        <g id="Enmascarar_grupo_130557" data-name="Enmascarar grupo 130557" transform="translate(-0.443)" clip-path="url(#clip-path)">
          <g id="Blooming-rafiki" transform="translate(-42.648 -140.882)">
            <g id="freepik--background-complete--inject-2" transform="translate(0 55)">
              <rect id="Rectángulo_297434" data-name="Rectángulo 297434" width="745.737" height="0.373" transform="translate(0 488.308)" fill="#ebebeb"/>
              <rect id="Rectángulo_297435" data-name="Rectángulo 297435" width="49.398" height="0.373" transform="translate(621.616 512.306)" fill="#ebebeb"/>
              <rect id="Rectángulo_297436" data-name="Rectángulo 297436" width="12.961" height="0.373" transform="translate(481.045 516.363)" fill="#ebebeb"/>
              <rect id="Rectángulo_297437" data-name="Rectángulo 297437" width="28.621" height="0.373" transform="translate(591.504 498.465)" fill="#ebebeb"/>
              <rect id="Rectángulo_297438" data-name="Rectángulo 297438" width="64.417" height="0.373" transform="translate(78.243 500.971)" fill="#ebebeb"/>
              <rect id="Rectángulo_297439" data-name="Rectángulo 297439" width="9.441" height="0.373" transform="translate(155.948 500.971)" fill="#ebebeb"/>
              <rect id="Rectángulo_297440" data-name="Rectángulo 297440" width="139.721" height="0.373" transform="translate(196.084 507.265)" fill="#ebebeb"/>
              <path id="Trazado_622861" data-name="Trazado 622861" d="M334.7,476.789H46.711a8.516,8.516,0,0,1-8.5-8.516V63.442A8.516,8.516,0,0,1,46.711,55H334.7a8.516,8.516,0,0,1,8.516,8.516V468.272A8.516,8.516,0,0,1,334.7,476.789ZM46.711,55.3a8.143,8.143,0,0,0-8.129,8.143V468.272a8.143,8.143,0,0,0,8.129,8.143H334.7a8.158,8.158,0,0,0,8.143-8.143V63.442A8.158,8.158,0,0,0,334.7,55.3Z" transform="translate(18.779 -55)" fill="#ebebeb"/>
              <path id="Trazado_622862" data-name="Trazado 622862" d="M551.02,476.789h-288a8.531,8.531,0,0,1-8.516-8.516V63.442A8.531,8.531,0,0,1,263.016,55h288a8.516,8.516,0,0,1,8.487,8.442V468.272A8.516,8.516,0,0,1,551.02,476.789Zm-288-421.49a8.158,8.158,0,0,0-8.143,8.143V468.272a8.158,8.158,0,0,0,8.143,8.143h288a8.158,8.158,0,0,0,8.143-8.143V63.442A8.158,8.158,0,0,0,551.02,55.3Z" transform="translate(125.08 -55)" fill="#ebebeb"/>
              <path id="Trazado_622863" data-name="Trazado 622863" d="M518.957,288.81V428.442h-6.831V297.222H333.671v131.22H326.84V288.81Z" transform="translate(160.633 59.911)" fill="#f0f0f0"/>
              <path id="Trazado_622864" data-name="Trazado 622864" d="M435.522,296.464s-4.116-8.949.582-17.823,6.07-10.918,3.072-12.737-4.37,7.07-4.37,7.07a20.03,20.03,0,0,1-.447-12.513c2.088-6.4,3.4-16.824.552-17.9s-.537,13.006-2.983,17.9a41.473,41.473,0,0,1-2.416-10.44c-.343-5.146.194-13.349-2.058-15.452s-3.684-.656-1.491,10.694a118.962,118.962,0,0,1,2.192,20.567s-4.877-14.915-8.158-15.317-3.266,4.385-.462,8.561,8.2,11.678,9.1,15.526c0,0-5.369-11.2-10.187-7.771s4.206,10.2,8.218,12.648,6.8,17.763,6.8,17.763Z" transform="translate(204.976 32.853)" fill="#f0f0f0"/>
              <path id="Trazado_622865" data-name="Trazado 622865" d="M429.095,299.029s4.012-9.038-.79-17.808-6.19-10.843-3.222-12.692,4.474,7.01,4.474,7.01a20.03,20.03,0,0,0,.283-12.528c-2.163-6.369-3.594-16.764-.761-17.9s.7,12.991,3.222,17.764a41.509,41.509,0,0,0,2.3-10.53c.283-5.146-.358-13.349,1.864-15.482s3.684-.7,1.611,10.679a118.116,118.116,0,0,0-1.939,20.582s4.7-14.915,7.964-15.422,3.326,4.325.567,8.546-8.069,11.8-8.949,15.66c0,0,5.22-11.276,10.082-7.92s-4.072,10.261-8.054,12.767-6.592,17.9-6.592,17.9Z" transform="translate(208.152 33.973)" fill="#f0f0f0"/>
              <path id="Trazado_622866" data-name="Trazado 622866" d="M450.551,273.95H417.47l2.67,23.67h27.726Z" transform="translate(205.175 52.608)" fill="#f0f0f0"/>
              <path id="Trazado_622867" data-name="Trazado 622867" d="M391.044,296.464s4.117-8.949-.582-17.823-6.055-10.918-3.058-12.737,4.37,7.07,4.37,7.07a19.971,19.971,0,0,0,.432-12.514c-2.088-6.4-3.386-16.824-.537-17.9s.537,13.006,2.983,17.9a41.48,41.48,0,0,0,2.416-10.44c.343-5.146-.194-13.349,2.058-15.452s3.684-.656,1.491,10.694a118.964,118.964,0,0,0-2.192,20.567s4.877-14.915,8.158-15.317,3.266,4.385.462,8.561-8.218,11.678-9.1,15.526c0,0,5.354-11.2,10.172-7.771s-4.191,10.2-8.2,12.648S393.1,297.24,393.1,297.24Z" transform="translate(189.617 32.853)" fill="#f0f0f0"/>
              <path id="Trazado_622868" data-name="Trazado 622868" d="M397.468,299.029s-4-9.038.805-17.808,6.19-10.843,3.222-12.692-4.474,7.01-4.474,7.01a20.089,20.089,0,0,1-.3-12.528c2.163-6.369,3.595-16.764.761-17.9s-.686,12.991-3.222,17.764a41.51,41.51,0,0,1-2.3-10.53c-.268-5.146.358-13.349-1.864-15.482s-3.684-.7-1.611,10.679a119.113,119.113,0,0,1,1.954,20.582s-4.7-14.915-7.979-15.422-3.326,4.325-.567,8.546,8.069,11.8,8.949,15.66c0,0-5.235-11.276-10.082-7.92s4.072,10.261,8.054,12.767,6.592,17.9,6.592,17.9Z" transform="translate(186.444 33.973)" fill="#f0f0f0"/>
              <path id="Trazado_622869" data-name="Trazado 622869" d="M379.12,273.95H412.2l-2.685,23.67H381.79Z" transform="translate(186.327 52.608)" fill="#f0f0f0"/>
              <path id="Trazado_622870" data-name="Trazado 622870" d="M360.644,296.464s-4.116-8.949.582-17.823,6.07-10.918,3.072-12.737-4.37,7.07-4.37,7.07a20.03,20.03,0,0,1-.447-12.513c2.088-6.4,3.4-16.824.552-17.9s-.537,13.006-2.983,17.9a41.481,41.481,0,0,1-2.416-10.44c-.343-5.146.194-13.349-2.058-15.452s-3.684-.656-1.491,10.694a118.959,118.959,0,0,1,2.193,20.567s-4.877-14.915-8.158-15.317-3.266,4.385-.462,8.561,8.2,11.678,9.1,15.526c0,0-5.354-11.2-10.187-7.771s4.206,10.2,8.218,12.648,6.8,17.763,6.8,17.763Z" transform="translate(168.173 32.853)" fill="#f0f0f0"/>
              <path id="Trazado_622871" data-name="Trazado 622871" d="M354.215,299.029s4.012-9.038-.79-17.808-6.19-10.843-3.222-12.692,4.474,7.01,4.474,7.01a20.03,20.03,0,0,0,.283-12.528c-2.163-6.369-3.594-16.764-.761-17.9s.7,12.991,3.237,17.764a41.762,41.762,0,0,0,2.282-10.53C360,247.2,359.361,239,361.6,236.864s3.669-.7,1.6,10.679a118.116,118.116,0,0,0-1.939,20.582s4.7-14.915,7.964-15.422,3.326,4.325.582,8.546-8.084,11.8-8.949,15.66c0,0,5.22-11.276,10.082-7.92s-4.072,10.261-8.054,12.767-6.592,17.9-6.592,17.9Z" transform="translate(171.351 33.973)" fill="#f0f0f0"/>
              <path id="Trazado_622872" data-name="Trazado 622872" d="M375.671,273.95H342.59l2.67,23.67h27.726Z" transform="translate(168.374 52.608)" fill="#f0f0f0"/>
              <path id="Trazado_622873" data-name="Trazado 622873" d="M299.1,323.13v88.5h-6.831V331.527H54.151v80.107H47.32v-88.5Z" transform="translate(23.257 76.779)" fill="#f0f0f0"/>
              <path id="Trazado_622874" data-name="Trazado 622874" d="M189.335,315.932c-.1-.761-2.715-18.763,2.506-24.967a5.652,5.652,0,0,1,4.34-2.133c10.545-.254,11.932,8.218,11.932,8.307l-1.253.194c0-.313-1.3-7.457-10.724-7.249a4.37,4.37,0,0,0-3.4,1.685c-4.862,5.787-2.252,23.789-2.222,23.968Z" transform="translate(92.688 59.919)" fill="#f0f0f0"/>
              <path id="Trazado_622875" data-name="Trazado 622875" d="M195.821,313.736h-1.268c0-.164.418-16.57-7.666-19.971a8.71,8.71,0,0,0-11.633,3.8L174.12,297a10.068,10.068,0,0,1,13.259-4.385C196.313,296.286,195.836,313.065,195.821,313.736Z" transform="translate(85.575 61.295)" fill="#f0f0f0"/>
              <path id="Trazado_622876" data-name="Trazado 622876" d="M194.848,320.377c0-.254-.075-26.22-5.131-33.812-4.862-7.278-12.707-3.848-13.035-3.7l-.522-1.148c.089,0,9.143-4.042,14.6,4.161,5.265,7.9,5.339,33.424,5.339,34.5Z" transform="translate(86.578 55.937)" fill="#f0f0f0"/>
              <path id="Trazado_622877" data-name="Trazado 622877" d="M195.841,290.467s-4.609,1.7-3.236,5.712,15.929,10.6,15.929,10.6,6.1-5.593.507-14.676S195.975,287.6,195.841,290.467Z" transform="translate(94.534 58.896)" fill="#f0f0f0"/>
              <path id="Trazado_622878" data-name="Trazado 622878" d="M190.712,285.621s3.281-.358,2.983-2.342-12.707-7.114-20.045,1.163c0,0,4.7,8.084,11.5,8.188S190.712,285.621,190.712,285.621Z" transform="translate(85.344 55.523)" fill="#f0f0f0"/>
              <path id="Trazado_622879" data-name="Trazado 622879" d="M187.676,293.632s2.267-1.82-.179-2.7-14.378-.641-14.5,11.186c0,0,13.915,2.327,15.631-2.192S187.676,293.632,187.676,293.632Z" transform="translate(85.025 60.802)" fill="#f0f0f0"/>
              <path id="Trazado_622880" data-name="Trazado 622880" d="M204.233,330.95H182.652l-2.342-23.64h26.25Z" transform="translate(88.618 69.004)" fill="#f0f0f0"/>
              <rect id="Rectángulo_297441" data-name="Rectángulo 297441" width="28.562" height="5.22" transform="translate(267.779 373.704)" fill="#f0f0f0"/>
              <path id="Trazado_622881" data-name="Trazado 622881" d="M140.188,315.932c.1-.761,2.714-18.763-2.506-24.967a5.638,5.638,0,0,0-4.34-2.133c-10.545-.254-11.932,8.218-11.932,8.307l1.238.194c0-.313,1.3-7.457,10.724-7.249a4.355,4.355,0,0,1,3.4,1.685c4.862,5.787,2.252,23.789,2.222,23.968Z" transform="translate(59.67 59.919)" fill="#f0f0f0"/>
              <path id="Trazado_622882" data-name="Trazado 622882" d="M134.464,313.736h1.253c0-.164-.418-16.57,7.666-19.971a8.71,8.71,0,0,1,11.634,3.8L156.15,297a10.068,10.068,0,0,0-13.259-4.385C134.016,296.286,134.434,313.065,134.464,313.736Z" transform="translate(66.08 61.295)" fill="#f0f0f0"/>
              <path id="Trazado_622883" data-name="Trazado 622883" d="M134.843,320.377c0-.254,0-26.22,5.131-33.812,4.862-7.278,12.707-3.848,13.035-3.7l.522-1.148c-.089,0-9.143-4.042-14.6,4.161-5.265,7.9-5.339,33.424-5.339,34.5Z" transform="translate(65.656 55.937)" fill="#f0f0f0"/>
              <path id="Trazado_622884" data-name="Trazado 622884" d="M133.556,290.467s4.609,1.7,3.236,5.712-15.929,10.6-15.929,10.6-6.1-5.593-.492-14.676S133.437,287.6,133.556,290.467Z" transform="translate(57.994 58.896)" fill="#f0f0f0"/>
              <path id="Trazado_622885" data-name="Trazado 622885" d="M138.989,285.621s-3.266-.358-2.983-2.342,12.707-7.114,20.045,1.163c0,0-4.7,8.084-11.484,8.188S138.989,285.621,138.989,285.621Z" transform="translate(66.835 55.523)" fill="#f0f0f0"/>
              <path id="Trazado_622886" data-name="Trazado 622886" d="M140.784,293.632s-2.267-1.82.179-2.7,14.378-.641,14.5,11.186c0,0-13.915,2.327-15.631-2.192S140.784,293.632,140.784,293.632Z" transform="translate(68.44 60.802)" fill="#f0f0f0"/>
              <path id="Trazado_622887" data-name="Trazado 622887" d="M127.537,330.95h21.6l2.327-23.64H125.21Z" transform="translate(61.537 69.004)" fill="#f0f0f0"/>
              <rect id="Rectángulo_297442" data-name="Rectángulo 297442" width="28.562" height="5.22" transform="translate(214.146 378.939) rotate(180)" fill="#f0f0f0"/>
              <path id="Trazado_622888" data-name="Trazado 622888" d="M79.335,315.932c-.1-.761-2.714-18.763,2.506-24.967a5.652,5.652,0,0,1,4.34-2.133c10.545-.254,11.932,8.218,11.932,8.307l-1.253.194c0-.313-1.3-7.457-10.724-7.249a4.37,4.37,0,0,0-3.4,1.685c-4.862,5.787-2.252,23.789-2.222,23.968Z" transform="translate(38.625 59.919)" fill="#f0f0f0"/>
              <path id="Trazado_622889" data-name="Trazado 622889" d="M85.821,313.746H84.553c0-.164.418-16.57-7.666-19.971a8.71,8.71,0,0,0-11.634,3.8l-1.134-.567a10.067,10.067,0,0,1,13.244-4.43C86.313,296.3,85.836,313.075,85.821,313.746Z" transform="translate(31.513 61.285)" fill="#f0f0f0"/>
              <path id="Trazado_622890" data-name="Trazado 622890" d="M84.848,320.377c0-.254,0-26.22-5.131-33.812-4.862-7.278-12.707-3.848-13.035-3.7l-.522-1.148c.089,0,9.143-4.042,14.6,4.161,5.265,7.9,5.339,33.424,5.339,34.5Z" transform="translate(32.516 55.937)" fill="#f0f0f0"/>
              <path id="Trazado_622891" data-name="Trazado 622891" d="M85.841,290.467s-4.609,1.7-3.236,5.712,15.929,10.6,15.929,10.6,6.1-5.593.507-14.676S85.975,287.6,85.841,290.467Z" transform="translate(40.472 58.896)" fill="#f0f0f0"/>
              <path id="Trazado_622892" data-name="Trazado 622892" d="M80.712,285.621s3.281-.358,2.983-2.342-12.707-7.114-20.045,1.163c0,0,4.7,8.084,11.5,8.188S80.712,285.621,80.712,285.621Z" transform="translate(31.282 55.523)" fill="#f0f0f0"/>
              <path id="Trazado_622893" data-name="Trazado 622893" d="M77.676,293.632s2.267-1.82-.179-2.7-14.378-.641-14.5,11.186c0,0,13.915,2.327,15.631-2.192S77.676,293.632,77.676,293.632Z" transform="translate(30.963 60.802)" fill="#f0f0f0"/>
              <path id="Trazado_622894" data-name="Trazado 622894" d="M94.233,330.95H72.652L70.31,307.31H96.56Z" transform="translate(34.556 69.004)" fill="#f0f0f0"/>
              <rect id="Rectángulo_297443" data-name="Rectángulo 297443" width="28.562" height="5.22" transform="translate(103.717 373.704)" fill="#f0f0f0"/>
              <path id="Trazado_622895" data-name="Trazado 622895" d="M380.1,269.926H120.722L54.65,66.25H314.032Z" transform="translate(26.859 -49.471)" fill="#ebebeb"/>
              <path id="Trazado_622896" data-name="Trazado 622896" d="M121.342,266.451,56.97,68.01H311.117l64.372,198.441Z" transform="translate(27.999 -48.606)" fill="#f3f9ff"/>
              <path id="Trazado_622897" data-name="Trazado 622897" d="M155.095,269.013h1.715L91.185,66.71H89.47Z" transform="translate(43.972 -49.245)" fill="#ebebeb"/>
              <path id="Trazado_622898" data-name="Trazado 622898" d="M189.565,269.013h1.715L125.655,66.71H123.94Z" transform="translate(60.913 -49.245)" fill="#ebebeb"/>
              <path id="Trazado_622899" data-name="Trazado 622899" d="M224.035,269.013h1.715L160.125,66.71H158.41Z" transform="translate(77.854 -49.245)" fill="#ebebeb"/>
              <path id="Trazado_622900" data-name="Trazado 622900" d="M258.5,269.013h1.715L194.6,66.71H192.88Z" transform="translate(94.795 -49.245)" fill="#ebebeb"/>
              <path id="Trazado_622901" data-name="Trazado 622901" d="M66.18,100l.552,1.715H324.369L323.817,100Z" transform="translate(32.526 -32.884)" fill="#ebebeb"/>
              <path id="Trazado_622902" data-name="Trazado 622902" d="M77.2,133.96l.552,1.715H335.389l-.552-1.715Z" transform="translate(37.942 -16.193)" fill="#ebebeb"/>
              <path id="Trazado_622903" data-name="Trazado 622903" d="M88.21,167.92l.567,1.715H346.4l-.552-1.715Z" transform="translate(43.353 0.497)" fill="#ebebeb"/>
              <path id="Trazado_622904" data-name="Trazado 622904" d="M561.124,269.926H301.742L235.67,66.25H495.052Z" transform="translate(115.826 -49.471)" fill="#ebebeb"/>
              <path id="Trazado_622905" data-name="Trazado 622905" d="M302.377,266.451,237.99,68.01H492.137l64.387,198.441Z" transform="translate(116.966 -48.606)" fill="#f3f9ff"/>
              <path id="Trazado_622906" data-name="Trazado 622906" d="M336.13,269.013h1.7L272.205,66.71H270.49Z" transform="translate(132.939 -49.245)" fill="#ebebeb"/>
              <path id="Trazado_622907" data-name="Trazado 622907" d="M370.6,269.013h1.715l-65.64-202.3H304.96Z" transform="translate(149.88 -49.245)" fill="#ebebeb"/>
              <path id="Trazado_622908" data-name="Trazado 622908" d="M405.065,269.013h1.715L341.14,66.71h-1.7Z" transform="translate(166.826 -49.245)" fill="#ebebeb"/>
              <path id="Trazado_622909" data-name="Trazado 622909" d="M439.535,269.013h1.715L375.625,66.71H373.91Z" transform="translate(183.767 -49.245)" fill="#ebebeb"/>
              <path id="Trazado_622910" data-name="Trazado 622910" d="M247.2,100l.567,1.715H505.389L504.837,100Z" transform="translate(121.492 -32.884)" fill="#ebebeb"/>
              <path id="Trazado_622911" data-name="Trazado 622911" d="M258.22,133.96l.552,1.715H516.409l-.552-1.715Z" transform="translate(126.908 -16.193)" fill="#ebebeb"/>
              <path id="Trazado_622912" data-name="Trazado 622912" d="M269.24,167.92l.552,1.715H527.429l-.552-1.715Z" transform="translate(132.324 0.497)" fill="#ebebeb"/>
              <path id="Trazado_622913" data-name="Trazado 622913" d="M234.582,135.56l-.686,5.608-.134,1.193-3.535,29.2H197.265l-3.58-29.591-.149-1.268-.626-5.146Z" transform="translate(94.81 -15.407)" fill="#b0c0d2"/>
              <path id="Trazado_622914" data-name="Trazado 622914" d="M192.05,121.284a9.1,9.1,0,0,1,5.832,5.966,12.752,12.752,0,0,0,11.141,7.86A8.263,8.263,0,0,1,213.5,136.6l1.4.805q-.089-.746-.134-1.491c-.388-.3-.776-.626-1.148-.969l-.268-.254c-4.385-4.206-4.474-8.636-9.62-12.633S192.05,121.284,192.05,121.284Z" transform="translate(94.388 -23.026)" fill="#e0e0e0"/>
              <path id="Trazado_622915" data-name="Trazado 622915" d="M227.283,118.109a9.128,9.128,0,0,0-4.952,6.652,12.722,12.722,0,0,1-9.918,9.352,8.472,8.472,0,0,0-4.191,2.163l-1.268,1a9.991,9.991,0,0,0-.075-1.491,12.114,12.114,0,0,0,1-1.119l.224-.283c3.744-4.788,3.251-9.187,7.741-13.856S227.283,118.109,227.283,118.109Z" transform="translate(101.676 -24.251)" fill="#e0e0e0"/>
              <path id="Trazado_622916" data-name="Trazado 622916" d="M211.966,142.559a27.561,27.561,0,0,1-.85,8.248c-2.461,9.56-1.372.134-1.372.134a24.431,24.431,0,0,0,.955-7.383,9.993,9.993,0,0,0-.075-1.491,22.266,22.266,0,0,0-1.148-5.578c-2.6-7.457-7.8-9.844-9.844-17.9s5.056-13.811,5.056-13.811a11.44,11.44,0,0,0,3.833,9.709c4.788,4.653,5.459,12.722,3.415,16.824-1.193,2.386-.433,5.384-.09,9.366C211.907,141.247,211.951,141.888,211.966,142.559Z" transform="translate(97.932 -30.534)" fill="#e0e0e0"/>
              <path id="Trazado_622917" data-name="Trazado 622917" d="M231.332,162.633a.746.746,0,0,1-.731-.567l-17.167-71.71-17.182,71.71a.746.746,0,0,1-.895.552.761.761,0,0,1-.552-.895l17.9-74.738a.776.776,0,0,1,1.491,0l17.9,74.738a.746.746,0,0,1-.552.895Z" transform="translate(95.733 -39.557)" fill="#e0e0e0"/>
              <path id="Trazado_622918" data-name="Trazado 622918" d="M207.536,182.791a.746.746,0,0,1-.746-.746V56.106a.746.746,0,0,1,.746-.746.761.761,0,0,1,.746.746v125.94A.746.746,0,0,1,207.536,182.791Z" transform="translate(101.632 -54.823)" fill="#e0e0e0"/>
              <path id="Trazado_622919" data-name="Trazado 622919" d="M374.172,135.56l-.686,5.608-.134,1.193-3.535,29.2H336.855l-3.58-29.591-.149-1.268-.626-5.146Z" transform="translate(163.415 -15.407)" fill="#e0e0e0"/>
              <path id="Trazado_622920" data-name="Trazado 622920" d="M366.876,120.12a9.128,9.128,0,0,1-7.249,4.027c-5.28.447-9.769,5.041-10.575,8.591a8.5,8.5,0,0,1-2.7,3.878c-.373.358,0,.626-.343,1.029.492,0,.164.268.686.373a13.147,13.147,0,0,1,1.253-.85l.3-.179c5.25-3.072,9.545-2,14.766-5.847S366.876,120.12,366.876,120.12Z" transform="translate(170.055 -22.995)" fill="#e0e0e0"/>
              <path id="Trazado_622921" data-name="Trazado 622921" d="M332.83,122.891a9.053,9.053,0,0,1,4.952,6.637,12.737,12.737,0,0,0,9.918,9.352,8.262,8.262,0,0,1,4.191,2.178l1.283,1v-1.491c-.343-.358-.686-.731-1.014-1.119l-.209-.283c-3.744-4.788-3.251-9.2-7.756-13.871S332.83,122.891,332.83,122.891Z" transform="translate(163.577 -21.904)" fill="#e0e0e0"/>
              <path id="Trazado_622922" data-name="Trazado 622922" d="M345.981,144.374a27.979,27.979,0,0,0,.865,8.233c2.461,9.575,1.357.149,1.357.149a24.162,24.162,0,0,1-.94-7.457v-1.491a22.269,22.269,0,0,1,1.148-5.578c2.6-7.457,7.785-9.844,9.844-17.9S353.2,106.52,353.2,106.52a11.44,11.44,0,0,1-3.833,9.709c-4.788,4.653-5.474,12.722-3.415,16.824,1.193,2.386.433,5.384.089,9.366C346.055,143.031,346.01,143.7,345.981,144.374Z" transform="translate(169.488 -29.679)" fill="#e0e0e0"/>
              <path id="Trazado_622923" data-name="Trazado 622923" d="M370.332,162.633a.746.746,0,0,1-.731-.567l-17.167-71.71-17.182,71.71a.746.746,0,0,1-.895.552.761.761,0,0,1-.552-.895l17.9-74.738a.776.776,0,0,1,1.492,0l17.9,74.738a.746.746,0,0,1-.552.895Z" transform="translate(164.048 -39.557)" fill="#e0e0e0"/>
              <path id="Trazado_622924" data-name="Trazado 622924" d="M346.536,182.791a.746.746,0,0,1-.746-.746V56.106a.746.746,0,0,1,.746-.746.761.761,0,0,1,.746.746v125.94A.746.746,0,0,1,346.536,182.791Z" transform="translate(169.947 -54.823)" fill="#e0e0e0"/>
              <path id="Trazado_622925" data-name="Trazado 622925" d="M109.172,135.56l-.671,5.608-.149,1.193-3.535,29.2H71.855l-3.58-29.591-.149-1.268L67.5,135.56Z" transform="translate(33.174 -15.407)" fill="#e0e0e0"/>
              <path id="Trazado_622926" data-name="Trazado 622926" d="M103.339,124.4a9.1,9.1,0,0,0-5.832,5.966,12.752,12.752,0,0,1-11.141,7.86,8.337,8.337,0,0,0-4.474,1.491l-1.4.805c0-.492.119-1,.149-1.491.388-.3.776-.626,1.148-.969l.254-.254c4.385-4.206,4.474-8.636,9.635-12.633S103.339,124.4,103.339,124.4Z" transform="translate(39.559 -21.493)" fill="#e0e0e0"/>
              <path id="Trazado_622927" data-name="Trazado 622927" d="M67.784,117.22a9.083,9.083,0,0,0,6.592,5.041,12.8,12.8,0,0,1,9.187,10.067,8.412,8.412,0,0,0,2.1,4.221l.984,1.3c-.492,0,0,1.864-.492,1.909a13.871,13.871,0,0,0-2.148-2.879l-.283-.224c-4.728-3.818-9.143-3.386-13.736-7.964S67.784,117.22,67.784,117.22Z" transform="translate(33.01 -24.421)" fill="#e0e0e0"/>
              <path id="Trazado_622928" data-name="Trazado 622928" d="M79.951,142.559a28.13,28.13,0,0,0,.865,8.248c2.461,9.56,1.372.134,1.372.134a24.43,24.43,0,0,1-.955-7.383,9.994,9.994,0,0,1,.075-1.491,22.268,22.268,0,0,1,1.148-5.578c2.6-7.457,7.785-9.844,9.844-17.9s-5.056-13.811-5.056-13.811a11.44,11.44,0,0,1-3.758,9.65c-4.788,4.653-5.474,12.722-3.415,16.824,1.193,2.386.433,5.384.089,9.366A11.692,11.692,0,0,0,79.951,142.559Z" transform="translate(38.815 -30.534)" fill="#e0e0e0"/>
              <path id="Trazado_622929" data-name="Trazado 622929" d="M105.332,162.633a.746.746,0,0,1-.731-.567L87.434,90.356l-17.182,71.71a.746.746,0,0,1-.895.552.761.761,0,0,1-.552-.895L86.7,86.985a.776.776,0,0,1,1.491,0l17.9,74.738a.746.746,0,0,1-.552.895Z" transform="translate(33.808 -39.557)" fill="#e0e0e0"/>
              <path id="Trazado_622930" data-name="Trazado 622930" d="M81.536,182.791a.746.746,0,0,1-.746-.746V56.106a.746.746,0,0,1,.746-.746.761.761,0,0,1,.746.746v125.94A.746.746,0,0,1,81.536,182.791Z" transform="translate(39.706 -54.823)" fill="#e0e0e0"/>
            </g>
            <g id="freepik--Shadow--inject-2" transform="translate(83.687 576.896)">
              <ellipse id="freepik--path--inject-2" cx="289.182" cy="16.883" rx="289.182" ry="16.883" fill="#f5f5f5"/>
            </g>
            <g id="freepik--plant-3--inject-2" transform="translate(529.07 431.655)">
              <path id="Trazado_622931" data-name="Trazado 622931" d="M395.177,406.589c0-.582-1.954-57.571-11.216-66.579-8.949-8.74-19.389-.328-19.777,0l-.955-1.148c.119-.1,11.812-9.65,21.761,0,9.695,9.426,11.589,65.237,11.678,67.608Z" transform="translate(-350.553 -294.264)" fill="#219f45"/>
              <path id="Trazado_622932" data-name="Trazado 622932" d="M385.42,422.271c0-.686-6.339-68.444,18.4-96.841l1.134.984c-24.326,27.92-18.121,95.037-18.047,95.708Z" transform="translate(-340.004 -298.746)" fill="#219f45"/>
              <path id="Trazado_622933" data-name="Trazado 622933" d="M389.465,416.818l-1.491-.09c0-.775,4.832-77.02-13.3-93.694l1.014-1.1C394.357,339.1,389.674,413.656,389.465,416.818Z" transform="translate(-344.93 -300.466)" fill="#219f45"/>
              <path id="Trazado_622934" data-name="Trazado 622934" d="M386.671,405.675H385.18c0-2.1.6-51.515,14.646-59.569a9.933,9.933,0,0,1,9.1-.88c8.486,3.5,12.692,18.614,12.871,19.255l-1.491.4c0-.149-4.191-15.049-12.021-18.285a8.546,8.546,0,0,0-7.785.805C387.253,355.025,386.671,405.183,386.671,405.675Z" transform="translate(-339.765 -289.368)" fill="#219f45"/>
              <path id="Trazado_622935" data-name="Trazado 622935" d="M393.013,404.96l-1.491-.09c0-.388,2.118-39.032-8.322-52.649-2.521-3.281-5.28-4.847-8.143-4.653-6.831.477-12.558,10.44-12.6,10.574l-1.312-.746c.254-.433,6.175-10.783,13.811-11.32,3.43-.224,6.592,1.492,9.441,5.25C395.235,365.361,393.117,403.349,393.013,404.96Z" transform="translate(-351.58 -288.608)" fill="#219f45"/>
              <path id="Trazado_622936" data-name="Trazado 622936" d="M384.693,424.515c-.283-3.744-6.816-92.009,4.683-107.565l1.193.88c-11.171,15.124-4.474,105.671-4.385,106.581Z" transform="translate(-341.038 -302.914)" fill="#219f45"/>
              <path id="Trazado_622937" data-name="Trazado 622937" d="M404.914,352.844s-6.906,2.55-4.847,8.561S423.93,377.29,423.93,377.29s9.128-8.382.746-22S405.093,348.534,404.914,352.844Z" transform="translate(-332.637 -288.023)" fill="#219f45"/>
              <path id="Trazado_622938" data-name="Trazado 622938" d="M404.914,352.844s-6.906,2.55-4.847,8.561S423.93,377.29,423.93,377.29s9.128-8.382.746-22S405.093,348.534,404.914,352.844Z" transform="translate(-332.637 -288.023)" fill="#fff" opacity="0.2"/>
              <path id="Trazado_622939" data-name="Trazado 622939" d="M388.9,344.245s7.353-.3,7.771,5.966-15.914,23.864-15.914,23.864-11.663-4.221-9.158-20.016S387.078,340.352,388.9,344.245Z" transform="translate(-346.614 -290.864)" fill="#219f45"/>
              <path id="Trazado_622940" data-name="Trazado 622940" d="M388.9,344.245s7.353-.3,7.771,5.966-15.914,23.864-15.914,23.864-11.663-4.221-9.158-20.016S387.078,340.352,388.9,344.245Z" transform="translate(-346.614 -290.864)" fill="#fff" opacity="0.2"/>
              <path id="Trazado_622941" data-name="Trazado 622941" d="M387.334,325.833s4.892-.522,4.474-3.5-19.031-10.664-30.038,1.76c0,0,7.04,12.1,17.227,12.26S387.334,325.833,387.334,325.833Z" transform="translate(-351.27 -302.774)" fill="#219f45"/>
              <path id="Trazado_622942" data-name="Trazado 622942" d="M387.334,325.833s4.892-.522,4.474-3.5-19.031-10.664-30.038,1.76c0,0,7.04,12.1,17.227,12.26S387.334,325.833,387.334,325.833Z" transform="translate(-351.27 -302.774)" fill="#fff" opacity="0.2"/>
              <path id="Trazado_622943" data-name="Trazado 622943" d="M386.9,323.38s-4.474,2.148-5.682-.6,10.53-19.121,26.429-14.393c0,0,.418,13.99-8.143,19.508S386.9,323.38,386.9,323.38Z" transform="translate(-341.754 -307.539)" fill="#219f45"/>
              <path id="Trazado_622944" data-name="Trazado 622944" d="M386.9,323.38s-4.474,2.148-5.682-.6,10.53-19.121,26.429-14.393c0,0,.418,13.99-8.143,19.508S386.9,323.38,386.9,323.38Z" transform="translate(-341.754 -307.539)" fill="#fff" opacity="0.2"/>
              <path id="Trazado_622945" data-name="Trazado 622945" d="M376.729,350.878s3.386-2.729-.268-4.072-21.537-.955-21.731,16.779c0,0,20.881,3.46,23.431-3.281S376.729,350.878,376.729,350.878Z" transform="translate(-354.73 -288.473)" fill="#219f45"/>
              <path id="Trazado_622946" data-name="Trazado 622946" d="M376.729,350.878s3.386-2.729-.268-4.072-21.537-.955-21.731,16.779c0,0,20.881,3.46,23.431-3.281S376.729,350.878,376.729,350.878Z" transform="translate(-354.73 -288.473)" fill="#fff" opacity="0.2"/>
              <path id="Trazado_622947" data-name="Trazado 622947" d="M398.747,324.218s-3.371-2.729.268-4.072,21.552-.955,21.731,16.779c0,0-20.881,3.46-23.416-3.281S398.747,324.218,398.747,324.218Z" transform="translate(-334.211 -301.576)" fill="#219f45"/>
              <path id="Trazado_622948" data-name="Trazado 622948" d="M398.747,324.218s-3.371-2.729.268-4.072,21.552-.955,21.731,16.779c0,0-20.881,3.46-23.416-3.281S398.747,324.218,398.747,324.218Z" transform="translate(-334.211 -301.576)" fill="#fff" opacity="0.2"/>
              <path id="Trazado_622949" data-name="Trazado 622949" d="M392.644,333.053s-.283-3.311,2.386-2.013,12.006,11.365,2.342,20.881c0,0-13.021-9.635-10.679-14.661S392.644,333.053,392.644,333.053Z" transform="translate(-339.16 -296.138)" fill="#219f45"/>
              <path id="Trazado_622950" data-name="Trazado 622950" d="M392.644,333.053s-.283-3.311,2.386-2.013,12.006,11.365,2.342,20.881c0,0-13.021-9.635-10.679-14.661S392.644,333.053,392.644,333.053Z" transform="translate(-339.16 -296.138)" fill="#fff" opacity="0.2"/>
              <path id="Trazado_622951" data-name="Trazado 622951" d="M372.252,336.45s2.014-2.64-.94-2.983-16.227,3.207-13.14,16.406c0,0,16.168-1.223,16.854-6.727S372.252,336.45,372.252,336.45Z" transform="translate(-353.265 -294.807)" fill="#219f45"/>
              <path id="Trazado_622952" data-name="Trazado 622952" d="M372.252,336.45s2.014-2.64-.94-2.983-16.227,3.207-13.14,16.406c0,0,16.168-1.223,16.854-6.727S372.252,336.45,372.252,336.45Z" transform="translate(-353.265 -294.807)" fill="#fff" opacity="0.2"/>
              <path id="Trazado_622953" data-name="Trazado 622953" d="M424.284,438.468H368.861L362.88,377.78h67.385Z" transform="translate(-350.725 -273.018)" fill="#263238"/>
              <rect id="Rectángulo_297444" data-name="Rectángulo 297444" width="73.306" height="13.393" transform="translate(9.187 98.066)" fill="#263238"/>
              <rect id="Rectángulo_297445" data-name="Rectángulo 297445" width="73.306" height="13.393" transform="translate(9.187 98.066)" fill="#fff" opacity="0.2"/>
            </g>
            <g id="freepik--Character--inject-2" transform="translate(329.881 215.29)">
              <path id="Trazado_622954" data-name="Trazado 622954" d="M336.219,256.9v3.371a143.179,143.179,0,0,1-5.31,32.812c-1.76,6.682-3.878,13.423-6.145,19.926-.641,1.849-1.3,3.684-1.969,5.489-.179.507-.358,1.014-.552,1.491a456.133,456.133,0,0,1-22.372,50.442c-10.768,52.56-37.2,113.352-37.2,113.352l-8.844-3.013,28.592-130.534,7.293-32.126,1.566-6.92,2.774-12.245,2.729-11.932,5.116-22.6,20.538-4.474Z" transform="translate(-205.13 -116.061)" fill="#e4897b"/>
              <path id="Trazado_622955" data-name="Trazado 622955" d="M324.379,259.288a143.183,143.183,0,0,1-5.31,32.812c-1.76,6.682-3.878,13.423-6.145,19.926-.641,1.849-1.3,3.684-1.969,5.489-10.679,1.656-24.579.552-33.066-.447l1.566-6.92L282.23,297.9l2.729-11.932,5.116-22.6,20.538-4.474Z" transform="translate(-193.305 -115.078)" opacity="0.2"/>
              <path id="Trazado_622956" data-name="Trazado 622956" d="M341.853,301.816c-.522,5.325-1.193,10.634-1.954,15.795-.343,2.357-.7,4.683-1.089,6.965a454.576,454.576,0,0,1-10.366,47.041c.388,53.693-12.812,118.677-12.812,118.677l-9.2-1.208.79-133.681.388-28.338.164-11.693.075-5.295.582-42.731L340.45,252.94C343.717,266.885,343.568,284.485,341.853,301.816Z" transform="translate(-179.278 -118.008)" fill="#e4897b"/>
              <path id="Trazado_622957" data-name="Trazado 622957" d="M341.464,285.71c-.522,5.325-1.193,10.634-1.954,15.795-.343,2.357-.7,4.683-1.089,6.965-9.695,2.67-23.371,2.729-31.2,2.491l.164-11.693.075-5.295Z" transform="translate(-178.89 -101.902)" opacity="0.2"/>
              <path id="Trazado_622958" data-name="Trazado 622958" d="M270.013,218.429l-12.767-5.548c-.328-2.983-13.05-4.37-14.557-3.833s-4.474,8.949-4.161,10.992,13.423.239,14.766,0a25.837,25.837,0,0,0,2.58-.611l10.962,5.966Z" transform="translate(-212.662 -139.635)" fill="#e4897b"/>
              <path id="Trazado_622959" data-name="Trazado 622959" d="M300.6,210.928s-.358,1.715-1.044,4.325c-1.491,5.712-4.743,15.735-9.71,21.194a11.724,11.724,0,0,1-5,3.49c-10.619,3.3-31.008-8.949-31.008-8.949l3.639-9.739s18.42,9.844,23.148,5.966,8.382-29.546,15.138-32.305Z" transform="translate(-205.125 -146.528)" fill="#3193d4"/>
              <path id="Trazado_622960" data-name="Trazado 622960" d="M287.947,211.455c-1.492,5.712-4.743,15.735-9.71,21.194-3.684-16.585,6.846-30.008,6.846-30.008Z" transform="translate(-193.518 -142.729)" opacity="0.2"/>
              <path id="Trazado_622961" data-name="Trazado 622961" d="M274.118,407.267c0-1.178-14.363-.254-14.363-.254s-8.815,8.949-17.376,10.977-3.788,7.159,5.787,7.159h23.685C278.652,425.15,274.4,419.348,274.118,407.267Z" transform="translate(-212.949 -42.454)" fill="#263238"/>
              <path id="Trazado_622962" data-name="Trazado 622962" d="M248.071,411.564a2,2,0,0,1-1.268-.343,1.372,1.372,0,0,1-.343-1.491,1.566,1.566,0,0,1,.761-.969,5.877,5.877,0,0,1,3.207-.343c-1.163-.626-2.178-1.387-2.222-2.133a1.379,1.379,0,0,1,.94-1.208,2.222,2.222,0,0,1,1.849,0c1.939.805,3.147,4.131,3.207,4.3a.61.61,0,0,1,0,.164h0a.358.358,0,0,1,0,.119h0a.372.372,0,0,1,0,.1h0l-.119.089a18.045,18.045,0,0,1-6.011,1.715Zm1.208-2.506a3.624,3.624,0,0,0-1.685.313.776.776,0,0,0-.4.507c-.149.552,0,.7.089.746.671.567,3.3-.224,5.414-1.119a16.7,16.7,0,0,0-3.415-.447Zm.85-3.5a1.492,1.492,0,0,0-.656.164c-.194.089-.522.268-.522.477,0,.641,2.088,1.76,4.221,2.565a6.339,6.339,0,0,0-2.461-3.087A1.626,1.626,0,0,0,250.129,405.554Z" transform="translate(-208.797 -43.336)" fill="#219f45"/>
              <path id="Trazado_622963" data-name="Trazado 622963" d="M326.718,407.267c0-1.178-14.363-.254-14.363-.254s-8.815,8.949-17.376,10.977-3.788,7.159,5.787,7.159h23.685C331.252,425.15,327.031,419.348,326.718,407.267Z" transform="translate(-187.098 -42.454)" fill="#263238"/>
              <path id="Trazado_622964" data-name="Trazado 622964" d="M300.671,411.564a2.029,2.029,0,0,1-1.268-.343,1.372,1.372,0,0,1-.343-1.491,1.566,1.566,0,0,1,.761-.969,5.877,5.877,0,0,1,3.207-.343c-1.163-.626-2.178-1.387-2.222-2.133a1.379,1.379,0,0,1,.94-1.208,2.222,2.222,0,0,1,1.849,0c1.939.806,3.147,4.131,3.207,4.3a.614.614,0,0,1,0,.164h0a.356.356,0,0,1,0,.119h0a.372.372,0,0,1,0,.1h0l-.119.089a18.048,18.048,0,0,1-6.011,1.715Zm1.208-2.506a3.624,3.624,0,0,0-1.685.313.776.776,0,0,0-.4.507c-.149.552,0,.7.089.746.671.567,3.3-.224,5.414-1.119a16.7,16.7,0,0,0-3.415-.447Zm.85-3.5a1.49,1.49,0,0,0-.656.164c-.194.089-.522.268-.522.477,0,.641,2.088,1.76,4.221,2.565a6.338,6.338,0,0,0-2.461-3.087A1.625,1.625,0,0,0,302.729,405.554Z" transform="translate(-182.945 -43.336)" fill="#219f45"/>
              <path id="Trazado_622965" data-name="Trazado 622965" d="M298.29,170.717s4.474-11.276,14.915-7.457c18.345,6.622,12.767,56.974,12.767,56.974l-18.36,2.088s4.937-39.345,1.984-44.819-6.876.656-6.876.656Z" transform="translate(-183.279 -162.471)" fill="#263238"/>
              <path id="Trazado_622966" data-name="Trazado 622966" d="M363.823,330.269s-22.775,5.474-45.236-.82l-.805-11.8-3.415,10.1c-22.76,2.521-37.525-7.278-37.525-7.278a297.333,297.333,0,0,1,18.972-64.133l5.325-25.116,48.771,3.773C360.512,255.233,363.748,289.387,363.823,330.269Z" transform="translate(-193.821 -128.682)" fill="#263238"/>
              <path id="Trazado_622967" data-name="Trazado 622967" d="M297,263.1l51.516,13.736c-1.491-6.19-3.714-13.93-6.5-22.462l.85-51.784s-33.245-19-59.808-5.22c0,0-1,27.92,1.119,37.734C285.832,242.7,295.2,255.539,297,263.1Z" transform="translate(-190.881 -147.782)" fill="#b1d0f2"/>
              <path id="Trazado_622969" data-name="Trazado 622969" d="M299.235,215.339a26.1,26.1,0,0,1-9.366-9.381c-2.506-4.37-2.819-8.337-1.1-9.247,2.983-1.581,15.2-10.44,15.2-10.44a10.44,10.44,0,0,0,1.074,2.685c1.611,2.908,5.5,7.457,14.587,9.918C333.643,202.661,309.511,221.424,299.235,215.339Z" transform="translate(-188.489 -150.774)" fill="#e4897b"/>
              <path id="Trazado_622970" data-name="Trazado 622970" d="M297.967,205.247a9.486,9.486,0,0,0,1.7,5.817,42.969,42.969,0,0,1-9.8-5.086c-2.506-4.37-2.819-8.337-1.1-9.247,2.983-1.581,15.2-10.44,15.2-10.44a10.439,10.439,0,0,0,1.074,2.685C305.8,194.806,303.068,200.683,297.967,205.247Z" transform="translate(-188.489 -150.764)" opacity="0.2"/>
              <path id="Trazado_622971" data-name="Trazado 622971" d="M350.284,277.543s-25.862,5.533-34.945-4.221a76.529,76.529,0,0,1-14.169-21.015c-.4-.895-.761-1.775-1.089-2.625-4.474-11.276-3.788-19.106-3.788-19.106l1.581-1.074c22.521-16,26.936-34.6,26.936-34.6l11.454,6.443,8.949,52.738a212.413,212.413,0,0,0,5.071,23.461Z" transform="translate(-184.279 -146.533)" fill="#3193d4"/>
              <path id="Trazado_622972" data-name="Trazado 622972" d="M306.852,253.7c-4.206,14.408-12.215,11.768-12.215,11.768s-.746-2.67-1.939-6.2a74.2,74.2,0,0,0-5.026-11.857c-8.188-14.378-5.593-52.008-5.593-52.008l4.653-1.491s-.254,22.641,18.3,36.079a53.857,53.857,0,0,1,2.207,20.195,17.349,17.349,0,0,1-.388,3.52Z" transform="translate(-191.438 -147.019)" fill="#3193d4"/>
              <path id="Trazado_622973" data-name="Trazado 622973" d="M298.527,220.83a1.029,1.029,0,1,1-.925-1.119,1.029,1.029,0,0,1,.925,1.119Z" transform="translate(-184.172 -134.341)" fill="#263238"/>
              <path id="Trazado_622974" data-name="Trazado 622974" d="M299.865,228.943a1.014,1.014,0,0,1-1.119.925,1.029,1.029,0,1,1,.209-2.043,1.014,1.014,0,0,1,.91,1.119Z" transform="translate(-183.541 -130.358)" fill="#263238"/>
              <path id="Trazado_622975" data-name="Trazado 622975" d="M313.719,267.3a76.526,76.526,0,0,1-14.169-21.015c7.994-5.175,20.4-21.82,27-39.136l8.636,17.331S336.837,252.043,313.719,267.3Z" transform="translate(-182.66 -140.512)" opacity="0.2"/>
              <path id="Trazado_622976" data-name="Trazado 622976" d="M303.224,234c-4.206,14.408-12.215,11.768-12.215,11.768s-.746-2.67-1.939-6.2A44.1,44.1,0,0,0,303.224,234Z" transform="translate(-187.81 -127.316)" opacity="0.2"/>
              <path id="Trazado_622977" data-name="Trazado 622977" d="M277.91,180.26s-2-18.4,26.518-14.915a20.418,20.418,0,0,1,13.5,16.108c2.133,12.812,2.789,21.776-7.785,21.954S277.91,180.26,277.91,180.26Z" transform="translate(-193.31 -161.275)" fill="#263238"/>
              <path id="Trazado_622978" data-name="Trazado 622978" d="M290.847,170.866c-11.5,2.789-13.707,9.829-11.663,21.88,2.536,15.049,8.367,24.773,21.969,18.121C319.617,201.844,309.923,166.242,290.847,170.866Z" transform="translate(-193.003 -158.548)" fill="#e4897b"/>
              <path id="Trazado_622979" data-name="Trazado 622979" d="M284.552,183.76a24.966,24.966,0,0,1-2.192,5.578,3.266,3.266,0,0,0,3.356.567Z" transform="translate(-191.108 -152.008)" fill="#de5753"/>
              <path id="Trazado_622980" data-name="Trazado 622980" d="M288.409,182.653c.209.94.895,1.6,1.492,1.491s.984-1.014.776-1.969-.895-1.611-1.491-1.491S288.2,181.684,288.409,182.653Z" transform="translate(-188.163 -153.526)" fill="#263238"/>
              <path id="Trazado_622981" data-name="Trazado 622981" d="M289.827,180.778l-2.237-.358S288.992,181.926,289.827,180.778Z" transform="translate(-188.538 -153.649)" fill="#263238"/>
              <path id="Trazado_622982" data-name="Trazado 622982" d="M280.469,184.232c.209.955.895,1.611,1.491,1.491s.984-1.014.776-1.969-.895-1.6-1.491-1.491S280.26,183.278,280.469,184.232Z" transform="translate(-192.066 -152.749)" fill="#263238"/>
              <path id="Trazado_622983" data-name="Trazado 622983" d="M281.887,182.368l-2.237-.358S281.052,183.487,281.887,182.368Z" transform="translate(-192.44 -152.868)" fill="#263238"/>
              <path id="Trazado_622984" data-name="Trazado 622984" d="M292.752,178.018a.507.507,0,0,1-.313-.119,5.652,5.652,0,0,0-4.892-.447.529.529,0,0,1-.388-.984,6.652,6.652,0,0,1,5.966.6.537.537,0,0,1-.328.955Z" transform="translate(-188.913 -155.811)" fill="#263238"/>
              <path id="Trazado_622985" data-name="Trazado 622985" d="M278.765,180.433a.522.522,0,0,1-.388-.88,5.966,5.966,0,0,1,4.788-2.222.526.526,0,1,1-.119,1.044,5.056,5.056,0,0,0-3.893,1.894A.507.507,0,0,1,278.765,180.433Z" transform="translate(-193.136 -155.168)" fill="#263238"/>
              <path id="Trazado_622986" data-name="Trazado 622986" d="M308.384,188.881s-7.666-8.143-8.621-15.616c0,0-25.027-3.788-20.538,19.6,0,0-7.2-19.986,12.424-25.236s26.578,23.67,18.464,34.751C310.114,202.379,313.127,193.982,308.384,188.881Z" transform="translate(-193.283 -160.246)" fill="#263238"/>
              <path id="Trazado_622987" data-name="Trazado 622987" d="M297.5,185.574a5.19,5.19,0,0,1,4.31-5.966c3.654-.477,7.129,6.428-1.3,10.336C299.292,190.54,298.278,189.481,297.5,185.574Z" transform="translate(-183.7 -154.06)" fill="#e4897b"/>
              <path id="Trazado_622988" data-name="Trazado 622988" d="M300.939,164.82S274.3,164.626,275.167,189a30.859,30.859,0,0,1,7.577-3.714,23.445,23.445,0,0,1,3.594-7.92,22.91,22.91,0,0,0-2.371,7.457,35.555,35.555,0,0,1,7.07-1.387,25.953,25.953,0,0,1,.79-6.891,41.012,41.012,0,0,0,.686,6.771,35.246,35.246,0,0,1,7.681.462,29.325,29.325,0,0,1-2.431-7.234A17.9,17.9,0,0,0,301.581,184q1.253.254,2.55.626s-4.773-7.263-1.342-12.767S300.939,164.82,300.939,164.82Z" transform="translate(-194.654 -161.316)" fill="#263238"/>
              <path id="Trazado_622989" data-name="Trazado 622989" d="M285.64,192.173a30.139,30.139,0,0,1,3.177,2.983l.641-.418c2.849-1.954,3.535-3.8,3.415-5.265a4.475,4.475,0,0,0-.686-1.984,4.652,4.652,0,0,0-.761-.94,16.406,16.406,0,0,1-4.818,4.982C286.028,191.919,285.64,192.173,285.64,192.173Z" transform="translate(-189.496 -150.637)" fill="#263238"/>
              <path id="Trazado_622990" data-name="Trazado 622990" d="M286.29,191.5l.955.85c2.685-1.849,4.325-3.5,4.624-4.892a4.651,4.651,0,0,0-.761-.94A16.407,16.407,0,0,1,286.29,191.5Z" transform="translate(-189.177 -150.651)" fill="#fff"/>
              <path id="Trazado_622991" data-name="Trazado 622991" d="M288.2,193.735c2.849-1.954,3.535-3.8,3.415-5.265a11.423,11.423,0,0,0-2.744,2.8,4.176,4.176,0,0,0-.671,2.461Z" transform="translate(-188.239 -149.693)" fill="#de5753"/>
              <path id="Trazado_622992" data-name="Trazado 622992" d="M274.683,239.845a1.491,1.491,0,0,1-1.491-1.014c-.075-.224-8.024-22.268-19.121-24.952-3.49-.85-6.906.343-10.44,3.654a1.53,1.53,0,1,1-2.1-2.222c4.281-4.027,8.74-5.518,13.259-4.474,12.692,3.087,20.881,25.937,21.283,26.847a1.491,1.491,0,0,1-.94,1.954A1.179,1.179,0,0,1,274.683,239.845Z" transform="translate(-211.411 -138.859)" fill="#263238"/>
              <g id="Grupo_897891" data-name="Grupo 897891" transform="translate(29.638 71.655)" opacity="0.4">
                <path id="Trazado_622993" data-name="Trazado 622993" d="M274.683,239.845a1.491,1.491,0,0,1-1.491-1.014c-.075-.224-8.024-22.268-19.121-24.952-3.49-.85-6.906.343-10.44,3.654a1.53,1.53,0,1,1-2.1-2.222c4.281-4.027,8.74-5.518,13.259-4.474,12.692,3.087,20.881,25.937,21.283,26.847a1.491,1.491,0,0,1-.94,1.954A1.179,1.179,0,0,1,274.683,239.845Z" transform="translate(-241.049 -210.514)" fill="#fff"/>
              </g>
              <path id="Trazado_622994" data-name="Trazado 622994" d="M240.44,247.828l28.1,36.72s19.255-2.893,29.143-21.045l-22.954-37A41.105,41.105,0,0,0,240.44,247.828Z" transform="translate(-211.711 -131.002)" fill="#263238"/>
              <path id="Trazado_622995" data-name="Trazado 622995" d="M297.688,263.493c-9.9,18.151-29.143,21.075-29.143,21.075L240.43,247.833a41.224,41.224,0,0,1,34.2-21.343h.09Z" transform="translate(-211.716 -131.007)" fill="#fff" opacity="0.6"/>
              <path id="Trazado_622996" data-name="Trazado 622996" d="M274.719,226.5s-3.565,7.01-15.869,15.064-18.42,6.264-18.42,6.264a41.224,41.224,0,0,1,34.2-21.343Z" transform="translate(-211.716 -131.007)" fill="#fff" opacity="0.6"/>
              <path id="Trazado_622997" data-name="Trazado 622997" d="M264.068,253.908s-16.272-2.192-21.149-2.178-8.039,8.949-8.039,8.949l4.355,1.611s3.833-5.5,6.637-4.832,22,8.352,22,8.352S270.929,256.607,264.068,253.908Z" transform="translate(-214.443 -118.602)" fill="#263238"/>
              <path id="Trazado_622998" data-name="Trazado 622998" d="M264.068,253.908s-16.272-2.192-21.149-2.178-8.039,8.949-8.039,8.949l4.355,1.611s3.833-5.5,6.637-4.832,22,8.352,22,8.352S270.929,256.607,264.068,253.908Z" transform="translate(-214.443 -118.602)" fill="#fff" opacity="0.4"/>
              <path id="Trazado_622999" data-name="Trazado 622999" d="M228.94,259.814s5.444-4.266,11.484-2.849,7.92,9.217,7.92,9.217S237.262,272.8,228.94,259.814Z" transform="translate(-217.363 -116.171)" fill="#263238"/>
              <path id="Trazado_623000" data-name="Trazado 623000" d="M248.389,266.18S237.278,272.8,229,259.827c0,0,5.429-4.266,11.469-2.864S248.389,266.18,248.389,266.18Z" transform="translate(-217.333 -116.169)" fill="#fff" opacity="0.6"/>
              <path id="Trazado_623001" data-name="Trazado 623001" d="M248.389,265.437s-11.111,6.622-19.389-6.354C229,259.084,239.813,254.684,248.389,265.437Z" transform="translate(-217.333 -115.426)" opacity="0.2"/>
              <path id="Trazado_623002" data-name="Trazado 623002" d="M247.067,257.837a1.611,1.611,0,0,1-1.253-.552c-.209-.254-20.881-25.549-1.79-43.417a1.53,1.53,0,0,1,2.1,2.222c-16.943,15.914,1.268,38.286,2.058,39.226a1.522,1.522,0,0,1-1.119,2.521Z" transform="translate(-213.923 -137.416)" fill="#263238"/>
              <g id="Grupo_897892" data-name="Grupo 897892" transform="translate(22.015 76.033)" opacity="0.4">
                <path id="Trazado_623003" data-name="Trazado 623003" d="M247.067,257.837a1.611,1.611,0,0,1-1.253-.552c-.209-.254-20.881-25.549-1.79-43.417a1.53,1.53,0,0,1,2.1,2.222c-16.943,15.914,1.268,38.286,2.058,39.226a1.522,1.522,0,0,1-1.119,2.521Z" transform="translate(-235.938 -213.449)" fill="#fff"/>
              </g>
              <path id="Trazado_623004" data-name="Trazado 623004" d="M221.6,276.285c-.194,1.014-.328,2.043-.418,2.983a.537.537,0,0,0,.492.6.416.416,0,0,0,.194,0,.552.552,0,0,0,.418-.477,29.225,29.225,0,0,1,.4-2.983.552.552,0,0,0-.447-.641.537.537,0,0,0-.641.522Z" transform="translate(-221.178 -106.796)" fill="#219f45"/>
              <path id="Trazado_623005" data-name="Trazado 623005" d="M223.083,271.993a38.175,38.175,0,0,0-1.357,4.474.552.552,0,0,0,.4.671.554.554,0,0,0,.671-.4,40.043,40.043,0,0,1,1.327-4.474.542.542,0,1,0-1.044-.268Z" transform="translate(-220.917 -108.872)" fill="#219f45"/>
              <path id="Trazado_623006" data-name="Trazado 623006" d="M227.562,265.487a.552.552,0,0,0-.761.179,54.4,54.4,0,0,0-3.445,6.667.552.552,0,0,0,.283.731.507.507,0,0,0,.358,0,.552.552,0,0,0,.373-.313,51.3,51.3,0,0,1,3.386-6.533.552.552,0,0,0-.194-.731Z" transform="translate(-220.131 -111.882)" fill="#219f45"/>
              <path id="Trazado_623007" data-name="Trazado 623007" d="M227.089,266.174a.552.552,0,0,0,.313-.239c1.163-1.73,1.984-2.744,1.984-2.759a.552.552,0,0,0-.075-.776.567.567,0,0,0-.776,0s-.865,1.074-2.043,2.864a.537.537,0,0,0,.149.761A.6.6,0,0,0,227.089,266.174Z" transform="translate(-218.614 -113.433)" fill="#219f45"/>
              <path id="Trazado_623008" data-name="Trazado 623008" d="M240.239,280.13a.552.552,0,0,0-.328.7,28.176,28.176,0,0,0,1.163,2.834.567.567,0,0,0,.641.3h.09a.552.552,0,0,0,.268-.731c-.418-.865-.79-1.79-1.134-2.729a.537.537,0,0,0-.7-.373Z" transform="translate(-211.987 -104.66)" fill="#219f45"/>
              <path id="Trazado_623009" data-name="Trazado 623009" d="M240.6,281.5h0a.537.537,0,0,0,.373-.686,40.033,40.033,0,0,1-1.089-4.474.537.537,0,0,0-.641-.447.567.567,0,0,0-.447.641,42.492,42.492,0,0,0,1.119,4.609.552.552,0,0,0,.686.358Z" transform="translate(-212.524 -106.732)" fill="#219f45"/>
              <path id="Trazado_623010" data-name="Trazado 623010" d="M238.779,269a.537.537,0,0,0-.567.537,56.3,56.3,0,0,0,.373,7.457.567.567,0,0,0,.626.492h.075a.567.567,0,0,0,.4-.612,54.062,54.062,0,0,1-.373-7.353.537.537,0,0,0-.537-.522Z" transform="translate(-212.809 -110.115)" fill="#219f45"/>
              <path id="Trazado_623011" data-name="Trazado 623011" d="M239.225,265.232a.552.552,0,0,0-.626.462s-.209,1.357-.328,3.49a.537.537,0,0,0,.522.582.3.3,0,0,0,.164,0,.552.552,0,0,0,.418-.492c.119-2.088.313-3.386.313-3.386a.552.552,0,0,0-.462-.656Z" transform="translate(-212.778 -111.969)" fill="#219f45"/>
              <path id="Trazado_623012" data-name="Trazado 623012" d="M232.764,265.167c-.433.895-.85,1.835-1.223,2.8a.567.567,0,0,0,.328.716.537.537,0,0,0,.343,0,.567.567,0,0,0,.373-.343c.358-.925.746-1.835,1.178-2.7a.557.557,0,1,0-1-.492Z" transform="translate(-216.1 -112.158)" fill="#219f45"/>
              <path id="Trazado_623013" data-name="Trazado 623013" d="M231.521,268.257a41.032,41.032,0,0,0-1.208,4.579.567.567,0,0,0,.433.656.478.478,0,0,0,.254,0,.552.552,0,0,0,.4-.418,38.928,38.928,0,0,1,1.163-4.474.552.552,0,0,0-.358-.7.537.537,0,0,0-.686.358Z" transform="translate(-216.693 -110.669)" fill="#219f45"/>
              <path id="Trazado_623014" data-name="Trazado 623014" d="M230.167,273.254a53.859,53.859,0,0,0-.507,7.457.537.537,0,0,0,.552.552h.134a.567.567,0,0,0,.418-.537,51.363,51.363,0,0,1,.507-7.338.567.567,0,0,0-.477-.626.552.552,0,0,0-.626.492Z" transform="translate(-217.009 -108.268)" fill="#219f45"/>
              <path id="Trazado_623015" data-name="Trazado 623015" d="M230.177,279.23a.552.552,0,0,0-.537.582c.089,2.133.268,3.445.268,3.5a.552.552,0,0,0,.626.462h0a.567.567,0,0,0,.4-.612s-.179-1.312-.268-3.386a.552.552,0,0,0-.492-.552Z" transform="translate(-217.019 -105.087)" fill="#219f45"/>
              <g id="Grupo_897893" data-name="Grupo 897893" transform="translate(0 148.814)" opacity="0.6">
                <path id="Trazado_623016" data-name="Trazado 623016" d="M221.6,276.285c-.194,1.014-.328,2.043-.418,2.983a.537.537,0,0,0,.492.6.416.416,0,0,0,.194,0,.552.552,0,0,0,.418-.477,29.225,29.225,0,0,1,.4-2.983.552.552,0,0,0-.447-.641.537.537,0,0,0-.641.522Z" transform="translate(-221.178 -255.609)" fill="#fff"/>
                <path id="Trazado_623017" data-name="Trazado 623017" d="M223.083,271.993a38.175,38.175,0,0,0-1.357,4.474.552.552,0,0,0,.4.671.554.554,0,0,0,.671-.4,40.043,40.043,0,0,1,1.327-4.474.542.542,0,1,0-1.044-.268Z" transform="translate(-220.917 -257.686)" fill="#fff"/>
                <path id="Trazado_623018" data-name="Trazado 623018" d="M227.562,265.487a.552.552,0,0,0-.761.179,54.4,54.4,0,0,0-3.445,6.667.552.552,0,0,0,.283.731.507.507,0,0,0,.358,0,.552.552,0,0,0,.373-.313,51.3,51.3,0,0,1,3.386-6.533.552.552,0,0,0-.194-.731Z" transform="translate(-220.131 -260.695)" fill="#fff"/>
                <path id="Trazado_623019" data-name="Trazado 623019" d="M227.089,266.174a.552.552,0,0,0,.313-.239c1.163-1.73,1.984-2.744,1.984-2.759a.552.552,0,0,0-.075-.776.567.567,0,0,0-.776,0s-.865,1.074-2.043,2.864a.537.537,0,0,0,.149.761A.6.6,0,0,0,227.089,266.174Z" transform="translate(-218.614 -262.247)" fill="#fff"/>
                <path id="Trazado_623020" data-name="Trazado 623020" d="M240.239,280.13a.552.552,0,0,0-.328.7,28.176,28.176,0,0,0,1.163,2.834.567.567,0,0,0,.641.3h.09a.552.552,0,0,0,.268-.731c-.418-.865-.79-1.79-1.134-2.729a.537.537,0,0,0-.7-.373Z" transform="translate(-211.987 -253.473)" fill="#fff"/>
                <path id="Trazado_623021" data-name="Trazado 623021" d="M240.6,281.5h0a.537.537,0,0,0,.373-.686,40.033,40.033,0,0,1-1.089-4.474.537.537,0,0,0-.641-.447.567.567,0,0,0-.447.641,42.492,42.492,0,0,0,1.119,4.609.552.552,0,0,0,.686.358Z" transform="translate(-212.524 -255.546)" fill="#fff"/>
                <path id="Trazado_623022" data-name="Trazado 623022" d="M238.779,269a.537.537,0,0,0-.567.537,56.3,56.3,0,0,0,.373,7.457.567.567,0,0,0,.626.492h.075a.567.567,0,0,0,.4-.612,54.062,54.062,0,0,1-.373-7.353.537.537,0,0,0-.537-.522Z" transform="translate(-212.809 -258.928)" fill="#fff"/>
                <path id="Trazado_623023" data-name="Trazado 623023" d="M239.225,265.232a.552.552,0,0,0-.626.462s-.209,1.357-.328,3.49a.537.537,0,0,0,.522.582.3.3,0,0,0,.164,0,.552.552,0,0,0,.418-.492c.119-2.088.313-3.386.313-3.386a.552.552,0,0,0-.462-.656Z" transform="translate(-212.778 -260.783)" fill="#fff"/>
                <path id="Trazado_623024" data-name="Trazado 623024" d="M232.764,265.167c-.433.895-.85,1.835-1.223,2.8a.567.567,0,0,0,.328.716.537.537,0,0,0,.343,0,.567.567,0,0,0,.373-.343c.358-.925.746-1.835,1.178-2.7a.557.557,0,1,0-1-.492Z" transform="translate(-216.1 -260.972)" fill="#fff"/>
                <path id="Trazado_623025" data-name="Trazado 623025" d="M231.521,268.257a41.032,41.032,0,0,0-1.208,4.579.567.567,0,0,0,.433.656.478.478,0,0,0,.254,0,.552.552,0,0,0,.4-.418,38.928,38.928,0,0,1,1.163-4.474.552.552,0,0,0-.358-.7.537.537,0,0,0-.686.358Z" transform="translate(-216.693 -259.483)" fill="#fff"/>
                <path id="Trazado_623026" data-name="Trazado 623026" d="M230.167,273.254a53.859,53.859,0,0,0-.507,7.457.537.537,0,0,0,.552.552h.134a.567.567,0,0,0,.418-.537,51.363,51.363,0,0,1,.507-7.338.567.567,0,0,0-.477-.626.552.552,0,0,0-.626.492Z" transform="translate(-217.009 -257.082)" fill="#fff"/>
                <path id="Trazado_623027" data-name="Trazado 623027" d="M230.177,279.23a.552.552,0,0,0-.537.582c.089,2.133.268,3.445.268,3.5a.552.552,0,0,0,.626.462h0a.567.567,0,0,0,.4-.612s-.179-1.312-.268-3.386a.552.552,0,0,0-.492-.552Z" transform="translate(-217.019 -253.9)" fill="#fff"/>
              </g>
              <path id="Trazado_623028" data-name="Trazado 623028" d="M298.451,240.88l-12.8,5.5c-2.4-1.8-12.141,6.5-12.782,7.979s3.43,9.441,5.16,10.56,9.337-9.575,10.1-10.783,1.327-2.3,1.327-2.3l11.857-3.878Z" transform="translate(-195.804 -123.935)" fill="#e4897b"/>
              <path id="Trazado_623029" data-name="Trazado 623029" d="M341.83,199.22c16.123,11.484-9.217,51.307-13.08,55.707s-39.435,16.809-39.435,16.809l-4.385-8.591s27.518-12.692,31.828-18.2,12.767-19.687,17.585-35.363C336.729,201.875,341.83,199.22,341.83,199.22Z" transform="translate(-189.845 -144.41)" fill="#227cb8"/>
            </g>
            <g id="freepik--plant-2--inject-2" transform="translate(187.941 383.273)">
              <path id="Trazado_623030" data-name="Trazado 623030" d="M215.25,291.618a9.128,9.128,0,0,1,5.847,5.891,12.752,12.752,0,0,0,11.126,7.86,8.308,8.308,0,0,1,4.474,1.492l1.4.82c0-.492-.1-1.014-.134-1.491-.4-.3-.776-.626-1.163-.969l-.254-.254c-4.385-4.206-4.474-8.636-9.62-12.633S215.25,291.618,215.25,291.618Z" transform="translate(-82.151 -267.605)" fill="#219f45"/>
              <path id="Trazado_623031" data-name="Trazado 623031" d="M250.469,288.427a9.1,9.1,0,0,0-4.952,6.652,12.767,12.767,0,0,1-9.918,9.381,8.412,8.412,0,0,0-4.191,2.163l-1.268,1V306.13c.343-.358.671-.731,1-1.134l.224-.268c3.744-4.8,3.236-9.2,7.741-13.871S250.469,288.427,250.469,288.427Z" transform="translate(-74.833 -268.814)" fill="#219f45"/>
              <path id="Trazado_623032" data-name="Trazado 623032" d="M235.162,312.879a28.579,28.579,0,0,1-.85,8.248c-2.461,9.56-1.372.134-1.372.134a24.312,24.312,0,0,0,.955-7.383v-1.492a23.638,23.638,0,0,0-1.148-5.593c-2.6-7.457-7.8-9.844-9.844-17.9s5.056-13.8,5.056-13.8a11.41,11.41,0,0,0,3.833,9.695c4.773,4.653,5.459,12.722,3.415,16.824C234,304,234.759,307,235.117,311,235.072,311.566,235.162,312.238,235.162,312.879Z" transform="translate(-78.572 -275.1)" fill="#219f45"/>
              <path id="Trazado_623033" data-name="Trazado 623033" d="M214.311,290.44a9.083,9.083,0,0,1-7.249,4.027,12.752,12.752,0,0,0-10.575,8.606,8.547,8.547,0,0,1-2.7,3.863c-.373.358,0,.626-.358,1.029.492.075.179.268.7.373.388-.283.805-.582,1.238-.85l.313-.179c5.235-3.072,9.545-2,14.766-5.847S214.311,290.44,214.311,290.44Z" transform="translate(-92.875 -267.561)" fill="#219f45"/>
              <path id="Trazado_623034" data-name="Trazado 623034" d="M180.28,293.183a9.053,9.053,0,0,1,4.952,6.637,12.722,12.722,0,0,0,9.918,9.352,8.442,8.442,0,0,1,4.191,2.178l1.268,1a8.266,8.266,0,0,1,.089-1.491,12.221,12.221,0,0,1-1.014-1.119l-.224-.283c-3.744-4.788-3.237-9.187-7.741-13.871S180.28,293.183,180.28,293.183Z" transform="translate(-99.338 -266.486)" fill="#219f45"/>
              <path id="Trazado_623035" data-name="Trazado 623035" d="M193.406,314.669a28.129,28.129,0,0,0,.865,8.248c2.461,9.56,1.357.134,1.357.134a24.43,24.43,0,0,1-.955-7.383,8.35,8.35,0,0,1,.089-1.491,22.269,22.269,0,0,1,1.148-5.578c2.6-7.457,7.785-9.844,9.844-17.9s-5.071-13.811-5.071-13.811a11.4,11.4,0,0,1-3.818,9.71c-4.788,4.653-5.474,12.722-3.415,16.824,1.193,2.386.433,5.384,0,9.366C193.481,313.357,193.436,314,193.406,314.669Z" transform="translate(-93.403 -274.22)" fill="#219f45"/>
              <path id="Trazado_623036" data-name="Trazado 623036" d="M181.024,294.684a9.1,9.1,0,0,0-5.832,5.966,12.752,12.752,0,0,1-11.141,7.86A8.337,8.337,0,0,0,159.577,310l-1.387.805q.089-.731.134-1.491c.388-.3.776-.626,1.148-.969l.268-.254c4.37-4.206,4.474-8.636,9.62-12.633S181.024,294.684,181.024,294.684Z" transform="translate(-110.194 -266.078)" fill="#219f45"/>
              <path id="Trazado_623037" data-name="Trazado 623037" d="M145.477,287.54a9.113,9.113,0,0,0,6.577,5.056,12.737,12.737,0,0,1,9.187,10.053,8.352,8.352,0,0,0,2.1,4.221l.984,1.3c-.492,0,0,1.864-.492,1.909a13.87,13.87,0,0,0-2.148-2.878l-.283-.224c-4.728-3.818-9.143-3.386-13.736-7.964S145.477,287.54,145.477,287.54Z" transform="translate(-116.751 -268.986)" fill="#219f45"/>
              <path id="Trazado_623038" data-name="Trazado 623038" d="M157.7,312.879a27.561,27.561,0,0,0,.85,8.248c2.461,9.56,1.372.134,1.372.134a24.312,24.312,0,0,1-.955-7.383c0-.492,0-1,0-1.492a22.239,22.239,0,0,1,1.148-5.593c2.6-7.457,7.8-9.844,9.844-17.9s-5.056-13.8-5.056-13.8a11.41,11.41,0,0,1-3.833,9.695c-4.788,4.653-5.459,12.722-3.415,16.824,1.193,2.386.433,5.384.089,9.381C157.763,311.566,157.718,312.238,157.7,312.879Z" transform="translate(-110.99 -275.1)" fill="#219f45"/>
              <path id="Trazado_623039" data-name="Trazado 623039" d="M313.383,336.54v122.2h-6.831V347.577H172.841v111.16H166.01V336.54Z" transform="translate(-106.351 -244.904)" fill="#263238"/>
              <path id="Trazado_623040" data-name="Trazado 623040" d="M313.383,336.54v122.2h-6.831V347.577H172.841v111.16H166.01V336.54Z" transform="translate(-106.351 -244.904)" fill="#fff" opacity="0.2"/>
              <path id="Trazado_623041" data-name="Trazado 623041" d="M273.383,336.54v122.2h-6.831V347.577H132.841v111.16H126.01V336.54Z" transform="translate(-126.01 -244.904)" fill="#263238"/>
              <path id="Trazado_623042" data-name="Trazado 623042" d="M273.383,336.54v122.2h-6.831V347.577H132.841v111.16H126.01V336.54Z" transform="translate(-126.01 -244.904)" fill="#fff" opacity="0.4"/>
              <path id="Trazado_623043" data-name="Trazado 623043" d="M307.979,305.88l-5.533,45.729H142.753L137.22,305.88Z" transform="translate(-120.501 -259.972)" fill="#b77643"/>
              <g id="Grupo_897894" data-name="Grupo 897894" transform="translate(17.48 52.231)" opacity="0.2">
                <path id="Trazado_623045" data-name="Trazado 623045" d="M306.967,310.12l-.179,1.491H137.909l-.179-1.491Z" transform="translate(-137.73 -310.12)" fill="#fff"/>
              </g>
              <g id="Grupo_897895" data-name="Grupo 897895" transform="translate(18.39 59.689)" opacity="0.2">
                <path id="Trazado_623046" data-name="Trazado 623046" d="M305.758,315.12l-.179,1.491H138.519l-.179-1.491Z" transform="translate(-138.34 -315.12)" fill="#fff"/>
              </g>
              <g id="Grupo_897896" data-name="Grupo 897896" transform="translate(19.837 71.621)" opacity="0.2">
                <path id="Trazado_623047" data-name="Trazado 623047" d="M303.834,323.12l-.179,1.491H139.489l-.179-1.491Z" transform="translate(-139.31 -323.12)" fill="#fff"/>
              </g>
            </g>
            <g id="freepik--plant-1--inject-2" transform="translate(113.829 279.83)">
              <path id="Trazado_623048" data-name="Trazado 623048" d="M103.561,258.532h0a.731.731,0,0,1-.731-.746c0-1.208.731-29.367,15.288-39.793a.746.746,0,0,1,1.029.179.761.761,0,0,1-.164,1.044c-13.945,9.978-14.661,38.3-14.661,38.584A.746.746,0,0,1,103.561,258.532Z" transform="translate(-63.291 -199.788)" fill="#263238"/>
              <path id="Trazado_623049" data-name="Trazado 623049" d="M119.285,215.314s3.565-8.039.865-7.308c-5.25,1.491-6.548,8.949-6.548,8.949s.4-6.324-1.82-5.1-3.117,9.187,1.417,14.184,12.9,3.937,13.11,2.506-3.624-2.312-3.624-2.312,5.8-1.163,7.308-5.25-3.341-.955-6.667-.686c0,0,6.055-4.251,4.922-7.92S121.79,212.823,119.285,215.314Z" transform="translate(-59.79 -204.655)" fill="#219f45"/>
              <path id="Trazado_623050" data-name="Trazado 623050" d="M119.285,215.314s3.565-8.039.865-7.308c-5.25,1.491-6.548,8.949-6.548,8.949s.4-6.324-1.82-5.1-3.117,9.187,1.417,14.184,12.9,3.937,13.11,2.506-3.624-2.312-3.624-2.312,5.8-1.163,7.308-5.25-3.341-.955-6.667-.686c0,0,6.055-4.251,4.922-7.92S121.79,212.823,119.285,215.314Z" transform="translate(-59.79 -204.655)" fill="#fff" opacity="0.6"/>
              <path id="Trazado_623051" data-name="Trazado 623051" d="M119.818,227.117c.254-1.014-3.207-2.073-3.207-2.073s6.055-1.223,6.16-2.744-4.892-.731-4.892-.731,3.594-4.191,2.67-5.369-5.175,2.312-5.175,2.312,2.282-4.579.776-5.086-3.908,5.444-3.908,5.444-.3-2.908-1.491-2.565c0,0,.6-.522,1.715.7,0,0,1.79-5.325,3.908-5.414s1.223,4.236,1.223,4.236,2.535-3.58,4.967-2.446-2.476,7.04-2.476,7.04,3.4-.328,3.594,1.626-5.593,3.236-5.593,3.236a2.118,2.118,0,0,1,1.79.91C120.43,227.117,119.818,227.117,119.818,227.117Z" transform="translate(-59.399 -202.871)" opacity="0.2"/>
              <path id="Trazado_623052" data-name="Trazado 623052" d="M105.988,269.405a.761.761,0,0,1-.746-.731c0-.283-.716-28.621-14.661-38.6a.747.747,0,0,1,.88-1.208c14.557,10.44,15.258,38.584,15.273,39.778a.746.746,0,0,1-.731.761Z" transform="translate(-69.462 -194.449)" fill="#263238"/>
              <path id="Trazado_623053" data-name="Trazado 623053" d="M91.557,226.154s-3.565-8.054-.88-7.308c5.25,1.491,6.548,8.949,6.548,8.949s-.388-6.324,1.835-5.116,3.1,9.187-1.417,14.184-12.916,3.952-13.125,2.506,3.624-2.3,3.624-2.3-5.8-1.178-7.308-5.25,3.356-.955,6.667-.686c0,0-6.055-4.266-4.922-7.92S89.036,223.649,91.557,226.154Z" transform="translate(-74.241 -199.328)" fill="#219f45"/>
              <path id="Trazado_623054" data-name="Trazado 623054" d="M91.557,226.154s-3.565-8.054-.88-7.308c5.25,1.491,6.548,8.949,6.548,8.949s-.388-6.324,1.835-5.116,3.1,9.187-1.417,14.184-12.916,3.952-13.125,2.506,3.624-2.3,3.624-2.3-5.8-1.178-7.308-5.25,3.356-.955,6.667-.686c0,0-6.055-4.266-4.922-7.92S89.036,223.649,91.557,226.154Z" transform="translate(-74.241 -199.328)" fill="#fff" opacity="0.4"/>
              <path id="Trazado_623055" data-name="Trazado 623055" d="M88.574,237.922c-.254-1.014,3.207-2.073,3.207-2.073s-5.966-1.208-6.145-2.744,4.892-.731,4.892-.731-3.609-4.191-2.67-5.354,5.16,2.312,5.16,2.312-2.267-4.579-.776-5.086,3.908,5.429,3.908,5.429.313-2.908,1.491-2.55c0,0-.612-.537-1.73.686,0,0-1.775-5.31-3.893-5.4s-1.238,4.221-1.238,4.221-2.536-3.565-4.952-2.431,2.461,7.04,2.461,7.04-3.4-.343-3.58,1.626,5.593,3.222,5.593,3.222a2.163,2.163,0,0,0-1.8.925C87.963,237.937,88.574,237.922,88.574,237.922Z" transform="translate(-72.198 -197.553)" opacity="0.2"/>
              <path id="Trazado_623056" data-name="Trazado 623056" d="M103.031,266.149h0a.776.776,0,0,1-.671-.82c0-.3,2.983-30.292-5.071-45.579a.744.744,0,0,1,1.313-.7c8.307,15.705,5.384,45.177,5.25,46.43A.761.761,0,0,1,103.031,266.149Z" transform="translate(-66.057 -199.396)" fill="#263238"/>
              <path id="Trazado_623057" data-name="Trazado 623057" d="M102.67,214.493s.477-10.44,2.983-8.278c4.847,4.325,2.237,13.05,2.237,13.05s2.983-6.965,4.668-4.474-1.581,11.469-9.068,14.393-15.869-2.67-15.332-4.31,5.1-.537,5.1-.537-5.578-4.325-5.011-9.486c.582-5.4,4.087.761,7.457,2.819,0,0-4.191-7.771-1.029-11.082S101.358,210.5,102.67,214.493Z" transform="translate(-70.514 -205.744)" fill="#219f45"/>
              <path id="Trazado_623058" data-name="Trazado 623058" d="M102.67,214.493s.477-10.44,2.983-8.278c4.847,4.325,2.237,13.05,2.237,13.05s2.983-6.965,4.668-4.474-1.581,11.469-9.068,14.393-15.869-2.67-15.332-4.31,5.1-.537,5.1-.537-5.578-4.325-5.011-9.486c.582-5.4,4.087.761,7.457,2.819,0,0-4.191-7.771-1.029-11.082S101.358,210.5,102.67,214.493Z" transform="translate(-70.514 -205.744)" fill="#fff" opacity="0.2"/>
              <path id="Trazado_623059" data-name="Trazado 623059" d="M143.367,268.828a.761.761,0,0,1-.746-.746c0-.283-.716-28.606-14.661-38.584a.761.761,0,0,1-.164-1.044.731.731,0,0,1,1.029-.179c14.557,10.44,15.273,38.584,15.288,39.792a.746.746,0,0,1-.731.761Z" transform="translate(-51.089 -194.737)" fill="#263238"/>
              <path id="Trazado_623060" data-name="Trazado 623060" d="M128.947,225.594s-3.565-8.039-.865-7.308c5.25,1.491,6.548,8.949,6.548,8.949s-.4-6.324,1.82-5.1,3.117,9.173-1.491,14.184-12.9,3.938-13.11,2.506,3.624-2.312,3.624-2.312-5.8-1.163-7.308-5.25,3.341-.955,6.667-.686c0,0-6.055-4.251-4.922-7.92S126.441,223.1,128.947,225.594Z" transform="translate(-55.894 -199.603)" fill="#219f45"/>
              <path id="Trazado_623061" data-name="Trazado 623061" d="M128.947,225.594s-3.565-8.039-.865-7.308c5.25,1.491,6.548,8.949,6.548,8.949s-.4-6.324,1.82-5.1,3.117,9.173-1.491,14.184-12.9,3.938-13.11,2.506,3.624-2.312,3.624-2.312-5.8-1.163-7.308-5.25,3.341-.955,6.667-.686c0,0-6.055-4.251-4.922-7.92S126.441,223.1,128.947,225.594Z" transform="translate(-55.894 -199.603)" fill="#fff" opacity="0.2"/>
              <path id="Trazado_623062" data-name="Trazado 623062" d="M125.954,237.377c-.254-1.014,3.207-2.073,3.207-2.073s-6.055-1.223-6.16-2.744,4.907-.731,4.907-.731-3.609-4.191-2.685-5.369,5.175,2.312,5.175,2.312-2.282-4.579-.776-5.086,3.908,5.444,3.908,5.444.3-2.908,1.491-2.565c0,0-.6-.522-1.715.7,0,0-1.79-5.325-3.908-5.414s-1.223,4.236-1.223,4.236-2.535-3.58-4.967-2.446,2.476,7.04,2.476,7.04-3.4-.328-3.594,1.626,5.608,3.236,5.608,3.236a2.133,2.133,0,0,0-1.8.91C125.343,237.392,125.954,237.377,125.954,237.377Z" transform="translate(-53.827 -197.828)" opacity="0.2"/>
              <path id="Trazado_623063" data-name="Trazado 623063" d="M152.4,224.91s-1.67-11.738,3.937-15.72.418,5.026,1.372,13.811c0,0,5.086-15.273,13.5-13.945,4.653.731-8.039,14.676-8.039,14.676s14.393-8.486,16.749-4.937-14.02,10.754-14.02,10.754,15.049-1.909,15.78.746-16.66,4.087-16.66,4.087,13.722,2.073,13.572,4.967-9.59,2.744-15.929-.641c0,0,3.833,4.594,7.219,5.966s-10.724,1.7-15.556-6.95a14.378,14.378,0,0,1-6.741-8.129c-3.356-12.752,2.521-13.557,2.774-10.754C150.772,223.582,152.4,224.91,152.4,224.91Z" transform="translate(-41.805 -204.527)" fill="#219f45"/>
              <path id="Trazado_623064" data-name="Trazado 623064" d="M152.4,224.91s-1.67-11.738,3.937-15.72.418,5.026,1.372,13.811c0,0,5.086-15.273,13.5-13.945,4.653.731-8.039,14.676-8.039,14.676s14.393-8.486,16.749-4.937-14.02,10.754-14.02,10.754,15.049-1.909,15.78.746-16.66,4.087-16.66,4.087,13.722,2.073,13.572,4.967-9.59,2.744-15.929-.641c0,0,3.833,4.594,7.219,5.966s-10.724,1.7-15.556-6.95a14.378,14.378,0,0,1-6.741-8.129c-3.356-12.752,2.521-13.557,2.774-10.754C150.772,223.582,152.4,224.91,152.4,224.91Z" transform="translate(-41.805 -204.527)" fill="#fff" opacity="0.5"/>
              <path id="Trazado_623065" data-name="Trazado 623065" d="M152.1,229.819s-2.744-2.073-2.67-4.34,4.057,1.491,4.057,1.491-.358-3.908,1.491-3.759.82,4.057.82,4.057,4.564-.373,5.16.656-5.086,1.879-5.086,1.879,4.474,1.67,2.983,3.445S153.428,232.8,152.1,229.819Z" transform="translate(-40.389 -197.161)" fill="#219f45"/>
              <path id="Trazado_623066" data-name="Trazado 623066" d="M147.61,270.932a.731.731,0,0,1-.731-.686c-.075-1.163-1.685-28.487,7.785-43.074a.746.746,0,0,1,1.253.805c-9.2,14.184-7.577,41.9-7.562,42.164a.731.731,0,0,1-.686.79Z" transform="translate(-41.715 -195.364)" fill="#263238"/>
              <path id="Trazado_623067" data-name="Trazado 623067" d="M143.739,260.419a.761.761,0,0,1-.582-.268c-.313-.4-7.86-9.859-2.282-30.471a.771.771,0,0,1,1.491.388c-5.354,19.792,1.939,29.039,2.013,29.128a.746.746,0,0,1-.1,1.044A.761.761,0,0,1,143.739,260.419Z" transform="translate(-45.6 -194.263)" fill="#263238"/>
              <path id="Trazado_623068" data-name="Trazado 623068" d="M140.438,232.749s-13.423-10.246-13.677-16.988,16.168,12.364,16.168,12.364-10.142-17.182-5.772-19.091,10.545,16.9,10.545,16.9-4.236-16.257.447-16.406,3.251,16.7,3.251,16.7,2.983-13.736,7.114-12.275-3.833,15.094-3.833,15.094,10.53-6.712,13.93-4.31-11.857,8.949-11.857,8.949,12.648,2.028,14.437,4.7-14.676.82-14.676.82,9.9,7.711,9.113,10.694-15.064-9.337-15.064-9.337,8.844,9.5,7.1,10.44-7.457-4.072-10.44-8.949a4.609,4.609,0,0,1-2.3,4.34c-2.58,1.342-4.8-.805-5.7-3.058s2.446-5.474,2.446-5.474-8.352,1.626-10.44-3.982S140.438,232.749,140.438,232.749Z" transform="translate(-51.531 -204.193)" fill="#219f45"/>
              <path id="Trazado_623069" data-name="Trazado 623069" d="M140.438,232.749s-13.423-10.246-13.677-16.988,16.168,12.364,16.168,12.364-10.142-17.182-5.772-19.091,10.545,16.9,10.545,16.9-4.236-16.257.447-16.406,3.251,16.7,3.251,16.7,2.983-13.736,7.114-12.275-3.833,15.094-3.833,15.094,10.53-6.712,13.93-4.31-11.857,8.949-11.857,8.949,12.648,2.028,14.437,4.7-14.676.82-14.676.82,9.9,7.711,9.113,10.694-15.064-9.337-15.064-9.337,8.844,9.5,7.1,10.44-7.457-4.072-10.44-8.949a4.609,4.609,0,0,1-2.3,4.34c-2.58,1.342-4.8-.805-5.7-3.058s2.446-5.474,2.446-5.474-8.352,1.626-10.44-3.982S140.438,232.749,140.438,232.749Z" transform="translate(-51.531 -204.193)" fill="#fff" opacity="0.3"/>
              <path id="Trazado_623070" data-name="Trazado 623070" d="M137.531,225.528c-.179-3.326,5.474-3.923,9.068-.432a3.952,3.952,0,0,1-4.027,6.727A7.249,7.249,0,0,1,137.531,225.528Z" transform="translate(-46.238 -197.39)" fill="#fff" opacity="0.6"/>
              <path id="Trazado_623071" data-name="Trazado 623071" d="M180.839,267.831h-.1a.746.746,0,0,1-.626-.85c0-.283,3.624-28.338-8.636-40.374a.731.731,0,0,1,0-1.044.746.746,0,0,1,1.059,0c12.8,12.5,9.217,40.449,9.068,41.642A.761.761,0,0,1,180.839,267.831Z" transform="translate(-29.663 -196.111)" fill="#263238"/>
              <path id="Trazado_623072" data-name="Trazado 623072" d="M173.573,222.462s-2.3-8.5.254-7.368c4.967,2.222,5.116,9.844,5.116,9.844s.567-6.309,2.58-4.773,1.67,9.56-3.565,13.811-13.349,1.939-13.349.492,3.938-1.745,3.938-1.745-5.548-2.028-6.428-6.294,3.46-.433,6.7.343c0,0-5.339-5.131-3.669-8.576S171.47,219.613,173.573,222.462Z" transform="translate(-34.209 -201.199)" fill="#219f45"/>
              <path id="Trazado_623073" data-name="Trazado 623073" d="M173.573,222.462s-2.3-8.5.254-7.368c4.967,2.222,5.116,9.844,5.116,9.844s.567-6.309,2.58-4.773,1.67,9.56-3.565,13.811-13.349,1.939-13.349.492,3.938-1.745,3.938-1.745-5.548-2.028-6.428-6.294,3.46-.433,6.7.343c0,0-5.339-5.131-3.669-8.576S171.47,219.613,173.573,222.462Z" transform="translate(-34.209 -201.199)" fill="#fff" opacity="0.3"/>
              <path id="Trazado_623074" data-name="Trazado 623074" d="M168.753,233.775c-.089-1.059,3.49-1.491,3.49-1.491s-5.787-2.133-5.668-3.654,4.952,0,4.952,0-2.983-4.683-1.82-5.7S174.465,226,174.465,226s-1.566-4.877,0-5.146,2.983,5.966,2.983,5.966.746-2.834,1.849-2.312c0,0-.522-.612-1.8.433,0,0-.955-5.533-2.983-5.966s-1.849,3.982-1.849,3.982-1.969-3.908-4.474-3.147,1.372,7.323,1.372,7.323-3.311-.85-3.788,1.059,5.026,4.042,5.026,4.042a2.118,2.118,0,0,0-1.909.626C168.156,233.686,168.753,233.775,168.753,233.775Z" transform="translate(-32.372 -199.253)" opacity="0.2"/>
              <path id="Trazado_623075" data-name="Trazado 623075" d="M185,223.874s-1.67-11.753,3.938-15.735.418,5.041,1.372,13.811c0,0,5.086-15.258,13.5-13.93,4.653.731-8.039,14.676-8.039,14.676s14.378-8.487,16.749-4.952S198.5,228.5,198.5,228.5s15.049-1.894,15.78.761-16.66,4.087-16.66,4.087,13.722,2.073,13.572,4.967-9.59,2.744-15.929-.641c0,0,3.833,4.594,7.219,5.966s-10.664,1.76-15.556-6.95a14.437,14.437,0,0,1-6.756-8.129c-3.341-12.737,2.535-13.543,2.774-10.754C183.4,222.547,185,223.874,185,223.874Z" transform="translate(-25.785 -205.042)" fill="#219f45"/>
              <path id="Trazado_623076" data-name="Trazado 623076" d="M185,223.874s-1.67-11.753,3.938-15.735.418,5.041,1.372,13.811c0,0,5.086-15.258,13.5-13.93,4.653.731-8.039,14.676-8.039,14.676s14.378-8.487,16.749-4.952S198.5,228.5,198.5,228.5s15.049-1.894,15.78.761-16.66,4.087-16.66,4.087,13.722,2.073,13.572,4.967-9.59,2.744-15.929-.641c0,0,3.833,4.594,7.219,5.966s-10.664,1.76-15.556-6.95a14.437,14.437,0,0,1-6.756-8.129c-3.341-12.737,2.535-13.543,2.774-10.754C183.4,222.547,185,223.874,185,223.874Z" transform="translate(-25.785 -205.042)" fill="#fff" opacity="0.6"/>
              <path id="Trazado_623077" data-name="Trazado 623077" d="M184.685,228.779s-2.729-2.088-2.655-4.34,4.057,1.491,4.057,1.491-.358-3.908,1.491-3.759.82,4.057.82,4.057,4.564-.373,5.161.656-5.1,1.879-5.1,1.879,4.474,1.656,2.983,3.43S186.013,231.762,184.685,228.779Z" transform="translate(-24.367 -197.672)" fill="#219f45"/>
              <path id="Trazado_623078" data-name="Trazado 623078" d="M180.2,269.906a.746.746,0,0,1-.746-.7c0-1.148-1.67-28.472,7.8-43.074a.749.749,0,0,1,1.253.82c-9.2,14.169-7.577,41.881-7.562,42.164a.746.746,0,0,1-.7.79Z" transform="translate(-25.686 -195.89)" fill="#263238"/>
              <path id="Trazado_623079" data-name="Trazado 623079" d="M182.7,258.276a.746.746,0,0,1-.746-.746c0-.507,0-12.6,17.241-25.221a.746.746,0,0,1,1.044.149.761.761,0,0,1-.164,1.044c-16.555,12.126-16.63,23.864-16.63,24.013a.761.761,0,0,1-.731.761Z" transform="translate(-24.406 -192.761)" fill="#263238"/>
              <path id="Trazado_623080" data-name="Trazado 623080" d="M195.653,233.442s-4.1-16.406-.089-21.82,4.922,19.747,4.922,19.747,2.8-19.747,7.457-18.509-2.312,19.777-2.312,19.777,6.831-15.347,10.649-12.588-7.9,15.079-7.9,15.079,10.918-8.874,13.214-5.146-12.409,9.4-12.409,9.4,12.409,1.327,13.572,5.325-14.81-.447-14.81-.447,8.591,9.486,8.337,12.678-11.932-8.5-11.932-8.5,2.983,12.185.447,14.035-5.966-16.7-5.966-16.7.984,12.946-.969,12.588-3.251-7.8-2.625-13.423a4.609,4.609,0,0,1-4.474,1.954c-2.864-.567-3.251-3.624-2.536-5.966s5.31-2.744,5.31-2.744-7.532-3.952-5.623-9.605S195.653,233.442,195.653,233.442Z" transform="translate(-21.628 -203.23)" fill="#219f45"/>
              <path id="Trazado_623081" data-name="Trazado 623081" d="M195.653,233.442s-4.1-16.406-.089-21.82,4.922,19.747,4.922,19.747,2.8-19.747,7.457-18.509-2.312,19.777-2.312,19.777,6.831-15.347,10.649-12.588-7.9,15.079-7.9,15.079,10.918-8.874,13.214-5.146-12.409,9.4-12.409,9.4,12.409,1.327,13.572,5.325-14.81-.447-14.81-.447,8.591,9.486,8.337,12.678-11.932-8.5-11.932-8.5,2.983,12.185.447,14.035-5.966-16.7-5.966-16.7.984,12.946-.969,12.588-3.251-7.8-2.625-13.423a4.609,4.609,0,0,1-4.474,1.954c-2.864-.567-3.251-3.624-2.536-5.966s5.31-2.744,5.31-2.744-7.532-3.952-5.623-9.605S195.653,233.442,195.653,233.442Z" transform="translate(-21.628 -203.23)" fill="#fff" opacity="0.4"/>
              <path id="Trazado_623082" data-name="Trazado 623082" d="M194.876,227.111c1.924-2.7,6.712.358,7.353,5.325a3.952,3.952,0,0,1-7.353,2.744,7.219,7.219,0,0,1,0-8.069Z" transform="translate(-18.659 -195.736)" fill="#fff" opacity="0.6"/>
              <path id="Trazado_623083" data-name="Trazado 623083" d="M263.693,270.54V491.174h-6.831v-209.6H123.151v209.6H116.32V270.54Z" transform="translate(-56.661 -173.898)" fill="#263238"/>
              <path id="Trazado_623084" data-name="Trazado 623084" d="M263.693,270.54V491.174h-6.831v-209.6H123.151v209.6H116.32V270.54Z" transform="translate(-56.661 -173.898)" fill="#fff" opacity="0.3"/>
              <path id="Trazado_623085" data-name="Trazado 623085" d="M223.693,270.54V491.174h-6.831v-209.6H83.151v209.6H76.32V270.54Z" transform="translate(-76.32 -173.898)" fill="#263238"/>
              <path id="Trazado_623086" data-name="Trazado 623086" d="M223.693,270.54V491.174h-6.831v-209.6H83.151v209.6H76.32V270.54Z" transform="translate(-76.32 -173.898)" fill="#fff" opacity="0.6"/>
              <path id="Trazado_623087" data-name="Trazado 623087" d="M216.882,239.88l-.865,7.129-.179,1.506-4.489,37.093H169.483l-4.549-37.585-.194-1.611-.79-6.533Z" transform="translate(-33.252 -188.966)" fill="#727997"/>
              <g id="Grupo_897897" data-name="Grupo 897897" transform="translate(131.488 56.429)" opacity="0.6">
                <path id="Trazado_623088" data-name="Trazado 623088" d="M215.757,245.192l-.179,1.491c-2.536-.91-3.759.537-5.369,2.461-1.3,1.491-2.759,3.281-5.116,3.49-3.192.283-4.922-1.491-6.577-3.1a10.232,10.232,0,0,0-4.474-3.1c-2.163-.6-4.236,1.089-6.428,2.864s-4.161,3.4-6.592,3.4a5.777,5.777,0,0,1-.716,0c-2.789-.388-4.385-2.207-5.966-3.952a8.949,8.949,0,0,0-5.056-3.609,6.5,6.5,0,0,0-4.609,1.119l-.194-1.611a7.681,7.681,0,0,1,5.086-.969,10.441,10.441,0,0,1,5.966,4.087c1.491,1.611,2.759,3.147,5,3.46s4.072-1.313,6.16-2.983c2.4-1.954,4.862-3.967,7.771-3.147a11.6,11.6,0,0,1,5.175,3.49c1.611,1.626,2.893,2.893,5.369,2.67,1.76-.164,2.908-1.491,4.116-2.983C210.671,246.3,212.461,244.207,215.757,245.192Z" transform="translate(-164.48 -243.578)" fill="#fff"/>
              </g>
              <path id="Trazado_623089" data-name="Trazado 623089" d="M136.882,239.88l-1.357,11.2-.194,1.581-3.982,32.947H89.483l-4.34-35.855-.194-1.581-1-8.293Z" transform="translate(-72.57 -188.966)" fill="#c08dd5"/>
              <path id="Trazado_623090" data-name="Trazado 623090" d="M132.034,247.274c1.029.626,2.088,1.253,3.162,1.79L135,250.644c-1.283-.612-2.521-1.357-3.729-2.088-2.7-1.626-5.265-3.192-8.129-3.072A8.039,8.039,0,0,0,118.074,248a10.44,10.44,0,0,1-8.039,3.192,18.046,18.046,0,0,1-8.367-2.685,25.236,25.236,0,0,0-7.234-2.849c-2.983-.641-6.562.537-9.62,2.073l-.194-1.581c3.192-1.492,6.891-2.64,10.127-1.939a27.085,27.085,0,0,1,7.636,2.983,16.555,16.555,0,0,0,7.741,2.506,9.023,9.023,0,0,0,6.98-2.834,9.456,9.456,0,0,1,5.966-2.879C126.411,243.858,129.275,245.6,132.034,247.274Z" transform="translate(-72.241 -186.949)" fill="#fff" opacity="0.6"/>
              <path id="Trazado_623092" data-name="Trazado 623092" d="M176.882,239.88l-1.029,8.457-.254,2.1-4.251,35.169H129.483l-4.266-35.3-.239-1.954-1.029-8.472Z" transform="translate(-52.911 -188.966)" fill="#fe7062"/>
              <path id="Trazado_623093" data-name="Trazado 623093" d="M175.524,246.764l-.254,2.1a12.29,12.29,0,0,1-8.576,2.565,7.01,7.01,0,0,1-5.5-3.147,5.429,5.429,0,0,0-4.7-2.55,7,7,0,0,0-5.966,2.342,10.44,10.44,0,0,1-7.592,3.162c-4.474,0-7.144-2.431-9.232-4.385-1.387-1.3-2.491-2.327-3.759-2.342h0c-1.283,0-2.685,1.491-4.176,3.207l-.91,1.014-.239-1.954h0c1.73-1.924,3.356-3.744,5.325-3.7s3.251,1.342,4.743,2.744c2,1.864,4.266,3.982,8.218,3.982a8.949,8.949,0,0,0,6.622-2.8,8.442,8.442,0,0,1,7.025-2.7,6.92,6.92,0,0,1,5.757,3.132,5.5,5.5,0,0,0,4.474,2.58C170.378,250.418,173.555,248.42,175.524,246.764Z" transform="translate(-52.582 -187.394)" fill="#fff" opacity="0.6"/>
            </g>
          </g>
        </g>
      </g>
    </g>
  </g>
</svg>
