<svg xmlns="http://www.w3.org/2000/svg" width="1240" height="371.185" viewBox="0 0 1240 371.185">
  <g id="Grupo_899253" data-name="Grupo 899253" transform="translate(-180 -8965)">
    <g id="Grupo_146203" data-name="Grupo 146203" transform="translate(180 8965)" opacity="0.4">
      <g id="Rectángulo_44580" data-name="Rectángulo 44580" transform="translate(0.449)" fill="#dbefec" stroke="#e8e8e8" stroke-width="1">
        <rect width="1239.551" height="371.184" stroke="none"/>
        <rect x="0.5" y="0.5" width="1238.551" height="370.184" fill="none"/>
      </g>
      <path id="Trazado_255559" data-name="Trazado 255559" d="M169.188,225.5,183.8,199.176l-14.609-26.333H139.977L125.368,199.17,139.977,225.5ZM139.977,109.338h29.211L183.8,135.671l-14.609,26.314H139.977l-14.609-26.327ZM240.854,225.5l-14.6-26.327,14.6-26.333h29.218l14.6,26.327-14.6,26.333Zm49.871,95.374-14.609-26.333,14.609-26.314h29.211l14.609,26.327-14.6,26.32Zm151.891-31.869-14.6-26.333,14.6-26.327h29.211l14.6,26.327-14.6,26.333Zm100.878,0-14.609-26.333,14.609-26.327h29.23l14.59,26.327-14.59,26.333ZM391.609,320.877,377,294.55l14.609-26.327H420.82l14.6,26.327-14.6,26.327ZM341.738,289l-14.609-26.333,14.609-26.32h29.211l14.6,26.327-14.6,26.333Zm150.749,31.875-14.609-26.333,14.609-26.327H521.7l14.6,26.333-14.6,26.327ZM290.725,257.385l-14.609-26.333,14.609-26.327h29.218l14.6,26.327-14.6,26.333Zm-100.878,0-14.609-26.333,14.578-26.327h29.242l14.6,26.327-14.6,26.333Zm51.007-95.4-14.6-26.327,14.6-26.333h29.218l14.6,26.333-14.6,26.327Zm100.884,0-14.609-26.327,14.609-26.32h29.211l14.6,26.333-14.6,26.314Zm-51.013,31.882L276.116,167.54l14.609-26.32h29.218l14.6,26.333-14.6,26.327ZM68.31,98.493H39.093L24.49,72.166l14.6-26.333H68.31l14.6,26.333Zm323.3,95.386L377,167.553l14.609-26.34H420.82l14.6,26.333-14.6,26.327Zm-49.871,31.649L327.129,199.2l14.609-26.359h29.211l14.6,26.333-14.6,26.327ZM391.609,257.4,377,231.077l14.609-26.327H420.82l14.6,26.327-14.6,26.333Zm51.007-31.875-14.6-26.333,14.6-26.327h29.211l14.6,26.327-14.6,26.333ZM189.847,193.88l-14.609-26.333,14.578-26.327h29.242l14.6,26.34-14.6,26.327Zm0-116.165h29.211l14.6,26.327-14.6,26.333H189.816l-14.609-26.333ZM118.175,331.734l14.609,26.327-14.609,26.333H88.964L74.386,358.061,88.97,331.734Zm122.679-31.882h29.218l14.6,26.327-14.6,26.346H240.854l-14.6-26.333Zm-100.878,0h29.211L183.8,326.179l-14.609,26.346H139.977l-14.609-26.333Zm100.878-10.845-14.6-26.333,14.6-26.327h29.218l14.6,26.327-14.6,26.333Zm100.884,10.845h29.211l14.6,26.327-14.6,26.346H341.738l-14.609-26.333Zm79.082,31.875,14.6,26.333-14.6,26.333H391.609L377,358.061l14.609-26.333Zm-100.878,0,14.6,26.327-14.609,26.333H290.725l-14.609-26.333,14.609-26.32ZM68.31,299.846l14.609,26.327L68.31,352.526H39.093l-14.6-26.333L39.1,299.865Zm0-127.01,14.6,26.333L68.31,225.5H39.093l-14.6-26.333,14.6-26.327Zm0-63.5,14.6,26.333-14.6,26.32H39.1L24.49,135.658l14.6-26.333Zm0,127.01,14.609,26.327L68.31,289H39.093l-14.6-26.333,14.6-26.327Zm150.749,95.393,14.6,26.327-14.6,26.333H189.816l-14.6-26.333,14.6-26.327Zm223.557-31.882h29.211l14.634,26.327-14.634,26.346H442.616l-14.6-26.333ZM88.964,141.22h29.211l14.609,26.327L118.175,193.88H88.964L74.386,167.546Zm0,63.5h29.211l14.609,26.327-14.609,26.333H88.97L74.386,231.051Zm51.013,84.283-14.609-26.333,14.609-26.327h29.211L183.8,262.674l-14.609,26.333Zm49.84,31.869-14.6-26.333,14.6-26.32h29.242l14.6,26.333-14.6,26.32Zm-100.878,0-14.553-26.32,14.6-26.333h29.187l14.609,26.333-14.609,26.32Zm454.554-21.024h29.23l14.59,26.327-14.59,26.346h-29.23l-14.609-26.333ZM88.964,77.715h29.211l14.609,26.327-14.609,26.333H88.97L74.386,104.042ZM521.7,331.734l14.609,26.327L521.7,384.394H492.487l-14.609-26.333,14.609-26.333ZM118.175,66.87H88.97L74.386,40.556,88.964,14.21h29.211l14.609,26.346Z" transform="translate(-24.49 -13.21)" fill="#addbd5" opacity="0.35"/>
    </g>
  </g>
</svg>
